%
M48
M72
T01C0.0236
T02C0.0320
T03C0.0400
%
T01
X37492Y8261
X42992Y8761
X37492Y9761
X48992Y8761
X49992Y8261
X58992Y8761
X64992Y8761
X65992Y8261
X74992Y8761
X80992Y8761
X81992Y8261
X90992Y8761
X96992Y8761
X97992Y8261
X106992Y8761
X112992Y8761
X113992Y8261
X122992Y8761
X128992Y8761
X129992Y8261
T02
X22492Y7261
X23492Y7261
X24492Y7261
X25492Y7261
X26492Y7261
X27492Y7261
X28492Y7261
X29492Y7261
X38492Y7261
X39492Y7261
X40492Y7261
X41492Y7261
X42492Y7261
X43492Y7261
X44492Y7261
X45492Y7261
X54492Y7261
X55492Y7261
X56492Y7261
X57492Y7261
X58492Y7261
X59492Y7261
X60492Y7261
X61492Y7261
X70492Y7261
X71492Y7261
X72492Y7261
X73492Y7261
X74492Y7261
X75492Y7261
X76492Y7261
X77492Y7261
X86492Y7261
X87492Y7261
X88492Y7261
X89492Y7261
X90492Y7261
X91492Y7261
X92492Y7261
X93492Y7261
X102492Y7261
X103492Y7261
X104492Y7261
X105492Y7261
X106492Y7261
X107492Y7261
X108492Y7261
X109492Y7261
X118492Y7261
X119492Y7261
X120492Y7261
X121492Y7261
X122492Y7261
X123492Y7261
X124492Y7261
X125492Y7261
X134492Y7261
X135492Y7261
X136492Y7261
X137492Y7261
X138492Y7261
X139492Y7261
X140492Y7261
X141492Y7261
X142992Y7761
X145492Y9261
X144492Y10261
X142992Y10761
X141492Y10261
X140492Y10261
X139492Y10261
X138492Y10261
X137492Y10261
X136492Y10261
X135492Y10261
X134492Y10261
X125492Y10261
X124492Y10261
X123492Y10261
X122492Y10261
X121492Y10261
X120492Y10261
X119492Y10261
X118492Y10261
X109492Y10261
X108492Y10261
X107492Y10261
X106492Y10261
X105492Y10261
X104492Y10261
X103492Y10261
X102492Y10261
X93492Y10261
X92492Y10261
X91492Y10261
X90492Y10261
X89492Y10261
X88492Y10261
X87492Y10261
X86492Y10261
X77492Y10261
X76492Y10261
X75492Y10261
X74492Y10261
X73492Y10261
X72492Y10261
X71492Y10261
X70492Y10261
X61492Y10261
X60492Y10261
X59492Y10261
X58492Y10261
X57492Y10261
X56492Y10261
X55492Y10261
X54492Y10261
X45492Y10261
X44492Y10261
X43492Y10261
X42492Y10261
X41492Y10261
X40492Y10261
X39492Y10261
X38492Y10261
X29492Y10261
X28492Y10261
X27492Y10261
X26492Y10261
X25492Y10261
X24492Y10261
X23492Y10261
X22492Y10261
X15492Y11761
X14492Y10761
X14492Y13761
X14492Y14761
X15492Y14761
X15492Y15761
X14492Y17761
X14492Y18761
X15492Y18761
X15492Y19761
X14492Y21761
X14492Y22761
X15492Y22761
X15492Y23761
X14492Y25761
X15492Y26761
X16492Y30155
X17492Y30155
X20492Y30155
X21492Y30155
X24492Y30155
X25492Y30155
X28492Y30155
X29492Y30155
X32492Y30155
X33492Y30155
X36492Y30155
X37492Y30155
X40492Y30155
X41492Y30155
X44492Y30155
X45492Y30155
X48492Y30155
X49492Y30155
X52492Y30155
X53492Y30155
X56492Y30155
X57492Y30155
X60492Y30155
X61492Y30155
X64492Y30155
X65492Y30155
X68492Y30155
X69492Y30155
X72492Y30155
X73492Y30155
X76492Y30155
X77492Y30155
X80492Y30155
X81492Y30155
X84492Y30155
X85492Y30155
X88492Y30155
X89492Y30155
X92492Y30155
X93492Y30155
X96492Y30155
X97492Y30155
X100492Y30155
X101492Y30155
X104492Y30155
X105492Y30155
X108492Y30155
X109492Y30155
X112492Y30155
X113492Y30155
X116492Y30155
X117492Y30155
X120492Y30155
X121492Y30155
X124492Y30155
X125492Y30155
X128492Y30155
X129492Y30155
X132492Y30155
X133492Y30155
X136492Y30155
X137492Y30155
X140492Y30155
X141492Y30155
X142492Y32155
X143492Y32155
X139492Y32155
X138492Y32155
X135492Y32155
X134492Y32155
X131492Y32155
X130492Y32155
X127492Y32155
X126492Y32155
X123492Y32155
X122492Y32155
X119492Y32155
X118492Y32155
X115492Y32155
X114492Y32155
X111492Y32155
X110492Y32155
X107492Y32155
X106492Y32155
X103492Y32155
X102492Y32155
X99492Y32155
X98492Y32155
X95492Y32155
X94492Y32155
X91492Y32155
X90492Y32155
X87492Y32155
X86492Y32155
X83492Y32155
X82492Y32155
X79492Y32155
X78492Y32155
X75492Y32155
X74492Y32155
X71492Y32155
X70492Y32155
X67492Y32155
X66492Y32155
X63492Y32155
X62492Y32155
X59492Y32155
X58492Y32155
X55492Y32155
X54492Y32155
X51492Y32155
X50492Y32155
X47492Y32155
X46492Y32155
X43492Y32155
X42492Y32155
X39492Y32155
X38492Y32155
X35492Y32155
X34492Y32155
X31492Y32155
X30492Y32155
X27492Y32155
X26492Y32155
X23492Y32155
X22492Y32155
X19492Y32155
X18492Y32155
X144492Y25261
X145492Y24261
X144492Y22261
X144492Y21261
X145492Y21261
X145492Y20261
X144492Y18261
X144492Y17261
X145492Y17261
X145492Y16261
X144492Y14261
X144492Y13261
X145492Y13261
X145492Y12261
T03
X143492Y12761
X142492Y12761
X141492Y12761
X140492Y12761
X139492Y12761
X138492Y12761
X137492Y12761
X136492Y12761
X135492Y12761
X134492Y12761
X133492Y12761
X132492Y12761
X131492Y12761
X130492Y12761
X129492Y12761
X128492Y12761
X127492Y12761
X126492Y12761
X125492Y12761
X124492Y12761
X123492Y12761
X122492Y12761
X121492Y12761
X120492Y12761
X119492Y12761
X118492Y12761
X117492Y12761
X116492Y12761
X115492Y12761
X114492Y12761
X113492Y12761
X112492Y12761
X111492Y12761
X110492Y12761
X109492Y12761
X108492Y12761
X107492Y12761
X106492Y12761
X105492Y12761
X104492Y12761
X103492Y12761
X102492Y12761
X101492Y12761
X100492Y12761
X99492Y12761
X98492Y12761
X97492Y12761
X96492Y12761
X95492Y12761
X94492Y12761
X93492Y12761
X92492Y12761
X91492Y12761
X90492Y12761
X89492Y12761
X88492Y12761
X87492Y12761
X86492Y12761
X85492Y12761
X84492Y12761
X83492Y12761
X82492Y12761
X81492Y12761
X80492Y12761
X79492Y12761
X78492Y12761
X77492Y12761
X76492Y12761
X75492Y12761
X74492Y12761
X73492Y12761
X72492Y12761
X71492Y12761
X70492Y12761
X69492Y12761
X68492Y12761
X67492Y12761
X66492Y12761
X65492Y12761
X64492Y12761
X63492Y12761
X62492Y12761
X61492Y12761
X60492Y12761
X59492Y12761
X58492Y12761
X57492Y12761
X56492Y12761
X55492Y12761
X54492Y12761
X53492Y12761
X52492Y12761
X51492Y12761
X50492Y12761
X49492Y12761
X48492Y12761
X47492Y12761
X46492Y12761
X45492Y12761
X44492Y12761
X43492Y12761
X42492Y12761
X41492Y12761
X40492Y12761
X39492Y12761
X38492Y12761
X37492Y12761
X36492Y12761
X35492Y12761
X34492Y12761
X33492Y12761
X32492Y12761
X31492Y12761
X30492Y12761
X29492Y12761
X28492Y12761
X27492Y12761
X26492Y12761
X25492Y12761
X24492Y12761
X23492Y12761
X22492Y12761
X21492Y12761
X20492Y12761
X19492Y12761
X18492Y12761
X17492Y12761
X16492Y12761
X16492Y11761
X17492Y11761
X18492Y11761
X19492Y11761
X20492Y11761
X21492Y11761
X22492Y11761
X23492Y11761
X24492Y11761
X25492Y11761
X26492Y11761
X27492Y11761
X28492Y11761
X29492Y11761
X30492Y11761
X31492Y11761
X32492Y11761
X33492Y11761
X34492Y11761
X35492Y11761
X36492Y11761
X37492Y11761
X38492Y11761
X39492Y11761
X40492Y11761
X41492Y11761
X42492Y11761
X43492Y11761
X44492Y11761
X45492Y11761
X46492Y11761
X47492Y11761
X48492Y11761
X49492Y11761
X50492Y11761
X51492Y11761
X52492Y11761
X53492Y11761
X54492Y11761
X55492Y11761
X56492Y11761
X57492Y11761
X58492Y11761
X59492Y11761
X60492Y11761
X61492Y11761
X62492Y11761
X63492Y11761
X64492Y11761
X65492Y11761
X66492Y11761
X67492Y11761
X68492Y11761
X69492Y11761
X70492Y11761
X71492Y11761
X72492Y11761
X73492Y11761
X74492Y11761
X75492Y11761
X76492Y11761
X77492Y11761
X78492Y11761
X79492Y11761
X80492Y11761
X81492Y11761
X82492Y11761
X83492Y11761
X84492Y11761
X85492Y11761
X86492Y11761
X87492Y11761
X88492Y11761
X89492Y11761
X90492Y11761
X91492Y11761
X92492Y11761
X93492Y11761
X94492Y11761
X95492Y11761
X96492Y11761
X97492Y11761
X98492Y11761
X99492Y11761
X100492Y11761
X101492Y11761
X102492Y11761
X103492Y11761
X104492Y11761
X105492Y11761
X106492Y11761
X107492Y11761
X108492Y11761
X109492Y11761
X110492Y11761
X111492Y11761
X112492Y11761
X113492Y11761
X114492Y11761
X115492Y11761
X116492Y11761
X117492Y11761
X118492Y11761
X119492Y11761
X120492Y11761
X121492Y11761
X122492Y11761
X123492Y11761
X124492Y11761
X125492Y11761
X126492Y11761
X127492Y11761
X128492Y11761
X129492Y11761
X130492Y11761
X131492Y11761
X132492Y11761
X133492Y11761
X134492Y11761
X135492Y11761
X136492Y11761
X137492Y11761
X138492Y11761
X139492Y11761
X140492Y11761
X141492Y11761
X142492Y11761
X143492Y11761
X143492Y13761
X142492Y13761
X141492Y13761
X140492Y13761
X139492Y13761
X138492Y13761
X137492Y13761
X136492Y13761
X135492Y13761
X134492Y13761
X133492Y13761
X132492Y13761
X131492Y13761
X130492Y13761
X129492Y13761
X128492Y13761
X127492Y13761
X126492Y13761
X125492Y13761
X124492Y13761
X123492Y13761
X122492Y13761
X121492Y13761
X120492Y13761
X119492Y13761
X118492Y13761
X117492Y13761
X116492Y13761
X115492Y13761
X114492Y13761
X113492Y13761
X112492Y13761
X111492Y13761
X110492Y13761
X109492Y13761
X108492Y13761
X107492Y13761
X106492Y13761
X105492Y13761
X104492Y13761
X103492Y13761
X102492Y13761
X101492Y13761
X100492Y13761
X99492Y13761
X98492Y13761
X97492Y13761
X96492Y13761
X95492Y13761
X94492Y13761
X93492Y13761
X92492Y13761
X91492Y13761
X90492Y13761
X89492Y13761
X88492Y13761
X87492Y13761
X86492Y13761
X85492Y13761
X84492Y13761
X83492Y13761
X82492Y13761
X81492Y13761
X80492Y13761
X79492Y13761
X78492Y13761
X77492Y13761
X76492Y13761
X75492Y13761
X74492Y13761
X73492Y13761
X72492Y13761
X71492Y13761
X70492Y13761
X69492Y13761
X68492Y13761
X67492Y13761
X66492Y13761
X65492Y13761
X64492Y13761
X63492Y13761
X62492Y13761
X61492Y13761
X60492Y13761
X59492Y13761
X58492Y13761
X57492Y13761
X56492Y13761
X55492Y13761
X54492Y13761
X53492Y13761
X52492Y13761
X51492Y13761
X50492Y13761
X49492Y13761
X48492Y13761
X47492Y13761
X46492Y13761
X45492Y13761
X44492Y13761
X43492Y13761
X42492Y13761
X41492Y13761
X40492Y13761
X39492Y13761
X38492Y13761
X37492Y13761
X36492Y13761
X35492Y13761
X34492Y13761
X33492Y13761
X32492Y13761
X31492Y13761
X30492Y13761
X29492Y13761
X28492Y13761
X27492Y13761
X26492Y13761
X25492Y13761
X24492Y13761
X23492Y13761
X22492Y13761
X21492Y13761
X20492Y13761
X19492Y13761
X18492Y13761
X17492Y13761
X16492Y13761
X16492Y14761
X17492Y14761
X18492Y14761
X19492Y14761
X20492Y14761
X21492Y14761
X22492Y14761
X23492Y14761
X24492Y14761
X25492Y14761
X26492Y14761
X27492Y14761
X28492Y14761
X29492Y14761
X30492Y14761
X31492Y14761
X32492Y14761
X33492Y14761
X34492Y14761
X35492Y14761
X36492Y14761
X37492Y14761
X38492Y14761
X39492Y14761
X40492Y14761
X41492Y14761
X42492Y14761
X43492Y14761
X44492Y14761
X45492Y14761
X46492Y14761
X47492Y14761
X48492Y14761
X49492Y14761
X50492Y14761
X51492Y14761
X52492Y14761
X53492Y14761
X54492Y14761
X55492Y14761
X56492Y14761
X57492Y14761
X58492Y14761
X59492Y14761
X60492Y14761
X61492Y14761
X62492Y14761
X63492Y14761
X64492Y14761
X65492Y14761
X66492Y14761
X67492Y14761
X68492Y14761
X69492Y14761
X70492Y14761
X71492Y14761
X72492Y14761
X73492Y14761
X74492Y14761
X75492Y14761
X76492Y14761
X77492Y14761
X78492Y14761
X79492Y14761
X80492Y14761
X81492Y14761
X82492Y14761
X83492Y14761
X84492Y14761
X85492Y14761
X86492Y14761
X87492Y14761
X88492Y14761
X89492Y14761
X90492Y14761
X91492Y14761
X92492Y14761
X93492Y14761
X94492Y14761
X95492Y14761
X96492Y14761
X97492Y14761
X98492Y14761
X99492Y14761
X100492Y14761
X101492Y14761
X102492Y14761
X103492Y14761
X104492Y14761
X105492Y14761
X106492Y14761
X107492Y14761
X108492Y14761
X109492Y14761
X110492Y14761
X111492Y14761
X112492Y14761
X113492Y14761
X114492Y14761
X115492Y14761
X116492Y14761
X117492Y14761
X118492Y14761
X119492Y14761
X120492Y14761
X121492Y14761
X122492Y14761
X123492Y14761
X124492Y14761
X125492Y14761
X126492Y14761
X127492Y14761
X128492Y14761
X129492Y14761
X130492Y14761
X131492Y14761
X132492Y14761
X133492Y14761
X134492Y14761
X135492Y14761
X136492Y14761
X137492Y14761
X138492Y14761
X139492Y14761
X140492Y14761
X141492Y14761
X142492Y14761
X143492Y14761
X143492Y15761
X142492Y15761
X141492Y15761
X140492Y15761
X139492Y15761
X138492Y15761
X137492Y15761
X136492Y15761
X135492Y15761
X134492Y15761
X133492Y15761
X132492Y15761
X131492Y15761
X130492Y15761
X129492Y15761
X128492Y15761
X127492Y15761
X126492Y15761
X125492Y15761
X124492Y15761
X123492Y15761
X122492Y15761
X121492Y15761
X120492Y15761
X119492Y15761
X118492Y15761
X117492Y15761
X116492Y15761
X115492Y15761
X114492Y15761
X113492Y15761
X112492Y15761
X111492Y15761
X110492Y15761
X109492Y15761
X108492Y15761
X107492Y15761
X106492Y15761
X105492Y15761
X104492Y15761
X103492Y15761
X102492Y15761
X101492Y15761
X100492Y15761
X99492Y15761
X98492Y15761
X97492Y15761
X96492Y15761
X95492Y15761
X94492Y15761
X93492Y15761
X92492Y15761
X91492Y15761
X90492Y15761
X89492Y15761
X88492Y15761
X87492Y15761
X86492Y15761
X85492Y15761
X84492Y15761
X83492Y15761
X82492Y15761
X81492Y15761
X80492Y15761
X79492Y15761
X78492Y15761
X77492Y15761
X76492Y15761
X75492Y15761
X74492Y15761
X73492Y15761
X72492Y15761
X71492Y15761
X70492Y15761
X69492Y15761
X68492Y15761
X67492Y15761
X66492Y15761
X65492Y15761
X64492Y15761
X63492Y15761
X62492Y15761
X61492Y15761
X60492Y15761
X59492Y15761
X58492Y15761
X57492Y15761
X56492Y15761
X55492Y15761
X54492Y15761
X53492Y15761
X52492Y15761
X51492Y15761
X50492Y15761
X49492Y15761
X48492Y15761
X47492Y15761
X46492Y15761
X45492Y15761
X44492Y15761
X43492Y15761
X42492Y15761
X41492Y15761
X40492Y15761
X39492Y15761
X38492Y15761
X37492Y15761
X36492Y15761
X35492Y15761
X34492Y15761
X33492Y15761
X32492Y15761
X31492Y15761
X30492Y15761
X29492Y15761
X28492Y15761
X27492Y15761
X26492Y15761
X25492Y15761
X24492Y15761
X23492Y15761
X22492Y15761
X21492Y15761
X20492Y15761
X19492Y15761
X18492Y15761
X17492Y15761
X16492Y15761
X16492Y16761
X17492Y16761
X18492Y16761
X19492Y16761
X20492Y16761
X21492Y16761
X22492Y16761
X23492Y16761
X24492Y16761
X25492Y16761
X26492Y16761
X27492Y16761
X28492Y16761
X29492Y16761
X30492Y16761
X31492Y16761
X32492Y16761
X33492Y16761
X34492Y16761
X35492Y16761
X36492Y16761
X37492Y16761
X38492Y16761
X39492Y16761
X40492Y16761
X41492Y16761
X42492Y16761
X43492Y16761
X44492Y16761
X45492Y16761
X46492Y16761
X47492Y16761
X48492Y16761
X49492Y16761
X50492Y16761
X51492Y16761
X52492Y16761
X53492Y16761
X54492Y16761
X55492Y16761
X56492Y16761
X57492Y16761
X58492Y16761
X59492Y16761
X60492Y16761
X61492Y16761
X62492Y16761
X63492Y16761
X64492Y16761
X65492Y16761
X66492Y16761
X67492Y16761
X68492Y16761
X69492Y16761
X70492Y16761
X71492Y16761
X72492Y16761
X73492Y16761
X74492Y16761
X75492Y16761
X76492Y16761
X77492Y16761
X78492Y16761
X79492Y16761
X80492Y16761
X81492Y16761
X82492Y16761
X83492Y16761
X84492Y16761
X85492Y16761
X86492Y16761
X87492Y16761
X88492Y16761
X89492Y16761
X90492Y16761
X91492Y16761
X92492Y16761
X93492Y16761
X94492Y16761
X95492Y16761
X96492Y16761
X97492Y16761
X98492Y16761
X99492Y16761
X100492Y16761
X101492Y16761
X102492Y16761
X103492Y16761
X104492Y16761
X105492Y16761
X106492Y16761
X107492Y16761
X108492Y16761
X109492Y16761
X110492Y16761
X111492Y16761
X112492Y16761
X113492Y16761
X114492Y16761
X115492Y16761
X116492Y16761
X117492Y16761
X118492Y16761
X119492Y16761
X120492Y16761
X121492Y16761
X122492Y16761
X123492Y16761
X124492Y16761
X125492Y16761
X126492Y16761
X127492Y16761
X128492Y16761
X129492Y16761
X130492Y16761
X131492Y16761
X132492Y16761
X133492Y16761
X134492Y16761
X135492Y16761
X136492Y16761
X137492Y16761
X138492Y16761
X139492Y16761
X140492Y16761
X141492Y16761
X142492Y16761
X143492Y16761
X143492Y17761
X142492Y17761
X141492Y17761
X140492Y17761
X139492Y17761
X138492Y17761
X137492Y17761
X136492Y17761
X135492Y17761
X134492Y17761
X133492Y17761
X132492Y17761
X131492Y17761
X130492Y17761
X129492Y17761
X128492Y17761
X127492Y17761
X126492Y17761
X125492Y17761
X124492Y17761
X123492Y17761
X122492Y17761
X121492Y17761
X120492Y17761
X119492Y17761
X118492Y17761
X117492Y17761
X116492Y17761
X115492Y17761
X114492Y17761
X113492Y17761
X112492Y17761
X111492Y17761
X110492Y17761
X109492Y17761
X108492Y17761
X107492Y17761
X106492Y17761
X105492Y17761
X104492Y17761
X103492Y17761
X102492Y17761
X101492Y17761
X100492Y17761
X99492Y17761
X98492Y17761
X97492Y17761
X96492Y17761
X95492Y17761
X94492Y17761
X93492Y17761
X92492Y17761
X91492Y17761
X90492Y17761
X89492Y17761
X88492Y17761
X87492Y17761
X86492Y17761
X85492Y17761
X84492Y17761
X83492Y17761
X82492Y17761
X81492Y17761
X80492Y17761
X79492Y17761
X78492Y17761
X77492Y17761
X76492Y17761
X75492Y17761
X74492Y17761
X73492Y17761
X72492Y17761
X71492Y17761
X70492Y17761
X69492Y17761
X68492Y17761
X67492Y17761
X66492Y17761
X65492Y17761
X64492Y17761
X63492Y17761
X62492Y17761
X61492Y17761
X60492Y17761
X59492Y17761
X58492Y17761
X57492Y17761
X56492Y17761
X55492Y17761
X54492Y17761
X53492Y17761
X52492Y17761
X51492Y17761
X50492Y17761
X49492Y17761
X48492Y17761
X47492Y17761
X46492Y17761
X45492Y17761
X44492Y17761
X43492Y17761
X42492Y17761
X41492Y17761
X40492Y17761
X39492Y17761
X38492Y17761
X37492Y17761
X36492Y17761
X35492Y17761
X34492Y17761
X33492Y17761
X32492Y17761
X31492Y17761
X30492Y17761
X29492Y17761
X28492Y17761
X27492Y17761
X26492Y17761
X25492Y17761
X24492Y17761
X23492Y17761
X22492Y17761
X21492Y17761
X20492Y17761
X19492Y17761
X18492Y17761
X17492Y17761
X16492Y17761
X16492Y18761
X17492Y18761
X18492Y18761
X19492Y18761
X20492Y18761
X21492Y18761
X22492Y18761
X23492Y18761
X24492Y18761
X25492Y18761
X26492Y18761
X27492Y18761
X28492Y18761
X29492Y18761
X30492Y18761
X31492Y18761
X32492Y18761
X33492Y18761
X34492Y18761
X35492Y18761
X36492Y18761
X37492Y18761
X38492Y18761
X39492Y18761
X40492Y18761
X41492Y18761
X42492Y18761
X43492Y18761
X44492Y18761
X45492Y18761
X46492Y18761
X47492Y18761
X48492Y18761
X49492Y18761
X50492Y18761
X51492Y18761
X52492Y18761
X53492Y18761
X54492Y18761
X55492Y18761
X56492Y18761
X57492Y18761
X58492Y18761
X59492Y18761
X60492Y18761
X61492Y18761
X62492Y18761
X63492Y18761
X64492Y18761
X65492Y18761
X66492Y18761
X67492Y18761
X68492Y18761
X69492Y18761
X70492Y18761
X71492Y18761
X72492Y18761
X73492Y18761
X74492Y18761
X75492Y18761
X76492Y18761
X77492Y18761
X78492Y18761
X79492Y18761
X80492Y18761
X81492Y18761
X82492Y18761
X83492Y18761
X84492Y18761
X85492Y18761
X86492Y18761
X87492Y18761
X88492Y18761
X89492Y18761
X90492Y18761
X91492Y18761
X92492Y18761
X93492Y18761
X94492Y18761
X95492Y18761
X96492Y18761
X97492Y18761
X98492Y18761
X99492Y18761
X100492Y18761
X101492Y18761
X102492Y18761
X103492Y18761
X104492Y18761
X105492Y18761
X106492Y18761
X107492Y18761
X108492Y18761
X109492Y18761
X110492Y18761
X111492Y18761
X112492Y18761
X113492Y18761
X114492Y18761
X115492Y18761
X116492Y18761
X117492Y18761
X118492Y18761
X119492Y18761
X120492Y18761
X121492Y18761
X122492Y18761
X123492Y18761
X124492Y18761
X125492Y18761
X126492Y18761
X127492Y18761
X128492Y18761
X129492Y18761
X130492Y18761
X131492Y18761
X132492Y18761
X133492Y18761
X134492Y18761
X135492Y18761
X136492Y18761
X137492Y18761
X138492Y18761
X139492Y18761
X140492Y18761
X141492Y18761
X142492Y18761
X143492Y18761
X143492Y19761
X142492Y19761
X141492Y19761
X140492Y19761
X139492Y19761
X138492Y19761
X137492Y19761
X136492Y19761
X135492Y19761
X134492Y19761
X133492Y19761
X132492Y19761
X131492Y19761
X130492Y19761
X129492Y19761
X128492Y19761
X127492Y19761
X126492Y19761
X125492Y19761
X124492Y19761
X123492Y19761
X122492Y19761
X121492Y19761
X120492Y19761
X119492Y19761
X118492Y19761
X117492Y19761
X116492Y19761
X115492Y19761
X114492Y19761
X113492Y19761
X112492Y19761
X111492Y19761
X110492Y19761
X109492Y19761
X108492Y19761
X107492Y19761
X106492Y19761
X105492Y19761
X104492Y19761
X103492Y19761
X102492Y19761
X101492Y19761
X100492Y19761
X99492Y19761
X98492Y19761
X97492Y19761
X96492Y19761
X95492Y19761
X94492Y19761
X93492Y19761
X92492Y19761
X91492Y19761
X90492Y19761
X89492Y19761
X88492Y19761
X87492Y19761
X86492Y19761
X85492Y19761
X84492Y19761
X83492Y19761
X82492Y19761
X81492Y19761
X80492Y19761
X79492Y19761
X78492Y19761
X77492Y19761
X76492Y19761
X75492Y19761
X74492Y19761
X73492Y19761
X72492Y19761
X71492Y19761
X70492Y19761
X69492Y19761
X68492Y19761
X67492Y19761
X66492Y19761
X65492Y19761
X64492Y19761
X63492Y19761
X62492Y19761
X61492Y19761
X60492Y19761
X59492Y19761
X58492Y19761
X57492Y19761
X56492Y19761
X55492Y19761
X54492Y19761
X53492Y19761
X52492Y19761
X51492Y19761
X50492Y19761
X49492Y19761
X48492Y19761
X47492Y19761
X46492Y19761
X45492Y19761
X44492Y19761
X43492Y19761
X42492Y19761
X41492Y19761
X40492Y19761
X39492Y19761
X38492Y19761
X37492Y19761
X36492Y19761
X35492Y19761
X34492Y19761
X33492Y19761
X32492Y19761
X31492Y19761
X30492Y19761
X29492Y19761
X28492Y19761
X27492Y19761
X26492Y19761
X25492Y19761
X24492Y19761
X23492Y19761
X22492Y19761
X21492Y19761
X20492Y19761
X19492Y19761
X18492Y19761
X17492Y19761
X16492Y19761
X16492Y20761
X17492Y20761
X18492Y20761
X19492Y20761
X20492Y20761
X21492Y20761
X22492Y20761
X23492Y20761
X24492Y20761
X25492Y20761
X26492Y20761
X27492Y20761
X28492Y20761
X29492Y20761
X30492Y20761
X31492Y20761
X32492Y20761
X33492Y20761
X34492Y20761
X35492Y20761
X36492Y20761
X37492Y20761
X38492Y20761
X39492Y20761
X40492Y20761
X41492Y20761
X42492Y20761
X43492Y20761
X44492Y20761
X45492Y20761
X46492Y20761
X47492Y20761
X48492Y20761
X49492Y20761
X50492Y20761
X51492Y20761
X52492Y20761
X53492Y20761
X54492Y20761
X55492Y20761
X56492Y20761
X57492Y20761
X58492Y20761
X59492Y20761
X60492Y20761
X61492Y20761
X62492Y20761
X63492Y20761
X64492Y20761
X65492Y20761
X66492Y20761
X67492Y20761
X68492Y20761
X69492Y20761
X70492Y20761
X71492Y20761
X72492Y20761
X73492Y20761
X74492Y20761
X75492Y20761
X76492Y20761
X77492Y20761
X78492Y20761
X79492Y20761
X80492Y20761
X81492Y20761
X82492Y20761
X83492Y20761
X84492Y20761
X85492Y20761
X86492Y20761
X87492Y20761
X88492Y20761
X89492Y20761
X90492Y20761
X91492Y20761
X92492Y20761
X93492Y20761
X94492Y20761
X95492Y20761
X96492Y20761
X97492Y20761
X98492Y20761
X99492Y20761
X100492Y20761
X101492Y20761
X102492Y20761
X103492Y20761
X104492Y20761
X105492Y20761
X106492Y20761
X107492Y20761
X108492Y20761
X109492Y20761
X110492Y20761
X111492Y20761
X112492Y20761
X113492Y20761
X114492Y20761
X115492Y20761
X116492Y20761
X117492Y20761
X118492Y20761
X119492Y20761
X120492Y20761
X121492Y20761
X122492Y20761
X123492Y20761
X124492Y20761
X125492Y20761
X126492Y20761
X127492Y20761
X128492Y20761
X129492Y20761
X130492Y20761
X131492Y20761
X132492Y20761
X133492Y20761
X134492Y20761
X135492Y20761
X136492Y20761
X137492Y20761
X138492Y20761
X139492Y20761
X140492Y20761
X141492Y20761
X142492Y20761
X143492Y20761
X143492Y21761
X142492Y21761
X141492Y21761
X140492Y21761
X139492Y21761
X138492Y21761
X137492Y21761
X136492Y21761
X135492Y21761
X134492Y21761
X133492Y21761
X132492Y21761
X131492Y21761
X130492Y21761
X129492Y21761
X128492Y21761
X127492Y21761
X126492Y21761
X125492Y21761
X124492Y21761
X123492Y21761
X122492Y21761
X121492Y21761
X120492Y21761
X119492Y21761
X118492Y21761
X117492Y21761
X116492Y21761
X115492Y21761
X114492Y21761
X113492Y21761
X112492Y21761
X111492Y21761
X110492Y21761
X109492Y21761
X108492Y21761
X107492Y21761
X106492Y21761
X105492Y21761
X104492Y21761
X103492Y21761
X102492Y21761
X101492Y21761
X100492Y21761
X99492Y21761
X98492Y21761
X97492Y21761
X96492Y21761
X95492Y21761
X94492Y21761
X93492Y21761
X92492Y21761
X91492Y21761
X90492Y21761
X89492Y21761
X88492Y21761
X87492Y21761
X86492Y21761
X85492Y21761
X84492Y21761
X83492Y21761
X82492Y21761
X81492Y21761
X80492Y21761
X79492Y21761
X78492Y21761
X77492Y21761
X76492Y21761
X75492Y21761
X74492Y21761
X73492Y21761
X72492Y21761
X71492Y21761
X70492Y21761
X69492Y21761
X68492Y21761
X67492Y21761
X66492Y21761
X65492Y21761
X64492Y21761
X63492Y21761
X62492Y21761
X61492Y21761
X60492Y21761
X59492Y21761
X58492Y21761
X57492Y21761
X56492Y21761
X55492Y21761
X54492Y21761
X53492Y21761
X52492Y21761
X51492Y21761
X50492Y21761
X49492Y21761
X48492Y21761
X47492Y21761
X46492Y21761
X45492Y21761
X44492Y21761
X43492Y21761
X42492Y21761
X41492Y21761
X40492Y21761
X39492Y21761
X38492Y21761
X37492Y21761
X36492Y21761
X35492Y21761
X34492Y21761
X33492Y21761
X32492Y21761
X31492Y21761
X30492Y21761
X29492Y21761
X28492Y21761
X27492Y21761
X26492Y21761
X25492Y21761
X24492Y21761
X23492Y21761
X22492Y21761
X21492Y21761
X20492Y21761
X19492Y21761
X18492Y21761
X17492Y21761
X16492Y21761
X16492Y22761
X17492Y22761
X18492Y22761
X19492Y22761
X20492Y22761
X21492Y22761
X22492Y22761
X23492Y22761
X24492Y22761
X25492Y22761
X26492Y22761
X27492Y22761
X28492Y22761
X29492Y22761
X30492Y22761
X31492Y22761
X32492Y22761
X33492Y22761
X34492Y22761
X35492Y22761
X36492Y22761
X37492Y22761
X38492Y22761
X39492Y22761
X40492Y22761
X41492Y22761
X42492Y22761
X43492Y22761
X44492Y22761
X45492Y22761
X46492Y22761
X47492Y22761
X48492Y22761
X49492Y22761
X50492Y22761
X51492Y22761
X52492Y22761
X53492Y22761
X54492Y22761
X55492Y22761
X56492Y22761
X57492Y22761
X58492Y22761
X59492Y22761
X60492Y22761
X61492Y22761
X62492Y22761
X63492Y22761
X64492Y22761
X65492Y22761
X66492Y22761
X67492Y22761
X68492Y22761
X69492Y22761
X70492Y22761
X71492Y22761
X72492Y22761
X73492Y22761
X74492Y22761
X75492Y22761
X76492Y22761
X77492Y22761
X78492Y22761
X79492Y22761
X80492Y22761
X81492Y22761
X82492Y22761
X83492Y22761
X84492Y22761
X85492Y22761
X86492Y22761
X87492Y22761
X88492Y22761
X89492Y22761
X90492Y22761
X91492Y22761
X92492Y22761
X93492Y22761
X94492Y22761
X95492Y22761
X96492Y22761
X97492Y22761
X98492Y22761
X99492Y22761
X100492Y22761
X101492Y22761
X102492Y22761
X103492Y22761
X104492Y22761
X105492Y22761
X106492Y22761
X107492Y22761
X108492Y22761
X109492Y22761
X110492Y22761
X111492Y22761
X112492Y22761
X113492Y22761
X114492Y22761
X115492Y22761
X116492Y22761
X117492Y22761
X118492Y22761
X119492Y22761
X120492Y22761
X121492Y22761
X122492Y22761
X123492Y22761
X124492Y22761
X125492Y22761
X126492Y22761
X127492Y22761
X128492Y22761
X129492Y22761
X130492Y22761
X131492Y22761
X132492Y22761
X133492Y22761
X134492Y22761
X135492Y22761
X136492Y22761
X137492Y22761
X138492Y22761
X139492Y22761
X140492Y22761
X141492Y22761
X142492Y22761
X143492Y22761
X143492Y23761
X142492Y23761
X141492Y23761
X140492Y23761
X139492Y23761
X138492Y23761
X137492Y23761
X136492Y23761
X135492Y23761
X134492Y23761
X133492Y23761
X132492Y23761
X131492Y23761
X130492Y23761
X129492Y23761
X128492Y23761
X127492Y23761
X126492Y23761
X125492Y23761
X124492Y23761
X123492Y23761
X122492Y23761
X121492Y23761
X120492Y23761
X119492Y23761
X118492Y23761
X117492Y23761
X116492Y23761
X115492Y23761
X114492Y23761
X113492Y23761
X112492Y23761
X111492Y23761
X110492Y23761
X109492Y23761
X108492Y23761
X107492Y23761
X106492Y23761
X105492Y23761
X104492Y23761
X103492Y23761
X102492Y23761
X101492Y23761
X100492Y23761
X99492Y23761
X98492Y23761
X97492Y23761
X96492Y23761
X95492Y23761
X94492Y23761
X93492Y23761
X92492Y23761
X91492Y23761
X90492Y23761
X89492Y23761
X88492Y23761
X87492Y23761
X86492Y23761
X85492Y23761
X84492Y23761
X83492Y23761
X82492Y23761
X81492Y23761
X80492Y23761
X79492Y23761
X78492Y23761
X77492Y23761
X76492Y23761
X75492Y23761
X74492Y23761
X73492Y23761
X72492Y23761
X71492Y23761
X70492Y23761
X69492Y23761
X68492Y23761
X67492Y23761
X66492Y23761
X65492Y23761
X64492Y23761
X63492Y23761
X62492Y23761
X61492Y23761
X60492Y23761
X59492Y23761
X58492Y23761
X57492Y23761
X56492Y23761
X55492Y23761
X54492Y23761
X53492Y23761
X52492Y23761
X51492Y23761
X50492Y23761
X49492Y23761
X48492Y23761
X47492Y23761
X46492Y23761
X45492Y23761
X44492Y23761
X43492Y23761
X42492Y23761
X41492Y23761
X40492Y23761
X39492Y23761
X38492Y23761
X37492Y23761
X36492Y23761
X35492Y23761
X34492Y23761
X33492Y23761
X32492Y23761
X31492Y23761
X30492Y23761
X29492Y23761
X28492Y23761
X27492Y23761
X26492Y23761
X25492Y23761
X24492Y23761
X23492Y23761
X22492Y23761
X21492Y23761
X20492Y23761
X19492Y23761
X18492Y23761
X17492Y23761
X16492Y23761
X16492Y24761
X17492Y24761
X18492Y24761
X19492Y24761
X20492Y24761
X21492Y24761
X22492Y24761
X23492Y24761
X24492Y24761
X25492Y24761
X26492Y24761
X27492Y24761
X28492Y24761
X29492Y24761
X30492Y24761
X31492Y24761
X32492Y24761
X33492Y24761
X34492Y24761
X35492Y24761
X36492Y24761
X37492Y24761
X38492Y24761
X39492Y24761
X40492Y24761
X41492Y24761
X42492Y24761
X43492Y24761
X44492Y24761
X45492Y24761
X46492Y24761
X47492Y24761
X48492Y24761
X49492Y24761
X50492Y24761
X51492Y24761
X52492Y24761
X53492Y24761
X54492Y24761
X55492Y24761
X56492Y24761
X57492Y24761
X58492Y24761
X59492Y24761
X60492Y24761
X61492Y24761
X62492Y24761
X63492Y24761
X64492Y24761
X65492Y24761
X66492Y24761
X67492Y24761
X68492Y24761
X69492Y24761
X70492Y24761
X71492Y24761
X72492Y24761
X73492Y24761
X74492Y24761
X75492Y24761
X76492Y24761
X77492Y24761
X78492Y24761
X79492Y24761
X80492Y24761
X81492Y24761
X82492Y24761
X83492Y24761
X84492Y24761
X85492Y24761
X86492Y24761
X87492Y24761
X88492Y24761
X89492Y24761
X90492Y24761
X91492Y24761
X92492Y24761
X93492Y24761
X94492Y24761
X95492Y24761
X96492Y24761
X97492Y24761
X98492Y24761
X99492Y24761
X100492Y24761
X101492Y24761
X102492Y24761
X103492Y24761
X104492Y24761
X105492Y24761
X106492Y24761
X107492Y24761
X108492Y24761
X109492Y24761
X110492Y24761
X111492Y24761
X112492Y24761
X113492Y24761
X114492Y24761
X115492Y24761
X116492Y24761
X117492Y24761
X118492Y24761
X119492Y24761
X120492Y24761
X121492Y24761
X122492Y24761
X123492Y24761
X124492Y24761
X125492Y24761
X126492Y24761
X127492Y24761
X128492Y24761
X129492Y24761
X130492Y24761
X131492Y24761
X132492Y24761
X133492Y24761
X134492Y24761
X135492Y24761
X136492Y24761
X137492Y24761
X138492Y24761
X139492Y24761
X140492Y24761
X141492Y24761
X142492Y24761
X143492Y24761
X143492Y25761
X142492Y25761
X141492Y25761
X140492Y25761
X139492Y25761
X138492Y25761
X137492Y25761
X136492Y25761
X135492Y25761
X134492Y25761
X133492Y25761
X132492Y25761
X131492Y25761
X130492Y25761
X129492Y25761
X128492Y25761
X127492Y25761
X126492Y25761
X125492Y25761
X124492Y25761
X123492Y25761
X122492Y25761
X121492Y25761
X120492Y25761
X119492Y25761
X118492Y25761
X117492Y25761
X116492Y25761
X115492Y25761
X114492Y25761
X113492Y25761
X112492Y25761
X111492Y25761
X110492Y25761
X109492Y25761
X108492Y25761
X107492Y25761
X106492Y25761
X105492Y25761
X104492Y25761
X103492Y25761
X102492Y25761
X101492Y25761
X100492Y25761
X99492Y25761
X98492Y25761
X97492Y25761
X96492Y25761
X95492Y25761
X94492Y25761
X93492Y25761
X92492Y25761
X91492Y25761
X90492Y25761
X89492Y25761
X88492Y25761
X87492Y25761
X86492Y25761
X85492Y25761
X84492Y25761
X83492Y25761
X82492Y25761
X81492Y25761
X80492Y25761
X79492Y25761
X78492Y25761
X77492Y25761
X76492Y25761
X75492Y25761
X74492Y25761
X73492Y25761
X72492Y25761
X71492Y25761
X70492Y25761
X69492Y25761
X68492Y25761
X67492Y25761
X66492Y25761
X65492Y25761
X64492Y25761
X63492Y25761
X62492Y25761
X61492Y25761
X60492Y25761
X59492Y25761
X58492Y25761
X57492Y25761
X56492Y25761
X55492Y25761
X54492Y25761
X53492Y25761
X52492Y25761
X51492Y25761
X50492Y25761
X49492Y25761
X48492Y25761
X47492Y25761
X46492Y25761
X45492Y25761
X44492Y25761
X43492Y25761
X42492Y25761
X41492Y25761
X40492Y25761
X39492Y25761
X38492Y25761
X37492Y25761
X36492Y25761
X35492Y25761
X34492Y25761
X33492Y25761
X32492Y25761
X31492Y25761
X30492Y25761
X29492Y25761
X28492Y25761
X27492Y25761
X26492Y25761
X25492Y25761
X24492Y25761
X23492Y25761
X22492Y25761
X21492Y25761
X20492Y25761
X19492Y25761
X18492Y25761
X17492Y25761
X16492Y25761
X16492Y26761
X17492Y26761
X18492Y26761
X19492Y26761
X20492Y26761
X21492Y26761
X22492Y26761
X23492Y26761
X24492Y26761
X25492Y26761
X26492Y26761
X27492Y26761
X28492Y26761
X29492Y26761
X30492Y26761
X31492Y26761
X32492Y26761
X33492Y26761
X34492Y26761
X35492Y26761
X36492Y26761
X37492Y26761
X38492Y26761
X39492Y26761
X40492Y26761
X41492Y26761
X42492Y26761
X43492Y26761
X44492Y26761
X45492Y26761
X46492Y26761
X47492Y26761
X48492Y26761
X49492Y26761
X50492Y26761
X51492Y26761
X52492Y26761
X53492Y26761
X54492Y26761
X55492Y26761
X56492Y26761
X57492Y26761
X58492Y26761
X59492Y26761
X60492Y26761
X61492Y26761
X62492Y26761
X63492Y26761
X64492Y26761
X65492Y26761
X66492Y26761
X67492Y26761
X68492Y26761
X69492Y26761
X70492Y26761
X71492Y26761
X72492Y26761
X73492Y26761
X74492Y26761
X75492Y26761
X76492Y26761
X77492Y26761
X78492Y26761
X79492Y26761
X80492Y26761
X81492Y26761
X82492Y26761
X83492Y26761
X84492Y26761
X85492Y26761
X86492Y26761
X87492Y26761
X88492Y26761
X89492Y26761
X90492Y26761
X91492Y26761
X92492Y26761
X93492Y26761
X94492Y26761
X95492Y26761
X96492Y26761
X97492Y26761
X98492Y26761
X99492Y26761
X100492Y26761
X101492Y26761
X102492Y26761
X103492Y26761
X104492Y26761
X105492Y26761
X106492Y26761
X107492Y26761
X108492Y26761
X109492Y26761
X110492Y26761
X111492Y26761
X112492Y26761
X113492Y26761
X114492Y26761
X115492Y26761
X116492Y26761
X117492Y26761
X118492Y26761
X119492Y26761
X120492Y26761
X121492Y26761
X122492Y26761
X123492Y26761
X124492Y26761
X125492Y26761
X126492Y26761
X127492Y26761
X128492Y26761
X129492Y26761
X130492Y26761
X131492Y26761
X132492Y26761
X133492Y26761
X134492Y26761
X135492Y26761
X136492Y26761
X137492Y26761
X138492Y26761
X139492Y26761
X140492Y26761
X141492Y26761
X142492Y26761
X143492Y26761
X35992Y9761
X34992Y9761
X33992Y9761
X32992Y9761
X31992Y9761
X31992Y8761
X32992Y8761
X33992Y8761
X34992Y8761
X35992Y8761
X19992Y8761
X18992Y8761
X17992Y8761
X16992Y8761
X15992Y8761
X14992Y8761
X14992Y9761
X15992Y9761
X16992Y9761
X17992Y9761
X18992Y9761
X19992Y9761
M30
