G75*
%MOIN*%
%OFA0B0*%
%FSLAX24Y24*%
%IPPOS*%
%LPD*%
%AMOC8*
5,1,8,0,0,1.08239X$1,22.5*
%
%ADD10C,0.0520*%
%ADD11OC8,0.0600*%
%ADD12OC8,0.0520*%
%ADD13C,0.0240*%
%ADD14C,0.0396*%
D10*
X022492Y007001D02*
X022492Y007521D01*
X023492Y007521D02*
X023492Y007001D01*
X024492Y007001D02*
X024492Y007521D01*
X025492Y007521D02*
X025492Y007001D01*
X026492Y007001D02*
X026492Y007521D01*
X027492Y007521D02*
X027492Y007001D01*
X028492Y007001D02*
X028492Y007521D01*
X029492Y007521D02*
X029492Y007001D01*
X038492Y007001D02*
X038492Y007521D01*
X039492Y007521D02*
X039492Y007001D01*
X040492Y007001D02*
X040492Y007521D01*
X041492Y007521D02*
X041492Y007001D01*
X042492Y007001D02*
X042492Y007521D01*
X043492Y007521D02*
X043492Y007001D01*
X044492Y007001D02*
X044492Y007521D01*
X045492Y007521D02*
X045492Y007001D01*
X054492Y007001D02*
X054492Y007521D01*
X055492Y007521D02*
X055492Y007001D01*
X056492Y007001D02*
X056492Y007521D01*
X057492Y007521D02*
X057492Y007001D01*
X058492Y007001D02*
X058492Y007521D01*
X059492Y007521D02*
X059492Y007001D01*
X060492Y007001D02*
X060492Y007521D01*
X061492Y007521D02*
X061492Y007001D01*
X070492Y007001D02*
X070492Y007521D01*
X071492Y007521D02*
X071492Y007001D01*
X072492Y007001D02*
X072492Y007521D01*
X073492Y007521D02*
X073492Y007001D01*
X074492Y007001D02*
X074492Y007521D01*
X075492Y007521D02*
X075492Y007001D01*
X076492Y007001D02*
X076492Y007521D01*
X077492Y007521D02*
X077492Y007001D01*
X086492Y007001D02*
X086492Y007521D01*
X087492Y007521D02*
X087492Y007001D01*
X088492Y007001D02*
X088492Y007521D01*
X089492Y007521D02*
X089492Y007001D01*
X090492Y007001D02*
X090492Y007521D01*
X091492Y007521D02*
X091492Y007001D01*
X092492Y007001D02*
X092492Y007521D01*
X093492Y007521D02*
X093492Y007001D01*
X102492Y007001D02*
X102492Y007521D01*
X103492Y007521D02*
X103492Y007001D01*
X104492Y007001D02*
X104492Y007521D01*
X105492Y007521D02*
X105492Y007001D01*
X106492Y007001D02*
X106492Y007521D01*
X107492Y007521D02*
X107492Y007001D01*
X108492Y007001D02*
X108492Y007521D01*
X109492Y007521D02*
X109492Y007001D01*
X118492Y007001D02*
X118492Y007521D01*
X119492Y007521D02*
X119492Y007001D01*
X120492Y007001D02*
X120492Y007521D01*
X121492Y007521D02*
X121492Y007001D01*
X122492Y007001D02*
X122492Y007521D01*
X123492Y007521D02*
X123492Y007001D01*
X124492Y007001D02*
X124492Y007521D01*
X125492Y007521D02*
X125492Y007001D01*
X134492Y007001D02*
X134492Y007521D01*
X135492Y007521D02*
X135492Y007001D01*
X136492Y007001D02*
X136492Y007521D01*
X137492Y007521D02*
X137492Y007001D01*
X138492Y007001D02*
X138492Y007521D01*
X139492Y007521D02*
X139492Y007001D01*
X140492Y007001D02*
X140492Y007521D01*
X141492Y007521D02*
X141492Y007001D01*
X141492Y010001D02*
X141492Y010521D01*
X140492Y010521D02*
X140492Y010001D01*
X139492Y010001D02*
X139492Y010521D01*
X138492Y010521D02*
X138492Y010001D01*
X137492Y010001D02*
X137492Y010521D01*
X136492Y010521D02*
X136492Y010001D01*
X135492Y010001D02*
X135492Y010521D01*
X134492Y010521D02*
X134492Y010001D01*
X125492Y010001D02*
X125492Y010521D01*
X124492Y010521D02*
X124492Y010001D01*
X123492Y010001D02*
X123492Y010521D01*
X122492Y010521D02*
X122492Y010001D01*
X121492Y010001D02*
X121492Y010521D01*
X120492Y010521D02*
X120492Y010001D01*
X119492Y010001D02*
X119492Y010521D01*
X118492Y010521D02*
X118492Y010001D01*
X109492Y010001D02*
X109492Y010521D01*
X108492Y010521D02*
X108492Y010001D01*
X107492Y010001D02*
X107492Y010521D01*
X106492Y010521D02*
X106492Y010001D01*
X105492Y010001D02*
X105492Y010521D01*
X104492Y010521D02*
X104492Y010001D01*
X103492Y010001D02*
X103492Y010521D01*
X102492Y010521D02*
X102492Y010001D01*
X093492Y010001D02*
X093492Y010521D01*
X092492Y010521D02*
X092492Y010001D01*
X091492Y010001D02*
X091492Y010521D01*
X090492Y010521D02*
X090492Y010001D01*
X089492Y010001D02*
X089492Y010521D01*
X088492Y010521D02*
X088492Y010001D01*
X087492Y010001D02*
X087492Y010521D01*
X086492Y010521D02*
X086492Y010001D01*
X077492Y010001D02*
X077492Y010521D01*
X076492Y010521D02*
X076492Y010001D01*
X075492Y010001D02*
X075492Y010521D01*
X074492Y010521D02*
X074492Y010001D01*
X073492Y010001D02*
X073492Y010521D01*
X072492Y010521D02*
X072492Y010001D01*
X071492Y010001D02*
X071492Y010521D01*
X070492Y010521D02*
X070492Y010001D01*
X061492Y010001D02*
X061492Y010521D01*
X060492Y010521D02*
X060492Y010001D01*
X059492Y010001D02*
X059492Y010521D01*
X058492Y010521D02*
X058492Y010001D01*
X057492Y010001D02*
X057492Y010521D01*
X056492Y010521D02*
X056492Y010001D01*
X055492Y010001D02*
X055492Y010521D01*
X054492Y010521D02*
X054492Y010001D01*
X045492Y010001D02*
X045492Y010521D01*
X044492Y010521D02*
X044492Y010001D01*
X043492Y010001D02*
X043492Y010521D01*
X042492Y010521D02*
X042492Y010001D01*
X041492Y010001D02*
X041492Y010521D01*
X040492Y010521D02*
X040492Y010001D01*
X039492Y010001D02*
X039492Y010521D01*
X038492Y010521D02*
X038492Y010001D01*
X029492Y010001D02*
X029492Y010521D01*
X028492Y010521D02*
X028492Y010001D01*
X027492Y010001D02*
X027492Y010521D01*
X026492Y010521D02*
X026492Y010001D01*
X025492Y010001D02*
X025492Y010521D01*
X024492Y010521D02*
X024492Y010001D01*
X023492Y010001D02*
X023492Y010521D01*
X022492Y010521D02*
X022492Y010001D01*
D11*
X019992Y009761D03*
X018992Y009761D03*
X017992Y009761D03*
X016992Y009761D03*
X015992Y009761D03*
X014992Y009761D03*
X014992Y008761D03*
X015992Y008761D03*
X016992Y008761D03*
X017992Y008761D03*
X018992Y008761D03*
X019992Y008761D03*
X020492Y011761D03*
X021492Y011761D03*
X022492Y011761D03*
X023492Y011761D03*
X024492Y011761D03*
X025492Y011761D03*
X026492Y011761D03*
X027492Y011761D03*
X028492Y011761D03*
X029492Y011761D03*
X030492Y011761D03*
X031492Y011761D03*
X032492Y011761D03*
X033492Y011761D03*
X034492Y011761D03*
X035492Y011761D03*
X036492Y011761D03*
X037492Y011761D03*
X038492Y011761D03*
X039492Y011761D03*
X040492Y011761D03*
X041492Y011761D03*
X042492Y011761D03*
X043492Y011761D03*
X044492Y011761D03*
X045492Y011761D03*
X046492Y011761D03*
X047492Y011761D03*
X048492Y011761D03*
X049492Y011761D03*
X050492Y011761D03*
X051492Y011761D03*
X052492Y011761D03*
X053492Y011761D03*
X054492Y011761D03*
X055492Y011761D03*
X056492Y011761D03*
X057492Y011761D03*
X058492Y011761D03*
X059492Y011761D03*
X060492Y011761D03*
X061492Y011761D03*
X062492Y011761D03*
X063492Y011761D03*
X064492Y011761D03*
X065492Y011761D03*
X066492Y011761D03*
X067492Y011761D03*
X068492Y011761D03*
X069492Y011761D03*
X070492Y011761D03*
X071492Y011761D03*
X072492Y011761D03*
X073492Y011761D03*
X074492Y011761D03*
X075492Y011761D03*
X076492Y011761D03*
X077492Y011761D03*
X078492Y011761D03*
X079492Y011761D03*
X080492Y011761D03*
X081492Y011761D03*
X082492Y011761D03*
X083492Y011761D03*
X084492Y011761D03*
X085492Y011761D03*
X086492Y011761D03*
X087492Y011761D03*
X088492Y011761D03*
X089492Y011761D03*
X090492Y011761D03*
X091492Y011761D03*
X092492Y011761D03*
X093492Y011761D03*
X094492Y011761D03*
X095492Y011761D03*
X096492Y011761D03*
X097492Y011761D03*
X098492Y011761D03*
X099492Y011761D03*
X100492Y011761D03*
X101492Y011761D03*
X102492Y011761D03*
X103492Y011761D03*
X104492Y011761D03*
X105492Y011761D03*
X106492Y011761D03*
X107492Y011761D03*
X108492Y011761D03*
X109492Y011761D03*
X110492Y011761D03*
X111492Y011761D03*
X112492Y011761D03*
X113492Y011761D03*
X114492Y011761D03*
X115492Y011761D03*
X116492Y011761D03*
X117492Y011761D03*
X118492Y011761D03*
X119492Y011761D03*
X120492Y011761D03*
X121492Y011761D03*
X122492Y011761D03*
X123492Y011761D03*
X124492Y011761D03*
X125492Y011761D03*
X126492Y011761D03*
X127492Y011761D03*
X128492Y011761D03*
X129492Y011761D03*
X130492Y011761D03*
X131492Y011761D03*
X132492Y011761D03*
X133492Y011761D03*
X134492Y011761D03*
X135492Y011761D03*
X136492Y011761D03*
X137492Y011761D03*
X138492Y011761D03*
X139492Y011761D03*
X140492Y011761D03*
X141492Y011761D03*
X142492Y011761D03*
X143492Y011761D03*
X143492Y012761D03*
X142492Y012761D03*
X141492Y012761D03*
X140492Y012761D03*
X139492Y012761D03*
X138492Y012761D03*
X137492Y012761D03*
X136492Y012761D03*
X135492Y012761D03*
X134492Y012761D03*
X133492Y012761D03*
X132492Y012761D03*
X131492Y012761D03*
X130492Y012761D03*
X129492Y012761D03*
X128492Y012761D03*
X127492Y012761D03*
X126492Y012761D03*
X125492Y012761D03*
X124492Y012761D03*
X123492Y012761D03*
X122492Y012761D03*
X121492Y012761D03*
X120492Y012761D03*
X119492Y012761D03*
X118492Y012761D03*
X117492Y012761D03*
X116492Y012761D03*
X115492Y012761D03*
X114492Y012761D03*
X113492Y012761D03*
X112492Y012761D03*
X111492Y012761D03*
X110492Y012761D03*
X109492Y012761D03*
X108492Y012761D03*
X107492Y012761D03*
X106492Y012761D03*
X105492Y012761D03*
X104492Y012761D03*
X103492Y012761D03*
X102492Y012761D03*
X101492Y012761D03*
X100492Y012761D03*
X099492Y012761D03*
X098492Y012761D03*
X097492Y012761D03*
X096492Y012761D03*
X095492Y012761D03*
X094492Y012761D03*
X093492Y012761D03*
X092492Y012761D03*
X091492Y012761D03*
X090492Y012761D03*
X089492Y012761D03*
X088492Y012761D03*
X087492Y012761D03*
X086492Y012761D03*
X085492Y012761D03*
X084492Y012761D03*
X083492Y012761D03*
X082492Y012761D03*
X081492Y012761D03*
X080492Y012761D03*
X079492Y012761D03*
X078492Y012761D03*
X077492Y012761D03*
X076492Y012761D03*
X075492Y012761D03*
X074492Y012761D03*
X073492Y012761D03*
X072492Y012761D03*
X071492Y012761D03*
X070492Y012761D03*
X069492Y012761D03*
X068492Y012761D03*
X067492Y012761D03*
X066492Y012761D03*
X065492Y012761D03*
X064492Y012761D03*
X063492Y012761D03*
X062492Y012761D03*
X061492Y012761D03*
X060492Y012761D03*
X059492Y012761D03*
X058492Y012761D03*
X057492Y012761D03*
X056492Y012761D03*
X055492Y012761D03*
X054492Y012761D03*
X053492Y012761D03*
X052492Y012761D03*
X051492Y012761D03*
X050492Y012761D03*
X049492Y012761D03*
X048492Y012761D03*
X047492Y012761D03*
X046492Y012761D03*
X045492Y012761D03*
X044492Y012761D03*
X043492Y012761D03*
X042492Y012761D03*
X041492Y012761D03*
X040492Y012761D03*
X039492Y012761D03*
X038492Y012761D03*
X037492Y012761D03*
X036492Y012761D03*
X035492Y012761D03*
X034492Y012761D03*
X033492Y012761D03*
X032492Y012761D03*
X031492Y012761D03*
X030492Y012761D03*
X029492Y012761D03*
X028492Y012761D03*
X027492Y012761D03*
X026492Y012761D03*
X025492Y012761D03*
X024492Y012761D03*
X023492Y012761D03*
X022492Y012761D03*
X021492Y012761D03*
X020492Y012761D03*
X019492Y012761D03*
X018492Y012761D03*
X017492Y012761D03*
X016492Y012761D03*
X016492Y011761D03*
X017492Y011761D03*
X018492Y011761D03*
X019492Y011761D03*
X019492Y013761D03*
X020492Y013761D03*
X021492Y013761D03*
X022492Y013761D03*
X023492Y013761D03*
X024492Y013761D03*
X025492Y013761D03*
X026492Y013761D03*
X027492Y013761D03*
X028492Y013761D03*
X029492Y013761D03*
X030492Y013761D03*
X031492Y013761D03*
X032492Y013761D03*
X033492Y013761D03*
X034492Y013761D03*
X035492Y013761D03*
X036492Y013761D03*
X037492Y013761D03*
X038492Y013761D03*
X039492Y013761D03*
X040492Y013761D03*
X041492Y013761D03*
X042492Y013761D03*
X043492Y013761D03*
X044492Y013761D03*
X045492Y013761D03*
X046492Y013761D03*
X047492Y013761D03*
X048492Y013761D03*
X049492Y013761D03*
X050492Y013761D03*
X051492Y013761D03*
X052492Y013761D03*
X053492Y013761D03*
X054492Y013761D03*
X055492Y013761D03*
X056492Y013761D03*
X057492Y013761D03*
X058492Y013761D03*
X059492Y013761D03*
X060492Y013761D03*
X061492Y013761D03*
X062492Y013761D03*
X063492Y013761D03*
X064492Y013761D03*
X065492Y013761D03*
X066492Y013761D03*
X067492Y013761D03*
X068492Y013761D03*
X069492Y013761D03*
X070492Y013761D03*
X071492Y013761D03*
X072492Y013761D03*
X073492Y013761D03*
X074492Y013761D03*
X075492Y013761D03*
X076492Y013761D03*
X077492Y013761D03*
X078492Y013761D03*
X079492Y013761D03*
X080492Y013761D03*
X081492Y013761D03*
X082492Y013761D03*
X083492Y013761D03*
X084492Y013761D03*
X085492Y013761D03*
X086492Y013761D03*
X087492Y013761D03*
X088492Y013761D03*
X089492Y013761D03*
X090492Y013761D03*
X091492Y013761D03*
X092492Y013761D03*
X093492Y013761D03*
X094492Y013761D03*
X095492Y013761D03*
X096492Y013761D03*
X097492Y013761D03*
X098492Y013761D03*
X099492Y013761D03*
X100492Y013761D03*
X101492Y013761D03*
X102492Y013761D03*
X103492Y013761D03*
X104492Y013761D03*
X105492Y013761D03*
X106492Y013761D03*
X107492Y013761D03*
X108492Y013761D03*
X109492Y013761D03*
X110492Y013761D03*
X111492Y013761D03*
X112492Y013761D03*
X113492Y013761D03*
X114492Y013761D03*
X115492Y013761D03*
X116492Y013761D03*
X117492Y013761D03*
X118492Y013761D03*
X119492Y013761D03*
X120492Y013761D03*
X121492Y013761D03*
X122492Y013761D03*
X123492Y013761D03*
X124492Y013761D03*
X125492Y013761D03*
X126492Y013761D03*
X127492Y013761D03*
X128492Y013761D03*
X129492Y013761D03*
X130492Y013761D03*
X131492Y013761D03*
X132492Y013761D03*
X133492Y013761D03*
X134492Y013761D03*
X135492Y013761D03*
X136492Y013761D03*
X137492Y013761D03*
X138492Y013761D03*
X139492Y013761D03*
X140492Y013761D03*
X141492Y013761D03*
X142492Y013761D03*
X143492Y013761D03*
X143492Y014761D03*
X142492Y014761D03*
X141492Y014761D03*
X140492Y014761D03*
X139492Y014761D03*
X138492Y014761D03*
X137492Y014761D03*
X136492Y014761D03*
X135492Y014761D03*
X134492Y014761D03*
X133492Y014761D03*
X132492Y014761D03*
X131492Y014761D03*
X130492Y014761D03*
X129492Y014761D03*
X128492Y014761D03*
X127492Y014761D03*
X126492Y014761D03*
X125492Y014761D03*
X124492Y014761D03*
X123492Y014761D03*
X122492Y014761D03*
X121492Y014761D03*
X120492Y014761D03*
X119492Y014761D03*
X118492Y014761D03*
X117492Y014761D03*
X116492Y014761D03*
X115492Y014761D03*
X114492Y014761D03*
X113492Y014761D03*
X112492Y014761D03*
X111492Y014761D03*
X110492Y014761D03*
X109492Y014761D03*
X108492Y014761D03*
X107492Y014761D03*
X106492Y014761D03*
X105492Y014761D03*
X104492Y014761D03*
X103492Y014761D03*
X102492Y014761D03*
X101492Y014761D03*
X100492Y014761D03*
X099492Y014761D03*
X098492Y014761D03*
X097492Y014761D03*
X096492Y014761D03*
X095492Y014761D03*
X094492Y014761D03*
X093492Y014761D03*
X092492Y014761D03*
X091492Y014761D03*
X090492Y014761D03*
X089492Y014761D03*
X088492Y014761D03*
X087492Y014761D03*
X086492Y014761D03*
X085492Y014761D03*
X084492Y014761D03*
X083492Y014761D03*
X082492Y014761D03*
X081492Y014761D03*
X080492Y014761D03*
X079492Y014761D03*
X078492Y014761D03*
X077492Y014761D03*
X076492Y014761D03*
X075492Y014761D03*
X074492Y014761D03*
X073492Y014761D03*
X072492Y014761D03*
X071492Y014761D03*
X070492Y014761D03*
X069492Y014761D03*
X068492Y014761D03*
X067492Y014761D03*
X066492Y014761D03*
X065492Y014761D03*
X064492Y014761D03*
X063492Y014761D03*
X062492Y014761D03*
X061492Y014761D03*
X060492Y014761D03*
X059492Y014761D03*
X058492Y014761D03*
X057492Y014761D03*
X056492Y014761D03*
X055492Y014761D03*
X054492Y014761D03*
X053492Y014761D03*
X052492Y014761D03*
X051492Y014761D03*
X050492Y014761D03*
X049492Y014761D03*
X048492Y014761D03*
X047492Y014761D03*
X046492Y014761D03*
X045492Y014761D03*
X044492Y014761D03*
X043492Y014761D03*
X042492Y014761D03*
X041492Y014761D03*
X040492Y014761D03*
X039492Y014761D03*
X038492Y014761D03*
X037492Y014761D03*
X036492Y014761D03*
X035492Y014761D03*
X034492Y014761D03*
X033492Y014761D03*
X032492Y014761D03*
X031492Y014761D03*
X030492Y014761D03*
X029492Y014761D03*
X028492Y014761D03*
X027492Y014761D03*
X026492Y014761D03*
X025492Y014761D03*
X024492Y014761D03*
X023492Y014761D03*
X022492Y014761D03*
X021492Y014761D03*
X020492Y014761D03*
X019492Y014761D03*
X018492Y014761D03*
X017492Y014761D03*
X016492Y014761D03*
X016492Y013761D03*
X017492Y013761D03*
X018492Y013761D03*
X018492Y015761D03*
X019492Y015761D03*
X020492Y015761D03*
X021492Y015761D03*
X022492Y015761D03*
X023492Y015761D03*
X024492Y015761D03*
X025492Y015761D03*
X026492Y015761D03*
X027492Y015761D03*
X028492Y015761D03*
X029492Y015761D03*
X030492Y015761D03*
X031492Y015761D03*
X032492Y015761D03*
X033492Y015761D03*
X034492Y015761D03*
X035492Y015761D03*
X036492Y015761D03*
X037492Y015761D03*
X038492Y015761D03*
X039492Y015761D03*
X040492Y015761D03*
X041492Y015761D03*
X042492Y015761D03*
X043492Y015761D03*
X044492Y015761D03*
X045492Y015761D03*
X046492Y015761D03*
X047492Y015761D03*
X048492Y015761D03*
X049492Y015761D03*
X050492Y015761D03*
X051492Y015761D03*
X052492Y015761D03*
X053492Y015761D03*
X054492Y015761D03*
X055492Y015761D03*
X056492Y015761D03*
X057492Y015761D03*
X058492Y015761D03*
X059492Y015761D03*
X060492Y015761D03*
X061492Y015761D03*
X062492Y015761D03*
X063492Y015761D03*
X064492Y015761D03*
X065492Y015761D03*
X066492Y015761D03*
X067492Y015761D03*
X068492Y015761D03*
X069492Y015761D03*
X070492Y015761D03*
X071492Y015761D03*
X072492Y015761D03*
X073492Y015761D03*
X074492Y015761D03*
X075492Y015761D03*
X076492Y015761D03*
X077492Y015761D03*
X078492Y015761D03*
X079492Y015761D03*
X080492Y015761D03*
X081492Y015761D03*
X082492Y015761D03*
X083492Y015761D03*
X084492Y015761D03*
X085492Y015761D03*
X086492Y015761D03*
X087492Y015761D03*
X088492Y015761D03*
X089492Y015761D03*
X090492Y015761D03*
X091492Y015761D03*
X092492Y015761D03*
X093492Y015761D03*
X094492Y015761D03*
X095492Y015761D03*
X096492Y015761D03*
X097492Y015761D03*
X098492Y015761D03*
X099492Y015761D03*
X100492Y015761D03*
X101492Y015761D03*
X102492Y015761D03*
X103492Y015761D03*
X104492Y015761D03*
X105492Y015761D03*
X106492Y015761D03*
X107492Y015761D03*
X108492Y015761D03*
X109492Y015761D03*
X110492Y015761D03*
X111492Y015761D03*
X112492Y015761D03*
X113492Y015761D03*
X114492Y015761D03*
X115492Y015761D03*
X116492Y015761D03*
X117492Y015761D03*
X118492Y015761D03*
X119492Y015761D03*
X120492Y015761D03*
X121492Y015761D03*
X122492Y015761D03*
X123492Y015761D03*
X124492Y015761D03*
X125492Y015761D03*
X126492Y015761D03*
X127492Y015761D03*
X128492Y015761D03*
X129492Y015761D03*
X130492Y015761D03*
X131492Y015761D03*
X132492Y015761D03*
X133492Y015761D03*
X134492Y015761D03*
X135492Y015761D03*
X136492Y015761D03*
X137492Y015761D03*
X138492Y015761D03*
X139492Y015761D03*
X140492Y015761D03*
X141492Y015761D03*
X142492Y015761D03*
X143492Y015761D03*
X143492Y016761D03*
X142492Y016761D03*
X141492Y016761D03*
X140492Y016761D03*
X139492Y016761D03*
X138492Y016761D03*
X137492Y016761D03*
X136492Y016761D03*
X135492Y016761D03*
X134492Y016761D03*
X133492Y016761D03*
X132492Y016761D03*
X131492Y016761D03*
X130492Y016761D03*
X129492Y016761D03*
X128492Y016761D03*
X127492Y016761D03*
X126492Y016761D03*
X125492Y016761D03*
X124492Y016761D03*
X123492Y016761D03*
X122492Y016761D03*
X121492Y016761D03*
X120492Y016761D03*
X119492Y016761D03*
X118492Y016761D03*
X117492Y016761D03*
X116492Y016761D03*
X115492Y016761D03*
X114492Y016761D03*
X113492Y016761D03*
X112492Y016761D03*
X111492Y016761D03*
X110492Y016761D03*
X109492Y016761D03*
X108492Y016761D03*
X107492Y016761D03*
X106492Y016761D03*
X105492Y016761D03*
X104492Y016761D03*
X103492Y016761D03*
X102492Y016761D03*
X101492Y016761D03*
X100492Y016761D03*
X099492Y016761D03*
X098492Y016761D03*
X097492Y016761D03*
X096492Y016761D03*
X095492Y016761D03*
X094492Y016761D03*
X093492Y016761D03*
X092492Y016761D03*
X091492Y016761D03*
X090492Y016761D03*
X089492Y016761D03*
X088492Y016761D03*
X087492Y016761D03*
X086492Y016761D03*
X085492Y016761D03*
X084492Y016761D03*
X083492Y016761D03*
X082492Y016761D03*
X081492Y016761D03*
X080492Y016761D03*
X079492Y016761D03*
X078492Y016761D03*
X077492Y016761D03*
X076492Y016761D03*
X075492Y016761D03*
X074492Y016761D03*
X073492Y016761D03*
X072492Y016761D03*
X071492Y016761D03*
X070492Y016761D03*
X069492Y016761D03*
X068492Y016761D03*
X067492Y016761D03*
X066492Y016761D03*
X065492Y016761D03*
X064492Y016761D03*
X063492Y016761D03*
X062492Y016761D03*
X061492Y016761D03*
X060492Y016761D03*
X059492Y016761D03*
X058492Y016761D03*
X057492Y016761D03*
X056492Y016761D03*
X055492Y016761D03*
X054492Y016761D03*
X053492Y016761D03*
X052492Y016761D03*
X051492Y016761D03*
X050492Y016761D03*
X049492Y016761D03*
X048492Y016761D03*
X047492Y016761D03*
X046492Y016761D03*
X045492Y016761D03*
X044492Y016761D03*
X043492Y016761D03*
X042492Y016761D03*
X041492Y016761D03*
X040492Y016761D03*
X039492Y016761D03*
X038492Y016761D03*
X037492Y016761D03*
X036492Y016761D03*
X035492Y016761D03*
X034492Y016761D03*
X033492Y016761D03*
X032492Y016761D03*
X031492Y016761D03*
X030492Y016761D03*
X029492Y016761D03*
X028492Y016761D03*
X027492Y016761D03*
X026492Y016761D03*
X025492Y016761D03*
X024492Y016761D03*
X023492Y016761D03*
X022492Y016761D03*
X021492Y016761D03*
X020492Y016761D03*
X019492Y016761D03*
X018492Y016761D03*
X017492Y016761D03*
X016492Y016761D03*
X016492Y015761D03*
X017492Y015761D03*
X017492Y017761D03*
X018492Y017761D03*
X019492Y017761D03*
X020492Y017761D03*
X021492Y017761D03*
X022492Y017761D03*
X023492Y017761D03*
X024492Y017761D03*
X025492Y017761D03*
X026492Y017761D03*
X027492Y017761D03*
X028492Y017761D03*
X029492Y017761D03*
X030492Y017761D03*
X031492Y017761D03*
X032492Y017761D03*
X033492Y017761D03*
X034492Y017761D03*
X035492Y017761D03*
X036492Y017761D03*
X037492Y017761D03*
X038492Y017761D03*
X039492Y017761D03*
X040492Y017761D03*
X041492Y017761D03*
X042492Y017761D03*
X043492Y017761D03*
X044492Y017761D03*
X045492Y017761D03*
X046492Y017761D03*
X047492Y017761D03*
X048492Y017761D03*
X049492Y017761D03*
X050492Y017761D03*
X051492Y017761D03*
X052492Y017761D03*
X053492Y017761D03*
X054492Y017761D03*
X055492Y017761D03*
X056492Y017761D03*
X057492Y017761D03*
X058492Y017761D03*
X059492Y017761D03*
X060492Y017761D03*
X061492Y017761D03*
X062492Y017761D03*
X063492Y017761D03*
X064492Y017761D03*
X065492Y017761D03*
X066492Y017761D03*
X067492Y017761D03*
X068492Y017761D03*
X069492Y017761D03*
X070492Y017761D03*
X071492Y017761D03*
X072492Y017761D03*
X073492Y017761D03*
X074492Y017761D03*
X075492Y017761D03*
X076492Y017761D03*
X077492Y017761D03*
X078492Y017761D03*
X079492Y017761D03*
X080492Y017761D03*
X081492Y017761D03*
X082492Y017761D03*
X083492Y017761D03*
X084492Y017761D03*
X085492Y017761D03*
X086492Y017761D03*
X087492Y017761D03*
X088492Y017761D03*
X089492Y017761D03*
X090492Y017761D03*
X091492Y017761D03*
X092492Y017761D03*
X093492Y017761D03*
X094492Y017761D03*
X095492Y017761D03*
X096492Y017761D03*
X097492Y017761D03*
X098492Y017761D03*
X099492Y017761D03*
X100492Y017761D03*
X101492Y017761D03*
X102492Y017761D03*
X103492Y017761D03*
X104492Y017761D03*
X105492Y017761D03*
X106492Y017761D03*
X107492Y017761D03*
X108492Y017761D03*
X109492Y017761D03*
X110492Y017761D03*
X111492Y017761D03*
X112492Y017761D03*
X113492Y017761D03*
X114492Y017761D03*
X115492Y017761D03*
X116492Y017761D03*
X117492Y017761D03*
X118492Y017761D03*
X119492Y017761D03*
X120492Y017761D03*
X121492Y017761D03*
X122492Y017761D03*
X123492Y017761D03*
X124492Y017761D03*
X125492Y017761D03*
X126492Y017761D03*
X127492Y017761D03*
X128492Y017761D03*
X129492Y017761D03*
X130492Y017761D03*
X131492Y017761D03*
X132492Y017761D03*
X133492Y017761D03*
X134492Y017761D03*
X135492Y017761D03*
X136492Y017761D03*
X137492Y017761D03*
X138492Y017761D03*
X139492Y017761D03*
X140492Y017761D03*
X141492Y017761D03*
X142492Y017761D03*
X143492Y017761D03*
X143492Y018761D03*
X142492Y018761D03*
X141492Y018761D03*
X140492Y018761D03*
X139492Y018761D03*
X138492Y018761D03*
X137492Y018761D03*
X136492Y018761D03*
X135492Y018761D03*
X134492Y018761D03*
X133492Y018761D03*
X132492Y018761D03*
X131492Y018761D03*
X130492Y018761D03*
X129492Y018761D03*
X128492Y018761D03*
X127492Y018761D03*
X126492Y018761D03*
X125492Y018761D03*
X124492Y018761D03*
X123492Y018761D03*
X122492Y018761D03*
X121492Y018761D03*
X120492Y018761D03*
X119492Y018761D03*
X118492Y018761D03*
X117492Y018761D03*
X116492Y018761D03*
X115492Y018761D03*
X114492Y018761D03*
X113492Y018761D03*
X112492Y018761D03*
X111492Y018761D03*
X110492Y018761D03*
X109492Y018761D03*
X108492Y018761D03*
X107492Y018761D03*
X106492Y018761D03*
X105492Y018761D03*
X104492Y018761D03*
X103492Y018761D03*
X102492Y018761D03*
X101492Y018761D03*
X100492Y018761D03*
X099492Y018761D03*
X098492Y018761D03*
X097492Y018761D03*
X096492Y018761D03*
X095492Y018761D03*
X094492Y018761D03*
X093492Y018761D03*
X092492Y018761D03*
X091492Y018761D03*
X090492Y018761D03*
X089492Y018761D03*
X088492Y018761D03*
X087492Y018761D03*
X086492Y018761D03*
X085492Y018761D03*
X084492Y018761D03*
X083492Y018761D03*
X082492Y018761D03*
X081492Y018761D03*
X080492Y018761D03*
X079492Y018761D03*
X078492Y018761D03*
X077492Y018761D03*
X076492Y018761D03*
X075492Y018761D03*
X074492Y018761D03*
X073492Y018761D03*
X072492Y018761D03*
X071492Y018761D03*
X070492Y018761D03*
X069492Y018761D03*
X068492Y018761D03*
X067492Y018761D03*
X066492Y018761D03*
X065492Y018761D03*
X064492Y018761D03*
X063492Y018761D03*
X062492Y018761D03*
X061492Y018761D03*
X060492Y018761D03*
X059492Y018761D03*
X058492Y018761D03*
X057492Y018761D03*
X056492Y018761D03*
X055492Y018761D03*
X054492Y018761D03*
X053492Y018761D03*
X052492Y018761D03*
X051492Y018761D03*
X050492Y018761D03*
X049492Y018761D03*
X048492Y018761D03*
X047492Y018761D03*
X046492Y018761D03*
X045492Y018761D03*
X044492Y018761D03*
X043492Y018761D03*
X042492Y018761D03*
X041492Y018761D03*
X040492Y018761D03*
X039492Y018761D03*
X038492Y018761D03*
X037492Y018761D03*
X036492Y018761D03*
X035492Y018761D03*
X034492Y018761D03*
X033492Y018761D03*
X032492Y018761D03*
X031492Y018761D03*
X030492Y018761D03*
X029492Y018761D03*
X028492Y018761D03*
X027492Y018761D03*
X026492Y018761D03*
X025492Y018761D03*
X024492Y018761D03*
X023492Y018761D03*
X022492Y018761D03*
X021492Y018761D03*
X020492Y018761D03*
X019492Y018761D03*
X018492Y018761D03*
X017492Y018761D03*
X016492Y018761D03*
X016492Y017761D03*
X016492Y019761D03*
X017492Y019761D03*
X018492Y019761D03*
X019492Y019761D03*
X020492Y019761D03*
X021492Y019761D03*
X022492Y019761D03*
X023492Y019761D03*
X024492Y019761D03*
X025492Y019761D03*
X026492Y019761D03*
X027492Y019761D03*
X028492Y019761D03*
X029492Y019761D03*
X030492Y019761D03*
X031492Y019761D03*
X032492Y019761D03*
X033492Y019761D03*
X034492Y019761D03*
X035492Y019761D03*
X036492Y019761D03*
X037492Y019761D03*
X038492Y019761D03*
X039492Y019761D03*
X040492Y019761D03*
X041492Y019761D03*
X042492Y019761D03*
X043492Y019761D03*
X044492Y019761D03*
X045492Y019761D03*
X046492Y019761D03*
X047492Y019761D03*
X048492Y019761D03*
X049492Y019761D03*
X050492Y019761D03*
X051492Y019761D03*
X052492Y019761D03*
X053492Y019761D03*
X054492Y019761D03*
X055492Y019761D03*
X056492Y019761D03*
X057492Y019761D03*
X058492Y019761D03*
X059492Y019761D03*
X060492Y019761D03*
X061492Y019761D03*
X062492Y019761D03*
X063492Y019761D03*
X064492Y019761D03*
X065492Y019761D03*
X066492Y019761D03*
X067492Y019761D03*
X068492Y019761D03*
X069492Y019761D03*
X070492Y019761D03*
X071492Y019761D03*
X072492Y019761D03*
X073492Y019761D03*
X074492Y019761D03*
X075492Y019761D03*
X076492Y019761D03*
X077492Y019761D03*
X078492Y019761D03*
X079492Y019761D03*
X080492Y019761D03*
X081492Y019761D03*
X082492Y019761D03*
X083492Y019761D03*
X084492Y019761D03*
X085492Y019761D03*
X086492Y019761D03*
X087492Y019761D03*
X088492Y019761D03*
X089492Y019761D03*
X090492Y019761D03*
X091492Y019761D03*
X092492Y019761D03*
X093492Y019761D03*
X094492Y019761D03*
X095492Y019761D03*
X096492Y019761D03*
X097492Y019761D03*
X098492Y019761D03*
X099492Y019761D03*
X100492Y019761D03*
X101492Y019761D03*
X102492Y019761D03*
X103492Y019761D03*
X104492Y019761D03*
X105492Y019761D03*
X106492Y019761D03*
X107492Y019761D03*
X108492Y019761D03*
X109492Y019761D03*
X110492Y019761D03*
X111492Y019761D03*
X112492Y019761D03*
X113492Y019761D03*
X114492Y019761D03*
X115492Y019761D03*
X116492Y019761D03*
X117492Y019761D03*
X118492Y019761D03*
X119492Y019761D03*
X120492Y019761D03*
X121492Y019761D03*
X122492Y019761D03*
X123492Y019761D03*
X124492Y019761D03*
X125492Y019761D03*
X126492Y019761D03*
X127492Y019761D03*
X128492Y019761D03*
X129492Y019761D03*
X130492Y019761D03*
X131492Y019761D03*
X132492Y019761D03*
X133492Y019761D03*
X134492Y019761D03*
X135492Y019761D03*
X136492Y019761D03*
X137492Y019761D03*
X138492Y019761D03*
X139492Y019761D03*
X140492Y019761D03*
X141492Y019761D03*
X142492Y019761D03*
X143492Y019761D03*
X143492Y020761D03*
X142492Y020761D03*
X141492Y020761D03*
X140492Y020761D03*
X139492Y020761D03*
X138492Y020761D03*
X137492Y020761D03*
X136492Y020761D03*
X135492Y020761D03*
X134492Y020761D03*
X133492Y020761D03*
X132492Y020761D03*
X131492Y020761D03*
X130492Y020761D03*
X129492Y020761D03*
X128492Y020761D03*
X127492Y020761D03*
X126492Y020761D03*
X125492Y020761D03*
X124492Y020761D03*
X123492Y020761D03*
X122492Y020761D03*
X121492Y020761D03*
X120492Y020761D03*
X119492Y020761D03*
X118492Y020761D03*
X117492Y020761D03*
X116492Y020761D03*
X115492Y020761D03*
X114492Y020761D03*
X113492Y020761D03*
X112492Y020761D03*
X111492Y020761D03*
X110492Y020761D03*
X109492Y020761D03*
X108492Y020761D03*
X107492Y020761D03*
X106492Y020761D03*
X105492Y020761D03*
X104492Y020761D03*
X103492Y020761D03*
X102492Y020761D03*
X101492Y020761D03*
X100492Y020761D03*
X099492Y020761D03*
X098492Y020761D03*
X097492Y020761D03*
X096492Y020761D03*
X095492Y020761D03*
X094492Y020761D03*
X093492Y020761D03*
X092492Y020761D03*
X091492Y020761D03*
X090492Y020761D03*
X089492Y020761D03*
X088492Y020761D03*
X087492Y020761D03*
X086492Y020761D03*
X085492Y020761D03*
X084492Y020761D03*
X083492Y020761D03*
X082492Y020761D03*
X081492Y020761D03*
X080492Y020761D03*
X079492Y020761D03*
X078492Y020761D03*
X077492Y020761D03*
X076492Y020761D03*
X075492Y020761D03*
X074492Y020761D03*
X073492Y020761D03*
X072492Y020761D03*
X071492Y020761D03*
X070492Y020761D03*
X069492Y020761D03*
X068492Y020761D03*
X067492Y020761D03*
X066492Y020761D03*
X065492Y020761D03*
X064492Y020761D03*
X063492Y020761D03*
X062492Y020761D03*
X061492Y020761D03*
X060492Y020761D03*
X059492Y020761D03*
X058492Y020761D03*
X057492Y020761D03*
X056492Y020761D03*
X055492Y020761D03*
X054492Y020761D03*
X053492Y020761D03*
X052492Y020761D03*
X051492Y020761D03*
X050492Y020761D03*
X049492Y020761D03*
X048492Y020761D03*
X047492Y020761D03*
X046492Y020761D03*
X045492Y020761D03*
X044492Y020761D03*
X043492Y020761D03*
X042492Y020761D03*
X041492Y020761D03*
X040492Y020761D03*
X039492Y020761D03*
X038492Y020761D03*
X037492Y020761D03*
X036492Y020761D03*
X035492Y020761D03*
X034492Y020761D03*
X033492Y020761D03*
X032492Y020761D03*
X031492Y020761D03*
X030492Y020761D03*
X029492Y020761D03*
X028492Y020761D03*
X027492Y020761D03*
X026492Y020761D03*
X025492Y020761D03*
X024492Y020761D03*
X023492Y020761D03*
X022492Y020761D03*
X021492Y020761D03*
X020492Y020761D03*
X019492Y020761D03*
X018492Y020761D03*
X017492Y020761D03*
X016492Y020761D03*
X016492Y021761D03*
X017492Y021761D03*
X018492Y021761D03*
X019492Y021761D03*
X020492Y021761D03*
X021492Y021761D03*
X022492Y021761D03*
X023492Y021761D03*
X024492Y021761D03*
X025492Y021761D03*
X026492Y021761D03*
X027492Y021761D03*
X028492Y021761D03*
X029492Y021761D03*
X030492Y021761D03*
X031492Y021761D03*
X032492Y021761D03*
X033492Y021761D03*
X034492Y021761D03*
X035492Y021761D03*
X036492Y021761D03*
X037492Y021761D03*
X038492Y021761D03*
X039492Y021761D03*
X040492Y021761D03*
X041492Y021761D03*
X042492Y021761D03*
X043492Y021761D03*
X044492Y021761D03*
X045492Y021761D03*
X046492Y021761D03*
X047492Y021761D03*
X048492Y021761D03*
X049492Y021761D03*
X050492Y021761D03*
X051492Y021761D03*
X052492Y021761D03*
X053492Y021761D03*
X054492Y021761D03*
X055492Y021761D03*
X056492Y021761D03*
X057492Y021761D03*
X058492Y021761D03*
X059492Y021761D03*
X060492Y021761D03*
X061492Y021761D03*
X062492Y021761D03*
X063492Y021761D03*
X064492Y021761D03*
X065492Y021761D03*
X066492Y021761D03*
X067492Y021761D03*
X068492Y021761D03*
X069492Y021761D03*
X070492Y021761D03*
X071492Y021761D03*
X072492Y021761D03*
X073492Y021761D03*
X074492Y021761D03*
X075492Y021761D03*
X076492Y021761D03*
X077492Y021761D03*
X078492Y021761D03*
X079492Y021761D03*
X080492Y021761D03*
X081492Y021761D03*
X082492Y021761D03*
X083492Y021761D03*
X084492Y021761D03*
X085492Y021761D03*
X086492Y021761D03*
X087492Y021761D03*
X088492Y021761D03*
X089492Y021761D03*
X090492Y021761D03*
X091492Y021761D03*
X092492Y021761D03*
X093492Y021761D03*
X094492Y021761D03*
X095492Y021761D03*
X096492Y021761D03*
X097492Y021761D03*
X098492Y021761D03*
X099492Y021761D03*
X100492Y021761D03*
X101492Y021761D03*
X102492Y021761D03*
X103492Y021761D03*
X104492Y021761D03*
X105492Y021761D03*
X106492Y021761D03*
X107492Y021761D03*
X108492Y021761D03*
X109492Y021761D03*
X110492Y021761D03*
X111492Y021761D03*
X112492Y021761D03*
X113492Y021761D03*
X114492Y021761D03*
X115492Y021761D03*
X116492Y021761D03*
X117492Y021761D03*
X118492Y021761D03*
X119492Y021761D03*
X120492Y021761D03*
X121492Y021761D03*
X122492Y021761D03*
X123492Y021761D03*
X124492Y021761D03*
X125492Y021761D03*
X126492Y021761D03*
X127492Y021761D03*
X128492Y021761D03*
X129492Y021761D03*
X130492Y021761D03*
X131492Y021761D03*
X132492Y021761D03*
X133492Y021761D03*
X134492Y021761D03*
X135492Y021761D03*
X136492Y021761D03*
X137492Y021761D03*
X138492Y021761D03*
X139492Y021761D03*
X140492Y021761D03*
X141492Y021761D03*
X142492Y021761D03*
X143492Y021761D03*
X143492Y022761D03*
X142492Y022761D03*
X141492Y022761D03*
X140492Y022761D03*
X139492Y022761D03*
X138492Y022761D03*
X137492Y022761D03*
X136492Y022761D03*
X135492Y022761D03*
X134492Y022761D03*
X133492Y022761D03*
X132492Y022761D03*
X131492Y022761D03*
X130492Y022761D03*
X129492Y022761D03*
X128492Y022761D03*
X127492Y022761D03*
X126492Y022761D03*
X125492Y022761D03*
X124492Y022761D03*
X123492Y022761D03*
X122492Y022761D03*
X121492Y022761D03*
X120492Y022761D03*
X119492Y022761D03*
X118492Y022761D03*
X117492Y022761D03*
X116492Y022761D03*
X115492Y022761D03*
X114492Y022761D03*
X113492Y022761D03*
X112492Y022761D03*
X111492Y022761D03*
X110492Y022761D03*
X109492Y022761D03*
X108492Y022761D03*
X107492Y022761D03*
X106492Y022761D03*
X105492Y022761D03*
X104492Y022761D03*
X103492Y022761D03*
X102492Y022761D03*
X101492Y022761D03*
X100492Y022761D03*
X099492Y022761D03*
X098492Y022761D03*
X097492Y022761D03*
X096492Y022761D03*
X095492Y022761D03*
X094492Y022761D03*
X093492Y022761D03*
X092492Y022761D03*
X091492Y022761D03*
X090492Y022761D03*
X089492Y022761D03*
X088492Y022761D03*
X087492Y022761D03*
X086492Y022761D03*
X085492Y022761D03*
X084492Y022761D03*
X083492Y022761D03*
X082492Y022761D03*
X081492Y022761D03*
X080492Y022761D03*
X079492Y022761D03*
X078492Y022761D03*
X077492Y022761D03*
X076492Y022761D03*
X075492Y022761D03*
X074492Y022761D03*
X073492Y022761D03*
X072492Y022761D03*
X071492Y022761D03*
X070492Y022761D03*
X069492Y022761D03*
X068492Y022761D03*
X067492Y022761D03*
X066492Y022761D03*
X065492Y022761D03*
X064492Y022761D03*
X063492Y022761D03*
X062492Y022761D03*
X061492Y022761D03*
X060492Y022761D03*
X059492Y022761D03*
X058492Y022761D03*
X057492Y022761D03*
X056492Y022761D03*
X055492Y022761D03*
X054492Y022761D03*
X053492Y022761D03*
X052492Y022761D03*
X051492Y022761D03*
X050492Y022761D03*
X049492Y022761D03*
X048492Y022761D03*
X047492Y022761D03*
X046492Y022761D03*
X045492Y022761D03*
X044492Y022761D03*
X043492Y022761D03*
X042492Y022761D03*
X041492Y022761D03*
X040492Y022761D03*
X039492Y022761D03*
X038492Y022761D03*
X037492Y022761D03*
X036492Y022761D03*
X035492Y022761D03*
X034492Y022761D03*
X033492Y022761D03*
X032492Y022761D03*
X031492Y022761D03*
X030492Y022761D03*
X029492Y022761D03*
X028492Y022761D03*
X027492Y022761D03*
X026492Y022761D03*
X025492Y022761D03*
X024492Y022761D03*
X023492Y022761D03*
X022492Y022761D03*
X021492Y022761D03*
X020492Y022761D03*
X019492Y022761D03*
X018492Y022761D03*
X017492Y022761D03*
X016492Y022761D03*
X016492Y023761D03*
X017492Y023761D03*
X018492Y023761D03*
X019492Y023761D03*
X020492Y023761D03*
X021492Y023761D03*
X022492Y023761D03*
X023492Y023761D03*
X024492Y023761D03*
X025492Y023761D03*
X026492Y023761D03*
X027492Y023761D03*
X028492Y023761D03*
X029492Y023761D03*
X030492Y023761D03*
X031492Y023761D03*
X032492Y023761D03*
X033492Y023761D03*
X034492Y023761D03*
X035492Y023761D03*
X036492Y023761D03*
X037492Y023761D03*
X038492Y023761D03*
X039492Y023761D03*
X040492Y023761D03*
X041492Y023761D03*
X042492Y023761D03*
X043492Y023761D03*
X044492Y023761D03*
X045492Y023761D03*
X046492Y023761D03*
X047492Y023761D03*
X048492Y023761D03*
X049492Y023761D03*
X050492Y023761D03*
X051492Y023761D03*
X052492Y023761D03*
X053492Y023761D03*
X054492Y023761D03*
X055492Y023761D03*
X056492Y023761D03*
X057492Y023761D03*
X058492Y023761D03*
X059492Y023761D03*
X060492Y023761D03*
X061492Y023761D03*
X062492Y023761D03*
X063492Y023761D03*
X064492Y023761D03*
X065492Y023761D03*
X066492Y023761D03*
X067492Y023761D03*
X068492Y023761D03*
X069492Y023761D03*
X070492Y023761D03*
X071492Y023761D03*
X072492Y023761D03*
X073492Y023761D03*
X074492Y023761D03*
X075492Y023761D03*
X076492Y023761D03*
X077492Y023761D03*
X078492Y023761D03*
X079492Y023761D03*
X080492Y023761D03*
X081492Y023761D03*
X082492Y023761D03*
X083492Y023761D03*
X084492Y023761D03*
X085492Y023761D03*
X086492Y023761D03*
X087492Y023761D03*
X088492Y023761D03*
X089492Y023761D03*
X090492Y023761D03*
X091492Y023761D03*
X092492Y023761D03*
X093492Y023761D03*
X094492Y023761D03*
X095492Y023761D03*
X096492Y023761D03*
X097492Y023761D03*
X098492Y023761D03*
X099492Y023761D03*
X100492Y023761D03*
X101492Y023761D03*
X102492Y023761D03*
X103492Y023761D03*
X104492Y023761D03*
X105492Y023761D03*
X106492Y023761D03*
X107492Y023761D03*
X108492Y023761D03*
X109492Y023761D03*
X110492Y023761D03*
X111492Y023761D03*
X112492Y023761D03*
X113492Y023761D03*
X114492Y023761D03*
X115492Y023761D03*
X116492Y023761D03*
X117492Y023761D03*
X118492Y023761D03*
X119492Y023761D03*
X120492Y023761D03*
X121492Y023761D03*
X122492Y023761D03*
X123492Y023761D03*
X124492Y023761D03*
X125492Y023761D03*
X126492Y023761D03*
X127492Y023761D03*
X128492Y023761D03*
X129492Y023761D03*
X130492Y023761D03*
X131492Y023761D03*
X132492Y023761D03*
X133492Y023761D03*
X134492Y023761D03*
X135492Y023761D03*
X136492Y023761D03*
X137492Y023761D03*
X138492Y023761D03*
X139492Y023761D03*
X140492Y023761D03*
X141492Y023761D03*
X142492Y023761D03*
X143492Y023761D03*
X143492Y024761D03*
X142492Y024761D03*
X141492Y024761D03*
X140492Y024761D03*
X139492Y024761D03*
X138492Y024761D03*
X137492Y024761D03*
X136492Y024761D03*
X135492Y024761D03*
X134492Y024761D03*
X133492Y024761D03*
X132492Y024761D03*
X131492Y024761D03*
X130492Y024761D03*
X129492Y024761D03*
X128492Y024761D03*
X127492Y024761D03*
X126492Y024761D03*
X125492Y024761D03*
X124492Y024761D03*
X123492Y024761D03*
X122492Y024761D03*
X121492Y024761D03*
X120492Y024761D03*
X119492Y024761D03*
X118492Y024761D03*
X117492Y024761D03*
X116492Y024761D03*
X115492Y024761D03*
X114492Y024761D03*
X113492Y024761D03*
X112492Y024761D03*
X111492Y024761D03*
X110492Y024761D03*
X109492Y024761D03*
X108492Y024761D03*
X107492Y024761D03*
X106492Y024761D03*
X105492Y024761D03*
X104492Y024761D03*
X103492Y024761D03*
X102492Y024761D03*
X101492Y024761D03*
X100492Y024761D03*
X099492Y024761D03*
X098492Y024761D03*
X097492Y024761D03*
X096492Y024761D03*
X095492Y024761D03*
X094492Y024761D03*
X093492Y024761D03*
X092492Y024761D03*
X091492Y024761D03*
X090492Y024761D03*
X089492Y024761D03*
X088492Y024761D03*
X087492Y024761D03*
X086492Y024761D03*
X085492Y024761D03*
X084492Y024761D03*
X083492Y024761D03*
X082492Y024761D03*
X081492Y024761D03*
X080492Y024761D03*
X079492Y024761D03*
X078492Y024761D03*
X077492Y024761D03*
X076492Y024761D03*
X075492Y024761D03*
X074492Y024761D03*
X073492Y024761D03*
X072492Y024761D03*
X071492Y024761D03*
X070492Y024761D03*
X069492Y024761D03*
X068492Y024761D03*
X067492Y024761D03*
X066492Y024761D03*
X065492Y024761D03*
X064492Y024761D03*
X063492Y024761D03*
X062492Y024761D03*
X061492Y024761D03*
X060492Y024761D03*
X059492Y024761D03*
X058492Y024761D03*
X057492Y024761D03*
X056492Y024761D03*
X055492Y024761D03*
X054492Y024761D03*
X053492Y024761D03*
X052492Y024761D03*
X051492Y024761D03*
X050492Y024761D03*
X049492Y024761D03*
X048492Y024761D03*
X047492Y024761D03*
X046492Y024761D03*
X045492Y024761D03*
X044492Y024761D03*
X043492Y024761D03*
X042492Y024761D03*
X041492Y024761D03*
X040492Y024761D03*
X039492Y024761D03*
X038492Y024761D03*
X037492Y024761D03*
X036492Y024761D03*
X035492Y024761D03*
X034492Y024761D03*
X033492Y024761D03*
X032492Y024761D03*
X031492Y024761D03*
X030492Y024761D03*
X029492Y024761D03*
X028492Y024761D03*
X027492Y024761D03*
X026492Y024761D03*
X025492Y024761D03*
X024492Y024761D03*
X023492Y024761D03*
X022492Y024761D03*
X021492Y024761D03*
X020492Y024761D03*
X019492Y024761D03*
X018492Y024761D03*
X017492Y024761D03*
X016492Y024761D03*
X016492Y025761D03*
X017492Y025761D03*
X018492Y025761D03*
X019492Y025761D03*
X020492Y025761D03*
X021492Y025761D03*
X022492Y025761D03*
X023492Y025761D03*
X024492Y025761D03*
X025492Y025761D03*
X026492Y025761D03*
X027492Y025761D03*
X028492Y025761D03*
X029492Y025761D03*
X030492Y025761D03*
X031492Y025761D03*
X032492Y025761D03*
X033492Y025761D03*
X034492Y025761D03*
X035492Y025761D03*
X036492Y025761D03*
X037492Y025761D03*
X038492Y025761D03*
X039492Y025761D03*
X040492Y025761D03*
X041492Y025761D03*
X042492Y025761D03*
X043492Y025761D03*
X044492Y025761D03*
X045492Y025761D03*
X046492Y025761D03*
X047492Y025761D03*
X048492Y025761D03*
X049492Y025761D03*
X050492Y025761D03*
X051492Y025761D03*
X052492Y025761D03*
X053492Y025761D03*
X054492Y025761D03*
X055492Y025761D03*
X056492Y025761D03*
X057492Y025761D03*
X058492Y025761D03*
X059492Y025761D03*
X060492Y025761D03*
X061492Y025761D03*
X062492Y025761D03*
X063492Y025761D03*
X064492Y025761D03*
X065492Y025761D03*
X066492Y025761D03*
X067492Y025761D03*
X068492Y025761D03*
X069492Y025761D03*
X070492Y025761D03*
X071492Y025761D03*
X072492Y025761D03*
X073492Y025761D03*
X074492Y025761D03*
X075492Y025761D03*
X076492Y025761D03*
X077492Y025761D03*
X078492Y025761D03*
X079492Y025761D03*
X080492Y025761D03*
X081492Y025761D03*
X082492Y025761D03*
X083492Y025761D03*
X084492Y025761D03*
X085492Y025761D03*
X086492Y025761D03*
X087492Y025761D03*
X088492Y025761D03*
X089492Y025761D03*
X090492Y025761D03*
X091492Y025761D03*
X092492Y025761D03*
X093492Y025761D03*
X094492Y025761D03*
X095492Y025761D03*
X096492Y025761D03*
X097492Y025761D03*
X098492Y025761D03*
X099492Y025761D03*
X100492Y025761D03*
X101492Y025761D03*
X102492Y025761D03*
X103492Y025761D03*
X104492Y025761D03*
X105492Y025761D03*
X106492Y025761D03*
X107492Y025761D03*
X108492Y025761D03*
X109492Y025761D03*
X110492Y025761D03*
X111492Y025761D03*
X112492Y025761D03*
X113492Y025761D03*
X114492Y025761D03*
X115492Y025761D03*
X116492Y025761D03*
X117492Y025761D03*
X118492Y025761D03*
X119492Y025761D03*
X120492Y025761D03*
X121492Y025761D03*
X122492Y025761D03*
X123492Y025761D03*
X124492Y025761D03*
X125492Y025761D03*
X126492Y025761D03*
X127492Y025761D03*
X128492Y025761D03*
X129492Y025761D03*
X130492Y025761D03*
X131492Y025761D03*
X132492Y025761D03*
X133492Y025761D03*
X134492Y025761D03*
X135492Y025761D03*
X136492Y025761D03*
X137492Y025761D03*
X138492Y025761D03*
X139492Y025761D03*
X140492Y025761D03*
X141492Y025761D03*
X142492Y025761D03*
X143492Y025761D03*
X143492Y026761D03*
X142492Y026761D03*
X141492Y026761D03*
X140492Y026761D03*
X139492Y026761D03*
X138492Y026761D03*
X137492Y026761D03*
X136492Y026761D03*
X135492Y026761D03*
X134492Y026761D03*
X133492Y026761D03*
X132492Y026761D03*
X131492Y026761D03*
X130492Y026761D03*
X129492Y026761D03*
X128492Y026761D03*
X127492Y026761D03*
X126492Y026761D03*
X125492Y026761D03*
X124492Y026761D03*
X123492Y026761D03*
X122492Y026761D03*
X121492Y026761D03*
X120492Y026761D03*
X119492Y026761D03*
X118492Y026761D03*
X117492Y026761D03*
X116492Y026761D03*
X115492Y026761D03*
X114492Y026761D03*
X113492Y026761D03*
X112492Y026761D03*
X111492Y026761D03*
X110492Y026761D03*
X109492Y026761D03*
X108492Y026761D03*
X107492Y026761D03*
X106492Y026761D03*
X105492Y026761D03*
X104492Y026761D03*
X103492Y026761D03*
X102492Y026761D03*
X101492Y026761D03*
X100492Y026761D03*
X099492Y026761D03*
X098492Y026761D03*
X097492Y026761D03*
X096492Y026761D03*
X095492Y026761D03*
X094492Y026761D03*
X093492Y026761D03*
X092492Y026761D03*
X091492Y026761D03*
X090492Y026761D03*
X089492Y026761D03*
X088492Y026761D03*
X087492Y026761D03*
X086492Y026761D03*
X085492Y026761D03*
X084492Y026761D03*
X083492Y026761D03*
X082492Y026761D03*
X081492Y026761D03*
X080492Y026761D03*
X079492Y026761D03*
X078492Y026761D03*
X077492Y026761D03*
X076492Y026761D03*
X075492Y026761D03*
X074492Y026761D03*
X073492Y026761D03*
X072492Y026761D03*
X071492Y026761D03*
X070492Y026761D03*
X069492Y026761D03*
X068492Y026761D03*
X067492Y026761D03*
X066492Y026761D03*
X065492Y026761D03*
X064492Y026761D03*
X063492Y026761D03*
X062492Y026761D03*
X061492Y026761D03*
X060492Y026761D03*
X059492Y026761D03*
X058492Y026761D03*
X057492Y026761D03*
X056492Y026761D03*
X055492Y026761D03*
X054492Y026761D03*
X053492Y026761D03*
X052492Y026761D03*
X051492Y026761D03*
X050492Y026761D03*
X049492Y026761D03*
X048492Y026761D03*
X047492Y026761D03*
X046492Y026761D03*
X045492Y026761D03*
X044492Y026761D03*
X043492Y026761D03*
X042492Y026761D03*
X041492Y026761D03*
X040492Y026761D03*
X039492Y026761D03*
X038492Y026761D03*
X037492Y026761D03*
X036492Y026761D03*
X035492Y026761D03*
X034492Y026761D03*
X033492Y026761D03*
X032492Y026761D03*
X031492Y026761D03*
X030492Y026761D03*
X029492Y026761D03*
X028492Y026761D03*
X027492Y026761D03*
X026492Y026761D03*
X025492Y026761D03*
X024492Y026761D03*
X023492Y026761D03*
X022492Y026761D03*
X021492Y026761D03*
X020492Y026761D03*
X019492Y026761D03*
X018492Y026761D03*
X017492Y026761D03*
X016492Y026761D03*
X031992Y009761D03*
X032992Y009761D03*
X033992Y009761D03*
X034992Y009761D03*
X035992Y009761D03*
X035992Y008761D03*
X034992Y008761D03*
X033992Y008761D03*
X032992Y008761D03*
X031992Y008761D03*
D12*
X015492Y011761D03*
X014492Y010761D03*
X014492Y013761D03*
X014492Y014761D03*
X015492Y014761D03*
X015492Y015761D03*
X014492Y017761D03*
X014492Y018761D03*
X015492Y018761D03*
X015492Y019761D03*
X014492Y021761D03*
X014492Y022761D03*
X015492Y022761D03*
X015492Y023761D03*
X014492Y025761D03*
X015492Y026761D03*
X016492Y030155D03*
X017492Y030155D03*
X020492Y030155D03*
X021492Y030155D03*
X024492Y030155D03*
X025492Y030155D03*
X028492Y030155D03*
X029492Y030155D03*
X032492Y030155D03*
X033492Y030155D03*
X036492Y030155D03*
X037492Y030155D03*
X040492Y030155D03*
X041492Y030155D03*
X044492Y030155D03*
X045492Y030155D03*
X048492Y030155D03*
X049492Y030155D03*
X052492Y030155D03*
X053492Y030155D03*
X056492Y030155D03*
X057492Y030155D03*
X060492Y030155D03*
X061492Y030155D03*
X064492Y030155D03*
X065492Y030155D03*
X068492Y030155D03*
X069492Y030155D03*
X072492Y030155D03*
X073492Y030155D03*
X076492Y030155D03*
X077492Y030155D03*
X080492Y030155D03*
X081492Y030155D03*
X084492Y030155D03*
X085492Y030155D03*
X088492Y030155D03*
X089492Y030155D03*
X092492Y030155D03*
X093492Y030155D03*
X096492Y030155D03*
X097492Y030155D03*
X100492Y030155D03*
X101492Y030155D03*
X104492Y030155D03*
X105492Y030155D03*
X108492Y030155D03*
X109492Y030155D03*
X112492Y030155D03*
X113492Y030155D03*
X116492Y030155D03*
X117492Y030155D03*
X120492Y030155D03*
X121492Y030155D03*
X124492Y030155D03*
X125492Y030155D03*
X128492Y030155D03*
X129492Y030155D03*
X132492Y030155D03*
X133492Y030155D03*
X136492Y030155D03*
X137492Y030155D03*
X140492Y030155D03*
X141492Y030155D03*
X142492Y032155D03*
X143492Y032155D03*
X139492Y032155D03*
X138492Y032155D03*
X135492Y032155D03*
X134492Y032155D03*
X131492Y032155D03*
X130492Y032155D03*
X127492Y032155D03*
X126492Y032155D03*
X123492Y032155D03*
X122492Y032155D03*
X119492Y032155D03*
X118492Y032155D03*
X115492Y032155D03*
X114492Y032155D03*
X111492Y032155D03*
X110492Y032155D03*
X107492Y032155D03*
X106492Y032155D03*
X103492Y032155D03*
X102492Y032155D03*
X099492Y032155D03*
X098492Y032155D03*
X095492Y032155D03*
X094492Y032155D03*
X091492Y032155D03*
X090492Y032155D03*
X087492Y032155D03*
X086492Y032155D03*
X083492Y032155D03*
X082492Y032155D03*
X079492Y032155D03*
X078492Y032155D03*
X075492Y032155D03*
X074492Y032155D03*
X071492Y032155D03*
X070492Y032155D03*
X067492Y032155D03*
X066492Y032155D03*
X063492Y032155D03*
X062492Y032155D03*
X059492Y032155D03*
X058492Y032155D03*
X055492Y032155D03*
X054492Y032155D03*
X051492Y032155D03*
X050492Y032155D03*
X047492Y032155D03*
X046492Y032155D03*
X043492Y032155D03*
X042492Y032155D03*
X039492Y032155D03*
X038492Y032155D03*
X035492Y032155D03*
X034492Y032155D03*
X031492Y032155D03*
X030492Y032155D03*
X027492Y032155D03*
X026492Y032155D03*
X023492Y032155D03*
X022492Y032155D03*
X019492Y032155D03*
X018492Y032155D03*
X142992Y010761D03*
X144492Y010261D03*
X145492Y009261D03*
X142992Y007761D03*
X145492Y012261D03*
X145492Y013261D03*
X144492Y013261D03*
X144492Y014261D03*
X145492Y016261D03*
X145492Y017261D03*
X144492Y017261D03*
X144492Y018261D03*
X145492Y020261D03*
X145492Y021261D03*
X144492Y021261D03*
X144492Y022261D03*
X145492Y024261D03*
X144492Y025261D03*
D13*
X143992Y025261D01*
X142992Y025261D01*
X142492Y024761D01*
X141992Y025261D01*
X140992Y025261D01*
X140492Y024761D01*
X139992Y025261D01*
X138992Y025261D01*
X138492Y024761D01*
X137992Y025261D01*
X136992Y025261D01*
X136492Y024761D01*
X135992Y025261D01*
X134992Y025261D01*
X134492Y024761D01*
X133992Y025261D01*
X132992Y025261D01*
X132492Y024761D01*
X131992Y025261D01*
X130992Y025261D01*
X130492Y024761D01*
X129992Y025261D01*
X128992Y025261D01*
X128492Y024761D01*
X127992Y025261D01*
X126992Y025261D01*
X126492Y024761D01*
X125992Y025261D01*
X124992Y025261D01*
X124492Y024761D01*
X123992Y025261D01*
X122992Y025261D01*
X122492Y024761D01*
X121992Y025261D01*
X120992Y025261D01*
X120492Y024761D01*
X119992Y025261D01*
X118992Y025261D01*
X118492Y024761D01*
X117992Y025261D01*
X116992Y025261D01*
X116492Y024761D01*
X115992Y025261D01*
X114992Y025261D01*
X114492Y024761D01*
X113992Y025261D01*
X112992Y025261D01*
X112492Y024761D01*
X111992Y025261D01*
X110992Y025261D01*
X110492Y024761D01*
X109992Y025261D01*
X108992Y025261D01*
X108492Y024761D01*
X107992Y025261D01*
X106992Y025261D01*
X106492Y024761D01*
X105992Y025261D01*
X104992Y025261D01*
X104492Y024761D01*
X103992Y025261D01*
X102992Y025261D01*
X102492Y024761D01*
X101992Y025261D01*
X100992Y025261D01*
X100492Y024761D01*
X099992Y025261D01*
X098992Y025261D01*
X098492Y024761D01*
X097992Y025261D01*
X096992Y025261D01*
X096492Y024761D01*
X095992Y025261D01*
X094992Y025261D01*
X094492Y024761D01*
X093992Y025261D01*
X092992Y025261D01*
X092492Y024761D01*
X091992Y025261D01*
X090992Y025261D01*
X090492Y024761D01*
X089992Y025261D01*
X088992Y025261D01*
X088492Y024761D01*
X087992Y025261D01*
X086992Y025261D01*
X086492Y024761D01*
X085992Y025261D01*
X084992Y025261D01*
X084492Y024761D01*
X083992Y025261D01*
X082992Y025261D01*
X082492Y024761D01*
X081992Y025261D01*
X080992Y025261D01*
X080492Y024761D01*
X079992Y025261D01*
X078992Y025261D01*
X078492Y024761D01*
X077992Y025261D01*
X076992Y025261D01*
X076492Y024761D01*
X075992Y025261D01*
X074992Y025261D01*
X074492Y024761D01*
X073992Y025261D01*
X072992Y025261D01*
X072492Y024761D01*
X071992Y025261D01*
X070992Y025261D01*
X070492Y024761D01*
X069992Y025261D01*
X068992Y025261D01*
X068492Y024761D01*
X067992Y025261D01*
X066992Y025261D01*
X066492Y024761D01*
X065992Y025261D01*
X064992Y025261D01*
X064492Y024761D01*
X063992Y025261D01*
X062992Y025261D01*
X062492Y024761D01*
X061992Y025261D01*
X060992Y025261D01*
X060492Y024761D01*
X059992Y025261D01*
X058992Y025261D01*
X058492Y024761D01*
X057992Y025261D01*
X056992Y025261D01*
X056492Y024761D01*
X055992Y025261D01*
X054992Y025261D01*
X054492Y024761D01*
X053992Y025261D01*
X052992Y025261D01*
X052492Y024761D01*
X051992Y025261D01*
X050992Y025261D01*
X050492Y024761D01*
X049992Y025261D01*
X048992Y025261D01*
X048492Y024761D01*
X047992Y025261D01*
X046992Y025261D01*
X046492Y024761D01*
X045992Y025261D01*
X044992Y025261D01*
X044492Y024761D01*
X043992Y025261D01*
X042992Y025261D01*
X042492Y024761D01*
X041992Y025261D01*
X040992Y025261D01*
X040492Y024761D01*
X039992Y025261D01*
X038992Y025261D01*
X038492Y024761D01*
X037992Y025261D01*
X036992Y025261D01*
X036492Y024761D01*
X035992Y025261D01*
X034992Y025261D01*
X034492Y024761D01*
X033992Y025261D01*
X032992Y025261D01*
X032492Y024761D01*
X031992Y025261D01*
X030992Y025261D01*
X030492Y024761D01*
X029992Y025261D01*
X028992Y025261D01*
X028492Y024761D01*
X027992Y025261D01*
X026992Y025261D01*
X026492Y024761D01*
X025992Y025261D01*
X024992Y025261D01*
X024492Y024761D01*
X023992Y025261D01*
X022992Y025261D01*
X022492Y024761D01*
X021992Y025261D01*
X020992Y025261D01*
X020492Y024761D01*
X019992Y025261D01*
X018992Y025261D01*
X018492Y024761D01*
X017992Y025261D01*
X016992Y025261D01*
X016492Y024761D01*
X016992Y024261D02*
X017992Y024261D01*
X018492Y023761D01*
X018992Y024261D01*
X019992Y024261D01*
X020492Y023761D01*
X020992Y024261D01*
X021992Y024261D01*
X022492Y023761D01*
X022992Y024261D01*
X023992Y024261D01*
X024492Y023761D01*
X024992Y024261D01*
X025992Y024261D01*
X026492Y023761D01*
X026992Y024261D01*
X027992Y024261D01*
X028492Y023761D01*
X028992Y024261D01*
X029992Y024261D01*
X030492Y023761D01*
X030992Y024261D01*
X031992Y024261D01*
X032492Y023761D01*
X032992Y024261D01*
X033992Y024261D01*
X034492Y023761D01*
X034992Y024261D01*
X035992Y024261D01*
X036492Y023761D01*
X036992Y024261D01*
X037992Y024261D01*
X038492Y023761D01*
X038992Y024261D01*
X039992Y024261D01*
X040492Y023761D01*
X040992Y024261D01*
X041992Y024261D01*
X042492Y023761D01*
X042992Y024261D01*
X043992Y024261D01*
X044492Y023761D01*
X044992Y024261D01*
X045992Y024261D01*
X046492Y023761D01*
X046992Y024261D01*
X047992Y024261D01*
X048492Y023761D01*
X048992Y024261D01*
X049992Y024261D01*
X050492Y023761D01*
X050992Y024261D01*
X051992Y024261D01*
X052492Y023761D01*
X052992Y024261D01*
X053992Y024261D01*
X054492Y023761D01*
X054992Y024261D01*
X055992Y024261D01*
X056492Y023761D01*
X056992Y024261D01*
X057992Y024261D01*
X058492Y023761D01*
X058992Y024261D01*
X059992Y024261D01*
X060492Y023761D01*
X060992Y024261D01*
X061992Y024261D01*
X062492Y023761D01*
X062992Y024261D01*
X063992Y024261D01*
X064492Y023761D01*
X064992Y024261D01*
X065992Y024261D01*
X066492Y023761D01*
X066992Y024261D01*
X067992Y024261D01*
X068492Y023761D01*
X068992Y024261D01*
X069992Y024261D01*
X070492Y023761D01*
X070992Y024261D01*
X071992Y024261D01*
X072492Y023761D01*
X072992Y024261D01*
X073992Y024261D01*
X074492Y023761D01*
X074992Y024261D01*
X075992Y024261D01*
X076492Y023761D01*
X076992Y024261D01*
X077992Y024261D01*
X078492Y023761D01*
X078992Y024261D01*
X079992Y024261D01*
X080492Y023761D01*
X080992Y024261D01*
X081992Y024261D01*
X082492Y023761D01*
X082992Y024261D01*
X083992Y024261D01*
X084492Y023761D01*
X084992Y024261D01*
X085992Y024261D01*
X086492Y023761D01*
X086992Y024261D01*
X087992Y024261D01*
X088492Y023761D01*
X088992Y024261D01*
X089992Y024261D01*
X090492Y023761D01*
X090992Y024261D01*
X091992Y024261D01*
X092492Y023761D01*
X092992Y024261D01*
X093992Y024261D01*
X094492Y023761D01*
X094992Y024261D01*
X095992Y024261D01*
X096492Y023761D01*
X096992Y024261D01*
X097992Y024261D01*
X098492Y023761D01*
X098992Y024261D01*
X099992Y024261D01*
X100492Y023761D01*
X100992Y024261D01*
X101992Y024261D01*
X102492Y023761D01*
X102992Y024261D01*
X103992Y024261D01*
X104492Y023761D01*
X104992Y024261D01*
X105992Y024261D01*
X106492Y023761D01*
X106992Y024261D01*
X107992Y024261D01*
X108492Y023761D01*
X108992Y024261D01*
X109992Y024261D01*
X110492Y023761D01*
X110992Y024261D01*
X111992Y024261D01*
X112492Y023761D01*
X112992Y024261D01*
X113992Y024261D01*
X114492Y023761D01*
X114992Y024261D01*
X115992Y024261D01*
X116492Y023761D01*
X116992Y024261D01*
X117992Y024261D01*
X118492Y023761D01*
X118992Y024261D01*
X119992Y024261D01*
X120492Y023761D01*
X120992Y024261D01*
X121992Y024261D01*
X122492Y023761D01*
X122992Y024261D01*
X123992Y024261D01*
X124492Y023761D01*
X124992Y024261D01*
X125992Y024261D01*
X126492Y023761D01*
X126992Y024261D01*
X127992Y024261D01*
X128492Y023761D01*
X128992Y024261D01*
X129992Y024261D01*
X130492Y023761D01*
X130992Y024261D01*
X131992Y024261D01*
X132492Y023761D01*
X132992Y024261D01*
X133992Y024261D01*
X134492Y023761D01*
X134992Y024261D01*
X135992Y024261D01*
X136492Y023761D01*
X136992Y024261D01*
X137992Y024261D01*
X138492Y023761D01*
X138992Y024261D01*
X139992Y024261D01*
X140492Y023761D01*
X140992Y024261D01*
X141992Y024261D01*
X142492Y023761D01*
X142992Y024261D01*
X143992Y024261D01*
X145492Y024261D01*
X142492Y022761D02*
X141992Y023261D01*
X140992Y023261D01*
X140492Y022761D01*
X139992Y023261D01*
X138992Y023261D01*
X138492Y022761D01*
X137992Y023261D01*
X136992Y023261D01*
X136492Y022761D01*
X135992Y023261D01*
X134992Y023261D01*
X134492Y022761D01*
X133992Y023261D01*
X132992Y023261D01*
X132492Y022761D01*
X131992Y023261D01*
X130992Y023261D01*
X130492Y022761D01*
X129992Y023261D01*
X128992Y023261D01*
X128492Y022761D01*
X127992Y023261D01*
X126992Y023261D01*
X126492Y022761D01*
X125992Y023261D01*
X124992Y023261D01*
X124492Y022761D01*
X123992Y023261D01*
X122992Y023261D01*
X122492Y022761D01*
X121992Y023261D01*
X120992Y023261D01*
X120492Y022761D01*
X119992Y023261D01*
X118992Y023261D01*
X118492Y022761D01*
X117992Y023261D01*
X116992Y023261D01*
X116492Y022761D01*
X115992Y023261D01*
X114992Y023261D01*
X114492Y022761D01*
X113992Y023261D01*
X112992Y023261D01*
X112492Y022761D01*
X111992Y023261D01*
X110992Y023261D01*
X110492Y022761D01*
X109992Y023261D01*
X108992Y023261D01*
X108492Y022761D01*
X107992Y023261D01*
X106992Y023261D01*
X106492Y022761D01*
X105992Y023261D01*
X104992Y023261D01*
X104492Y022761D01*
X103992Y023261D01*
X102992Y023261D01*
X102492Y022761D01*
X101992Y023261D01*
X100992Y023261D01*
X100492Y022761D01*
X099992Y023261D01*
X098992Y023261D01*
X098492Y022761D01*
X097992Y023261D01*
X096992Y023261D01*
X096492Y022761D01*
X095992Y023261D01*
X094992Y023261D01*
X094492Y022761D01*
X093992Y023261D01*
X092992Y023261D01*
X092492Y022761D01*
X091992Y023261D01*
X090992Y023261D01*
X090492Y022761D01*
X089992Y023261D01*
X088992Y023261D01*
X088492Y022761D01*
X087992Y023261D01*
X086992Y023261D01*
X086492Y022761D01*
X085992Y023261D01*
X084992Y023261D01*
X084492Y022761D01*
X083992Y023261D01*
X082992Y023261D01*
X082492Y022761D01*
X081992Y023261D01*
X080992Y023261D01*
X080492Y022761D01*
X079992Y023261D01*
X078992Y023261D01*
X078492Y022761D01*
X077992Y023261D01*
X076992Y023261D01*
X076492Y022761D01*
X075992Y023261D01*
X074992Y023261D01*
X074492Y022761D01*
X073992Y023261D01*
X072992Y023261D01*
X072492Y022761D01*
X071992Y023261D01*
X070992Y023261D01*
X070492Y022761D01*
X069992Y023261D01*
X068992Y023261D01*
X068492Y022761D01*
X067992Y023261D01*
X066992Y023261D01*
X066492Y022761D01*
X065992Y023261D01*
X064992Y023261D01*
X064492Y022761D01*
X063992Y023261D01*
X062992Y023261D01*
X062492Y022761D01*
X061992Y023261D01*
X060992Y023261D01*
X060492Y022761D01*
X059992Y023261D01*
X058992Y023261D01*
X058492Y022761D01*
X057992Y023261D01*
X056992Y023261D01*
X056492Y022761D01*
X055992Y023261D01*
X054992Y023261D01*
X054492Y022761D01*
X053992Y023261D01*
X052992Y023261D01*
X052492Y022761D01*
X051992Y023261D01*
X050992Y023261D01*
X050492Y022761D01*
X049992Y023261D01*
X048992Y023261D01*
X048492Y022761D01*
X047992Y023261D01*
X046992Y023261D01*
X046492Y022761D01*
X045992Y023261D01*
X044992Y023261D01*
X044492Y022761D01*
X043992Y023261D01*
X042992Y023261D01*
X042492Y022761D01*
X041992Y023261D01*
X040992Y023261D01*
X040492Y022761D01*
X039992Y023261D01*
X038992Y023261D01*
X038492Y022761D01*
X037992Y023261D01*
X036992Y023261D01*
X036492Y022761D01*
X035992Y023261D01*
X034992Y023261D01*
X034492Y022761D01*
X033992Y023261D01*
X032992Y023261D01*
X032492Y022761D01*
X031992Y023261D01*
X030992Y023261D01*
X030492Y022761D01*
X029992Y023261D01*
X028992Y023261D01*
X028492Y022761D01*
X027992Y023261D01*
X026992Y023261D01*
X026492Y022761D01*
X025992Y023261D01*
X024992Y023261D01*
X024492Y022761D01*
X023992Y023261D01*
X022992Y023261D01*
X022492Y022761D01*
X021992Y023261D01*
X020992Y023261D01*
X020492Y022761D01*
X019992Y023261D01*
X018992Y023261D01*
X018492Y022761D01*
X017992Y023261D01*
X016992Y023261D01*
X016492Y022761D01*
X015492Y022761D01*
X016492Y021761D02*
X016992Y022261D01*
X017992Y022261D01*
X018492Y021761D01*
X018992Y022261D01*
X019992Y022261D01*
X020492Y021761D01*
X020992Y022261D01*
X021992Y022261D01*
X022492Y021761D01*
X022992Y022261D01*
X023992Y022261D01*
X024492Y021761D01*
X024992Y022261D01*
X025992Y022261D01*
X026492Y021761D01*
X026992Y022261D01*
X027992Y022261D01*
X028492Y021761D01*
X028992Y022261D01*
X029992Y022261D01*
X030492Y021761D01*
X030992Y022261D01*
X031992Y022261D01*
X032492Y021761D01*
X032992Y022261D01*
X033992Y022261D01*
X034492Y021761D01*
X034992Y022261D01*
X035992Y022261D01*
X036492Y021761D01*
X036992Y022261D01*
X037992Y022261D01*
X038492Y021761D01*
X038992Y022261D01*
X039992Y022261D01*
X040492Y021761D01*
X040992Y022261D01*
X041992Y022261D01*
X042492Y021761D01*
X042992Y022261D01*
X043992Y022261D01*
X044492Y021761D01*
X044992Y022261D01*
X045992Y022261D01*
X046492Y021761D01*
X046992Y022261D01*
X047992Y022261D01*
X048492Y021761D01*
X048992Y022261D01*
X049992Y022261D01*
X050492Y021761D01*
X050992Y022261D01*
X051992Y022261D01*
X052492Y021761D01*
X052992Y022261D01*
X053992Y022261D01*
X054492Y021761D01*
X054992Y022261D01*
X055992Y022261D01*
X056492Y021761D01*
X056992Y022261D01*
X057992Y022261D01*
X058492Y021761D01*
X058992Y022261D01*
X059992Y022261D01*
X060492Y021761D01*
X060992Y022261D01*
X061992Y022261D01*
X062492Y021761D01*
X062992Y022261D01*
X063992Y022261D01*
X064492Y021761D01*
X064992Y022261D01*
X065992Y022261D01*
X066492Y021761D01*
X066992Y022261D01*
X067992Y022261D01*
X068492Y021761D01*
X068992Y022261D01*
X069992Y022261D01*
X070492Y021761D01*
X070992Y022261D01*
X071992Y022261D01*
X072492Y021761D01*
X072992Y022261D01*
X073992Y022261D01*
X074492Y021761D01*
X074992Y022261D01*
X075992Y022261D01*
X076492Y021761D01*
X076992Y022261D01*
X077992Y022261D01*
X078492Y021761D01*
X078992Y022261D01*
X079992Y022261D01*
X080492Y021761D01*
X080992Y022261D01*
X081992Y022261D01*
X082492Y021761D01*
X082992Y022261D01*
X083992Y022261D01*
X084492Y021761D01*
X084992Y022261D01*
X085992Y022261D01*
X086492Y021761D01*
X086992Y022261D01*
X087992Y022261D01*
X088492Y021761D01*
X088992Y022261D01*
X089992Y022261D01*
X090492Y021761D01*
X090992Y022261D01*
X091992Y022261D01*
X092492Y021761D01*
X092992Y022261D01*
X093992Y022261D01*
X094492Y021761D01*
X094992Y022261D01*
X095992Y022261D01*
X096492Y021761D01*
X096992Y022261D01*
X097992Y022261D01*
X098492Y021761D01*
X098992Y022261D01*
X099992Y022261D01*
X100492Y021761D01*
X100992Y022261D01*
X101992Y022261D01*
X102492Y021761D01*
X102992Y022261D01*
X103992Y022261D01*
X104492Y021761D01*
X104992Y022261D01*
X105992Y022261D01*
X106492Y021761D01*
X106992Y022261D01*
X107992Y022261D01*
X108492Y021761D01*
X108992Y022261D01*
X109992Y022261D01*
X110492Y021761D01*
X110992Y022261D01*
X111992Y022261D01*
X112492Y021761D01*
X112992Y022261D01*
X113992Y022261D01*
X114492Y021761D01*
X114992Y022261D01*
X115992Y022261D01*
X116492Y021761D01*
X116992Y022261D01*
X117992Y022261D01*
X118492Y021761D01*
X118992Y022261D01*
X119992Y022261D01*
X120492Y021761D01*
X120992Y022261D01*
X121992Y022261D01*
X122492Y021761D01*
X122992Y022261D01*
X123992Y022261D01*
X124492Y021761D01*
X124992Y022261D01*
X125992Y022261D01*
X126492Y021761D01*
X126992Y022261D01*
X127992Y022261D01*
X128492Y021761D01*
X128992Y022261D01*
X129992Y022261D01*
X130492Y021761D01*
X130992Y022261D01*
X131992Y022261D01*
X132492Y021761D01*
X132992Y022261D01*
X133992Y022261D01*
X134492Y021761D01*
X134992Y022261D01*
X135992Y022261D01*
X136492Y021761D01*
X136992Y022261D01*
X137992Y022261D01*
X138492Y021761D01*
X138992Y022261D01*
X139992Y022261D01*
X140492Y021761D01*
X140992Y022261D01*
X141992Y022261D01*
X142492Y021761D01*
X142992Y021261D02*
X143992Y021261D01*
X144492Y021261D01*
X142992Y021261D02*
X142492Y020761D01*
X141992Y021261D01*
X140992Y021261D01*
X140492Y020761D01*
X139992Y021261D01*
X138992Y021261D01*
X138492Y020761D01*
X137992Y021261D01*
X136992Y021261D01*
X136492Y020761D01*
X135992Y021261D01*
X134992Y021261D01*
X134492Y020761D01*
X133992Y021261D01*
X132992Y021261D01*
X132492Y020761D01*
X131992Y021261D01*
X130992Y021261D01*
X130492Y020761D01*
X129992Y021261D01*
X128992Y021261D01*
X128492Y020761D01*
X127992Y021261D01*
X126992Y021261D01*
X126492Y020761D01*
X125992Y021261D01*
X124992Y021261D01*
X124492Y020761D01*
X123992Y021261D01*
X122992Y021261D01*
X122492Y020761D01*
X121992Y021261D01*
X120992Y021261D01*
X120492Y020761D01*
X119992Y021261D01*
X118992Y021261D01*
X118492Y020761D01*
X117992Y021261D01*
X116992Y021261D01*
X116492Y020761D01*
X115992Y021261D01*
X114992Y021261D01*
X114492Y020761D01*
X113992Y021261D01*
X112992Y021261D01*
X112492Y020761D01*
X111992Y021261D01*
X110992Y021261D01*
X110492Y020761D01*
X109992Y021261D01*
X108992Y021261D01*
X108492Y020761D01*
X107992Y021261D01*
X106992Y021261D01*
X106492Y020761D01*
X105992Y021261D01*
X104992Y021261D01*
X104492Y020761D01*
X103992Y021261D01*
X102992Y021261D01*
X102492Y020761D01*
X101992Y021261D01*
X100992Y021261D01*
X100492Y020761D01*
X099992Y021261D01*
X098992Y021261D01*
X098492Y020761D01*
X097992Y021261D01*
X096992Y021261D01*
X096492Y020761D01*
X095992Y021261D01*
X094992Y021261D01*
X094492Y020761D01*
X093992Y021261D01*
X092992Y021261D01*
X092492Y020761D01*
X091992Y021261D01*
X090992Y021261D01*
X090492Y020761D01*
X089992Y021261D01*
X088992Y021261D01*
X088492Y020761D01*
X087992Y021261D01*
X086992Y021261D01*
X086492Y020761D01*
X085992Y021261D01*
X084992Y021261D01*
X084492Y020761D01*
X083992Y021261D01*
X082992Y021261D01*
X082492Y020761D01*
X081992Y021261D01*
X080992Y021261D01*
X080492Y020761D01*
X079992Y021261D01*
X078992Y021261D01*
X078492Y020761D01*
X077992Y021261D01*
X076992Y021261D01*
X076492Y020761D01*
X075992Y021261D01*
X074992Y021261D01*
X074492Y020761D01*
X073992Y021261D01*
X072992Y021261D01*
X072492Y020761D01*
X071992Y021261D01*
X070992Y021261D01*
X070492Y020761D01*
X069992Y021261D01*
X068992Y021261D01*
X068492Y020761D01*
X067992Y021261D01*
X066992Y021261D01*
X066492Y020761D01*
X065992Y021261D01*
X064992Y021261D01*
X064492Y020761D01*
X063992Y021261D01*
X062992Y021261D01*
X062492Y020761D01*
X061992Y021261D01*
X060992Y021261D01*
X060492Y020761D01*
X059992Y021261D01*
X058992Y021261D01*
X058492Y020761D01*
X057992Y021261D01*
X056992Y021261D01*
X056492Y020761D01*
X055992Y021261D01*
X054992Y021261D01*
X054492Y020761D01*
X053992Y021261D01*
X052992Y021261D01*
X052492Y020761D01*
X051992Y021261D01*
X050992Y021261D01*
X050492Y020761D01*
X049992Y021261D01*
X048992Y021261D01*
X048492Y020761D01*
X047992Y021261D01*
X046992Y021261D01*
X046492Y020761D01*
X045992Y021261D01*
X044992Y021261D01*
X044492Y020761D01*
X043992Y021261D01*
X042992Y021261D01*
X042492Y020761D01*
X041992Y021261D01*
X040992Y021261D01*
X040492Y020761D01*
X039992Y021261D01*
X038992Y021261D01*
X038492Y020761D01*
X037992Y021261D01*
X036992Y021261D01*
X036492Y020761D01*
X035992Y021261D01*
X034992Y021261D01*
X034492Y020761D01*
X033992Y021261D01*
X032992Y021261D01*
X032492Y020761D01*
X031992Y021261D01*
X030992Y021261D01*
X030492Y020761D01*
X029992Y021261D01*
X028992Y021261D01*
X028492Y020761D01*
X027992Y021261D01*
X026992Y021261D01*
X026492Y020761D01*
X025992Y021261D01*
X024992Y021261D01*
X024492Y020761D01*
X023992Y021261D01*
X022992Y021261D01*
X022492Y020761D01*
X021992Y021261D01*
X020992Y021261D01*
X020492Y020761D01*
X019992Y021261D01*
X018992Y021261D01*
X018492Y020761D01*
X017992Y021261D01*
X016992Y021261D01*
X016492Y020761D01*
X016992Y020261D02*
X017992Y020261D01*
X018492Y019761D01*
X018992Y020261D01*
X019992Y020261D01*
X020492Y019761D01*
X020992Y020261D01*
X021992Y020261D01*
X022492Y019761D01*
X022992Y020261D01*
X023992Y020261D01*
X024492Y019761D01*
X024992Y020261D01*
X025992Y020261D01*
X026492Y019761D01*
X026992Y020261D01*
X027992Y020261D01*
X028492Y019761D01*
X028992Y020261D01*
X029992Y020261D01*
X030492Y019761D01*
X030992Y020261D01*
X031992Y020261D01*
X032492Y019761D01*
X032992Y020261D01*
X033992Y020261D01*
X034492Y019761D01*
X034992Y020261D01*
X035992Y020261D01*
X036492Y019761D01*
X036992Y020261D01*
X037992Y020261D01*
X038492Y019761D01*
X038992Y020261D01*
X039992Y020261D01*
X040492Y019761D01*
X040992Y020261D01*
X041992Y020261D01*
X042492Y019761D01*
X042992Y020261D01*
X043992Y020261D01*
X044492Y019761D01*
X044992Y020261D01*
X045992Y020261D01*
X046492Y019761D01*
X046992Y020261D01*
X047992Y020261D01*
X048492Y019761D01*
X048992Y020261D01*
X049992Y020261D01*
X050492Y019761D01*
X050992Y020261D01*
X051992Y020261D01*
X052492Y019761D01*
X052992Y020261D01*
X053992Y020261D01*
X054492Y019761D01*
X054992Y020261D01*
X055992Y020261D01*
X056492Y019761D01*
X056992Y020261D01*
X057992Y020261D01*
X058492Y019761D01*
X058992Y020261D01*
X059992Y020261D01*
X060492Y019761D01*
X060992Y020261D01*
X061992Y020261D01*
X062492Y019761D01*
X062992Y020261D01*
X063992Y020261D01*
X064492Y019761D01*
X064992Y020261D01*
X065992Y020261D01*
X066492Y019761D01*
X066992Y020261D01*
X067992Y020261D01*
X068492Y019761D01*
X068992Y020261D01*
X069992Y020261D01*
X070492Y019761D01*
X070992Y020261D01*
X071992Y020261D01*
X072492Y019761D01*
X072992Y020261D01*
X073992Y020261D01*
X074492Y019761D01*
X074992Y020261D01*
X075992Y020261D01*
X076492Y019761D01*
X076992Y020261D01*
X077992Y020261D01*
X078492Y019761D01*
X078992Y020261D01*
X079992Y020261D01*
X080492Y019761D01*
X080992Y020261D01*
X081992Y020261D01*
X082492Y019761D01*
X082992Y020261D01*
X083992Y020261D01*
X084492Y019761D01*
X084992Y020261D01*
X085992Y020261D01*
X086492Y019761D01*
X086992Y020261D01*
X087992Y020261D01*
X088492Y019761D01*
X088992Y020261D01*
X089992Y020261D01*
X090492Y019761D01*
X090992Y020261D01*
X091992Y020261D01*
X092492Y019761D01*
X092992Y020261D01*
X093992Y020261D01*
X094492Y019761D01*
X094992Y020261D01*
X095992Y020261D01*
X096492Y019761D01*
X096992Y020261D01*
X097992Y020261D01*
X098492Y019761D01*
X098992Y020261D01*
X099992Y020261D01*
X100492Y019761D01*
X100992Y020261D01*
X101992Y020261D01*
X102492Y019761D01*
X102992Y020261D01*
X103992Y020261D01*
X104492Y019761D01*
X104992Y020261D01*
X105992Y020261D01*
X106492Y019761D01*
X106992Y020261D01*
X107992Y020261D01*
X108492Y019761D01*
X108992Y020261D01*
X109992Y020261D01*
X110492Y019761D01*
X110992Y020261D01*
X111992Y020261D01*
X112492Y019761D01*
X112992Y020261D01*
X113992Y020261D01*
X114492Y019761D01*
X114992Y020261D01*
X115992Y020261D01*
X116492Y019761D01*
X116992Y020261D01*
X117992Y020261D01*
X118492Y019761D01*
X118992Y020261D01*
X119992Y020261D01*
X120492Y019761D01*
X120992Y020261D01*
X121992Y020261D01*
X122492Y019761D01*
X122992Y020261D01*
X123992Y020261D01*
X124492Y019761D01*
X124992Y020261D01*
X125992Y020261D01*
X126492Y019761D01*
X126992Y020261D01*
X127992Y020261D01*
X128492Y019761D01*
X128992Y020261D01*
X129992Y020261D01*
X130492Y019761D01*
X130992Y020261D01*
X131992Y020261D01*
X132492Y019761D01*
X132992Y020261D01*
X133992Y020261D01*
X134492Y019761D01*
X134992Y020261D01*
X135992Y020261D01*
X136492Y019761D01*
X136992Y020261D01*
X137992Y020261D01*
X138492Y019761D01*
X138992Y020261D01*
X139992Y020261D01*
X140492Y019761D01*
X140992Y020261D01*
X141992Y020261D01*
X142492Y019761D01*
X142992Y020261D01*
X143992Y020261D01*
X145492Y020261D01*
X142492Y018761D02*
X141992Y019261D01*
X140992Y019261D01*
X140492Y018761D01*
X139992Y019261D01*
X138992Y019261D01*
X138492Y018761D01*
X137992Y019261D01*
X136992Y019261D01*
X136492Y018761D01*
X135992Y019261D01*
X134992Y019261D01*
X134492Y018761D01*
X133992Y019261D01*
X132992Y019261D01*
X132492Y018761D01*
X131992Y019261D01*
X130992Y019261D01*
X130492Y018761D01*
X129992Y019261D01*
X128992Y019261D01*
X128492Y018761D01*
X127992Y019261D01*
X126992Y019261D01*
X126492Y018761D01*
X125992Y019261D01*
X124992Y019261D01*
X124492Y018761D01*
X123992Y019261D01*
X122992Y019261D01*
X122492Y018761D01*
X121992Y019261D01*
X120992Y019261D01*
X120492Y018761D01*
X119992Y019261D01*
X118992Y019261D01*
X118492Y018761D01*
X117992Y019261D01*
X116992Y019261D01*
X116492Y018761D01*
X115992Y019261D01*
X114992Y019261D01*
X114492Y018761D01*
X113992Y019261D01*
X112992Y019261D01*
X112492Y018761D01*
X111992Y019261D01*
X110992Y019261D01*
X110492Y018761D01*
X109992Y019261D01*
X108992Y019261D01*
X108492Y018761D01*
X107992Y019261D01*
X106992Y019261D01*
X106492Y018761D01*
X105992Y019261D01*
X104992Y019261D01*
X104492Y018761D01*
X103992Y019261D01*
X102992Y019261D01*
X102492Y018761D01*
X101992Y019261D01*
X100992Y019261D01*
X100492Y018761D01*
X099992Y019261D01*
X098992Y019261D01*
X098492Y018761D01*
X097992Y019261D01*
X096992Y019261D01*
X096492Y018761D01*
X095992Y019261D01*
X094992Y019261D01*
X094492Y018761D01*
X093992Y019261D01*
X092992Y019261D01*
X092492Y018761D01*
X091992Y019261D01*
X090992Y019261D01*
X090492Y018761D01*
X089992Y019261D01*
X088992Y019261D01*
X088492Y018761D01*
X087992Y019261D01*
X086992Y019261D01*
X086492Y018761D01*
X085992Y019261D01*
X084992Y019261D01*
X084492Y018761D01*
X083992Y019261D01*
X082992Y019261D01*
X082492Y018761D01*
X081992Y019261D01*
X080992Y019261D01*
X080492Y018761D01*
X079992Y019261D01*
X078992Y019261D01*
X078492Y018761D01*
X077992Y019261D01*
X076992Y019261D01*
X076492Y018761D01*
X075992Y019261D01*
X074992Y019261D01*
X074492Y018761D01*
X073992Y019261D01*
X072992Y019261D01*
X072492Y018761D01*
X071992Y019261D01*
X070992Y019261D01*
X070492Y018761D01*
X069992Y019261D01*
X068992Y019261D01*
X068492Y018761D01*
X067992Y019261D01*
X066992Y019261D01*
X066492Y018761D01*
X065992Y019261D01*
X064992Y019261D01*
X064492Y018761D01*
X063992Y019261D01*
X062992Y019261D01*
X062492Y018761D01*
X061992Y019261D01*
X060992Y019261D01*
X060492Y018761D01*
X059992Y019261D01*
X058992Y019261D01*
X058492Y018761D01*
X057992Y019261D01*
X056992Y019261D01*
X056492Y018761D01*
X055992Y019261D01*
X054992Y019261D01*
X054492Y018761D01*
X053992Y019261D01*
X052992Y019261D01*
X052492Y018761D01*
X051992Y019261D01*
X050992Y019261D01*
X050492Y018761D01*
X049992Y019261D01*
X048992Y019261D01*
X048492Y018761D01*
X047992Y019261D01*
X046992Y019261D01*
X046492Y018761D01*
X045992Y019261D01*
X044992Y019261D01*
X044492Y018761D01*
X043992Y019261D01*
X042992Y019261D01*
X042492Y018761D01*
X041992Y019261D01*
X040992Y019261D01*
X040492Y018761D01*
X039992Y019261D01*
X038992Y019261D01*
X038492Y018761D01*
X037992Y019261D01*
X036992Y019261D01*
X036492Y018761D01*
X035992Y019261D01*
X034992Y019261D01*
X034492Y018761D01*
X033992Y019261D01*
X032992Y019261D01*
X032492Y018761D01*
X031992Y019261D01*
X030992Y019261D01*
X030492Y018761D01*
X029992Y019261D01*
X028992Y019261D01*
X028492Y018761D01*
X027992Y019261D01*
X026992Y019261D01*
X026492Y018761D01*
X025992Y019261D01*
X024992Y019261D01*
X024492Y018761D01*
X023992Y019261D01*
X022992Y019261D01*
X022492Y018761D01*
X021992Y019261D01*
X020992Y019261D01*
X020492Y018761D01*
X019992Y019261D01*
X018992Y019261D01*
X018492Y018761D01*
X017992Y019261D01*
X016992Y019261D01*
X016492Y018761D01*
X015492Y018761D01*
X016492Y017761D02*
X016992Y018261D01*
X017992Y018261D01*
X018492Y017761D01*
X018992Y018261D01*
X019992Y018261D01*
X020492Y017761D01*
X020992Y018261D01*
X021992Y018261D01*
X022492Y017761D01*
X022992Y018261D01*
X023992Y018261D01*
X024492Y017761D01*
X024992Y018261D01*
X025992Y018261D01*
X026492Y017761D01*
X026992Y018261D01*
X027992Y018261D01*
X028492Y017761D01*
X028992Y018261D01*
X029992Y018261D01*
X030492Y017761D01*
X030992Y018261D01*
X031992Y018261D01*
X032492Y017761D01*
X032992Y018261D01*
X033992Y018261D01*
X034492Y017761D01*
X034992Y018261D01*
X035992Y018261D01*
X036492Y017761D01*
X036992Y018261D01*
X037992Y018261D01*
X038492Y017761D01*
X038992Y018261D01*
X039992Y018261D01*
X040492Y017761D01*
X040992Y018261D01*
X041992Y018261D01*
X042492Y017761D01*
X042992Y018261D01*
X043992Y018261D01*
X044492Y017761D01*
X044992Y018261D01*
X045992Y018261D01*
X046492Y017761D01*
X046992Y018261D01*
X047992Y018261D01*
X048492Y017761D01*
X048992Y018261D01*
X049992Y018261D01*
X050492Y017761D01*
X050992Y018261D01*
X051992Y018261D01*
X052492Y017761D01*
X052992Y018261D01*
X053992Y018261D01*
X054492Y017761D01*
X054992Y018261D01*
X055992Y018261D01*
X056492Y017761D01*
X056992Y018261D01*
X057992Y018261D01*
X058492Y017761D01*
X058992Y018261D01*
X059992Y018261D01*
X060492Y017761D01*
X060992Y018261D01*
X061992Y018261D01*
X062492Y017761D01*
X062992Y018261D01*
X063992Y018261D01*
X064492Y017761D01*
X064992Y018261D01*
X065992Y018261D01*
X066492Y017761D01*
X066992Y018261D01*
X067992Y018261D01*
X068492Y017761D01*
X068992Y018261D01*
X069992Y018261D01*
X070492Y017761D01*
X070992Y018261D01*
X071992Y018261D01*
X072492Y017761D01*
X072992Y018261D01*
X073992Y018261D01*
X074492Y017761D01*
X074992Y018261D01*
X075992Y018261D01*
X076492Y017761D01*
X076992Y018261D01*
X077992Y018261D01*
X078492Y017761D01*
X078992Y018261D01*
X079992Y018261D01*
X080492Y017761D01*
X080992Y018261D01*
X081992Y018261D01*
X082492Y017761D01*
X082992Y018261D01*
X083992Y018261D01*
X084492Y017761D01*
X084992Y018261D01*
X085992Y018261D01*
X086492Y017761D01*
X086992Y018261D01*
X087992Y018261D01*
X088492Y017761D01*
X088992Y018261D01*
X089992Y018261D01*
X090492Y017761D01*
X090992Y018261D01*
X091992Y018261D01*
X092492Y017761D01*
X092992Y018261D01*
X093992Y018261D01*
X094492Y017761D01*
X094992Y018261D01*
X095992Y018261D01*
X096492Y017761D01*
X096992Y018261D01*
X097992Y018261D01*
X098492Y017761D01*
X098992Y018261D01*
X099992Y018261D01*
X100492Y017761D01*
X100992Y018261D01*
X101992Y018261D01*
X102492Y017761D01*
X102992Y018261D01*
X103992Y018261D01*
X104492Y017761D01*
X104992Y018261D01*
X105992Y018261D01*
X106492Y017761D01*
X106992Y018261D01*
X107992Y018261D01*
X108492Y017761D01*
X108992Y018261D01*
X109992Y018261D01*
X110492Y017761D01*
X110992Y018261D01*
X111992Y018261D01*
X112492Y017761D01*
X112992Y018261D01*
X113992Y018261D01*
X114492Y017761D01*
X114992Y018261D01*
X115992Y018261D01*
X116492Y017761D01*
X116992Y018261D01*
X117992Y018261D01*
X118492Y017761D01*
X118992Y018261D01*
X119992Y018261D01*
X120492Y017761D01*
X120992Y018261D01*
X121992Y018261D01*
X122492Y017761D01*
X122992Y018261D01*
X123992Y018261D01*
X124492Y017761D01*
X124992Y018261D01*
X125992Y018261D01*
X126492Y017761D01*
X126992Y018261D01*
X127992Y018261D01*
X128492Y017761D01*
X128992Y018261D01*
X129992Y018261D01*
X130492Y017761D01*
X130992Y018261D01*
X131992Y018261D01*
X132492Y017761D01*
X132992Y018261D01*
X133992Y018261D01*
X134492Y017761D01*
X134992Y018261D01*
X135992Y018261D01*
X136492Y017761D01*
X136992Y018261D01*
X137992Y018261D01*
X138492Y017761D01*
X138992Y018261D01*
X139992Y018261D01*
X140492Y017761D01*
X140992Y018261D01*
X141992Y018261D01*
X142492Y017761D01*
X142992Y017261D02*
X143992Y017261D01*
X144492Y017261D01*
X142992Y017261D02*
X142492Y016761D01*
X141992Y017261D01*
X140992Y017261D01*
X140492Y016761D01*
X139992Y017261D01*
X138992Y017261D01*
X138492Y016761D01*
X137992Y017261D01*
X136992Y017261D01*
X136492Y016761D01*
X135992Y017261D01*
X134992Y017261D01*
X134492Y016761D01*
X133992Y017261D01*
X132992Y017261D01*
X132492Y016761D01*
X131992Y017261D01*
X130992Y017261D01*
X130492Y016761D01*
X129992Y017261D01*
X128992Y017261D01*
X128492Y016761D01*
X127992Y017261D01*
X126992Y017261D01*
X126492Y016761D01*
X125992Y017261D01*
X124992Y017261D01*
X124492Y016761D01*
X123992Y017261D01*
X122992Y017261D01*
X122492Y016761D01*
X121992Y017261D01*
X120992Y017261D01*
X120492Y016761D01*
X119992Y017261D01*
X118992Y017261D01*
X118492Y016761D01*
X117992Y017261D01*
X116992Y017261D01*
X116492Y016761D01*
X115992Y017261D01*
X114992Y017261D01*
X114492Y016761D01*
X113992Y017261D01*
X112992Y017261D01*
X112492Y016761D01*
X111992Y017261D01*
X110992Y017261D01*
X110492Y016761D01*
X109992Y017261D01*
X108992Y017261D01*
X108492Y016761D01*
X107992Y017261D01*
X106992Y017261D01*
X106492Y016761D01*
X105992Y017261D01*
X104992Y017261D01*
X104492Y016761D01*
X103992Y017261D01*
X102992Y017261D01*
X102492Y016761D01*
X101992Y017261D01*
X100992Y017261D01*
X100492Y016761D01*
X099992Y017261D01*
X098992Y017261D01*
X098492Y016761D01*
X097992Y017261D01*
X096992Y017261D01*
X096492Y016761D01*
X095992Y017261D01*
X094992Y017261D01*
X094492Y016761D01*
X093992Y017261D01*
X092992Y017261D01*
X092492Y016761D01*
X091992Y017261D01*
X090992Y017261D01*
X090492Y016761D01*
X089992Y017261D01*
X088992Y017261D01*
X088492Y016761D01*
X087992Y017261D01*
X086992Y017261D01*
X086492Y016761D01*
X085992Y017261D01*
X084992Y017261D01*
X084492Y016761D01*
X083992Y017261D01*
X082992Y017261D01*
X082492Y016761D01*
X081992Y017261D01*
X080992Y017261D01*
X080492Y016761D01*
X079992Y017261D01*
X078992Y017261D01*
X078492Y016761D01*
X077992Y017261D01*
X076992Y017261D01*
X076492Y016761D01*
X075992Y017261D01*
X074992Y017261D01*
X074492Y016761D01*
X073992Y017261D01*
X072992Y017261D01*
X072492Y016761D01*
X071992Y017261D01*
X070992Y017261D01*
X070492Y016761D01*
X069992Y017261D01*
X068992Y017261D01*
X068492Y016761D01*
X067992Y017261D01*
X066992Y017261D01*
X066492Y016761D01*
X065992Y017261D01*
X064992Y017261D01*
X064492Y016761D01*
X063992Y017261D01*
X062992Y017261D01*
X062492Y016761D01*
X061992Y017261D01*
X060992Y017261D01*
X060492Y016761D01*
X059992Y017261D01*
X058992Y017261D01*
X058492Y016761D01*
X057992Y017261D01*
X056992Y017261D01*
X056492Y016761D01*
X055992Y017261D01*
X054992Y017261D01*
X054492Y016761D01*
X053992Y017261D01*
X052992Y017261D01*
X052492Y016761D01*
X051992Y017261D01*
X050992Y017261D01*
X050492Y016761D01*
X049992Y017261D01*
X048992Y017261D01*
X048492Y016761D01*
X047992Y017261D01*
X046992Y017261D01*
X046492Y016761D01*
X045992Y017261D01*
X044992Y017261D01*
X044492Y016761D01*
X043992Y017261D01*
X042992Y017261D01*
X042492Y016761D01*
X041992Y017261D01*
X040992Y017261D01*
X040492Y016761D01*
X039992Y017261D01*
X038992Y017261D01*
X038492Y016761D01*
X037992Y017261D01*
X036992Y017261D01*
X036492Y016761D01*
X035992Y017261D01*
X034992Y017261D01*
X034492Y016761D01*
X033992Y017261D01*
X032992Y017261D01*
X032492Y016761D01*
X031992Y017261D01*
X030992Y017261D01*
X030492Y016761D01*
X029992Y017261D01*
X028992Y017261D01*
X028492Y016761D01*
X027992Y017261D01*
X026992Y017261D01*
X026492Y016761D01*
X025992Y017261D01*
X024992Y017261D01*
X024492Y016761D01*
X023992Y017261D01*
X022992Y017261D01*
X022492Y016761D01*
X021992Y017261D01*
X020992Y017261D01*
X020492Y016761D01*
X019992Y017261D01*
X018992Y017261D01*
X018492Y016761D01*
X017992Y017261D01*
X016992Y017261D01*
X016492Y016761D01*
X016992Y016261D02*
X017992Y016261D01*
X018492Y015761D01*
X018992Y016261D01*
X019992Y016261D01*
X020492Y015761D01*
X020992Y016261D01*
X021992Y016261D01*
X022492Y015761D01*
X022992Y016261D01*
X023992Y016261D01*
X024492Y015761D01*
X024992Y016261D01*
X025992Y016261D01*
X026492Y015761D01*
X026992Y016261D01*
X027992Y016261D01*
X028492Y015761D01*
X028992Y016261D01*
X029992Y016261D01*
X030492Y015761D01*
X030992Y016261D01*
X031992Y016261D01*
X032492Y015761D01*
X032992Y016261D01*
X033992Y016261D01*
X034492Y015761D01*
X034992Y016261D01*
X035992Y016261D01*
X036492Y015761D01*
X036992Y016261D01*
X037992Y016261D01*
X038492Y015761D01*
X038992Y016261D01*
X039992Y016261D01*
X040492Y015761D01*
X040992Y016261D01*
X041992Y016261D01*
X042492Y015761D01*
X042992Y016261D01*
X043992Y016261D01*
X044492Y015761D01*
X044992Y016261D01*
X045992Y016261D01*
X046492Y015761D01*
X046992Y016261D01*
X047992Y016261D01*
X048492Y015761D01*
X048992Y016261D01*
X049992Y016261D01*
X050492Y015761D01*
X050992Y016261D01*
X051992Y016261D01*
X052492Y015761D01*
X052992Y016261D01*
X053992Y016261D01*
X054492Y015761D01*
X054992Y016261D01*
X055992Y016261D01*
X056492Y015761D01*
X056992Y016261D01*
X057992Y016261D01*
X058492Y015761D01*
X058992Y016261D01*
X059992Y016261D01*
X060492Y015761D01*
X060992Y016261D01*
X061992Y016261D01*
X062492Y015761D01*
X062992Y016261D01*
X063992Y016261D01*
X064492Y015761D01*
X064992Y016261D01*
X065992Y016261D01*
X066492Y015761D01*
X066992Y016261D01*
X067992Y016261D01*
X068492Y015761D01*
X068992Y016261D01*
X069992Y016261D01*
X070492Y015761D01*
X070992Y016261D01*
X071992Y016261D01*
X072492Y015761D01*
X072992Y016261D01*
X073992Y016261D01*
X074492Y015761D01*
X074992Y016261D01*
X075992Y016261D01*
X076492Y015761D01*
X076992Y016261D01*
X077992Y016261D01*
X078492Y015761D01*
X078992Y016261D01*
X079992Y016261D01*
X080492Y015761D01*
X080992Y016261D01*
X081992Y016261D01*
X082492Y015761D01*
X082992Y016261D01*
X083992Y016261D01*
X084492Y015761D01*
X084992Y016261D01*
X085992Y016261D01*
X086492Y015761D01*
X086992Y016261D01*
X087992Y016261D01*
X088492Y015761D01*
X088992Y016261D01*
X089992Y016261D01*
X090492Y015761D01*
X090992Y016261D01*
X091992Y016261D01*
X092492Y015761D01*
X092992Y016261D01*
X093992Y016261D01*
X094492Y015761D01*
X094992Y016261D01*
X095992Y016261D01*
X096492Y015761D01*
X096992Y016261D01*
X097992Y016261D01*
X098492Y015761D01*
X098992Y016261D01*
X099992Y016261D01*
X100492Y015761D01*
X100992Y016261D01*
X101992Y016261D01*
X102492Y015761D01*
X102992Y016261D01*
X103992Y016261D01*
X104492Y015761D01*
X104992Y016261D01*
X105992Y016261D01*
X106492Y015761D01*
X106992Y016261D01*
X107992Y016261D01*
X108492Y015761D01*
X108992Y016261D01*
X109992Y016261D01*
X110492Y015761D01*
X110992Y016261D01*
X111992Y016261D01*
X112492Y015761D01*
X112992Y016261D01*
X113992Y016261D01*
X114492Y015761D01*
X114992Y016261D01*
X115992Y016261D01*
X116492Y015761D01*
X116992Y016261D01*
X117992Y016261D01*
X118492Y015761D01*
X118992Y016261D01*
X119992Y016261D01*
X120492Y015761D01*
X120992Y016261D01*
X121992Y016261D01*
X122492Y015761D01*
X122992Y016261D01*
X123992Y016261D01*
X124492Y015761D01*
X124992Y016261D01*
X125992Y016261D01*
X126492Y015761D01*
X126992Y016261D01*
X127992Y016261D01*
X128492Y015761D01*
X128992Y016261D01*
X129992Y016261D01*
X130492Y015761D01*
X130992Y016261D01*
X131992Y016261D01*
X132492Y015761D01*
X132992Y016261D01*
X133992Y016261D01*
X134492Y015761D01*
X134992Y016261D01*
X135992Y016261D01*
X136492Y015761D01*
X136992Y016261D01*
X137992Y016261D01*
X138492Y015761D01*
X138992Y016261D01*
X139992Y016261D01*
X140492Y015761D01*
X140992Y016261D01*
X141992Y016261D01*
X142492Y015761D01*
X142992Y016261D01*
X143992Y016261D01*
X145492Y016261D01*
X142492Y014761D02*
X141992Y015261D01*
X140992Y015261D01*
X140492Y014761D01*
X139992Y015261D01*
X138992Y015261D01*
X138492Y014761D01*
X137992Y015261D01*
X136992Y015261D01*
X136492Y014761D01*
X135992Y015261D01*
X134992Y015261D01*
X134492Y014761D01*
X133992Y015261D01*
X132992Y015261D01*
X132492Y014761D01*
X131992Y015261D01*
X130992Y015261D01*
X130492Y014761D01*
X129992Y015261D01*
X128992Y015261D01*
X128492Y014761D01*
X127992Y015261D01*
X126992Y015261D01*
X126492Y014761D01*
X125992Y015261D01*
X124992Y015261D01*
X124492Y014761D01*
X123992Y015261D01*
X122992Y015261D01*
X122492Y014761D01*
X121992Y015261D01*
X120992Y015261D01*
X120492Y014761D01*
X119992Y015261D01*
X118992Y015261D01*
X118492Y014761D01*
X117992Y015261D01*
X116992Y015261D01*
X116492Y014761D01*
X115992Y015261D01*
X114992Y015261D01*
X114492Y014761D01*
X113992Y015261D01*
X112992Y015261D01*
X112492Y014761D01*
X111992Y015261D01*
X110992Y015261D01*
X110492Y014761D01*
X109992Y015261D01*
X108992Y015261D01*
X108492Y014761D01*
X107992Y015261D01*
X106992Y015261D01*
X106492Y014761D01*
X105992Y015261D01*
X104992Y015261D01*
X104492Y014761D01*
X103992Y015261D01*
X102992Y015261D01*
X102492Y014761D01*
X101992Y015261D01*
X100992Y015261D01*
X100492Y014761D01*
X099992Y015261D01*
X098992Y015261D01*
X098492Y014761D01*
X097992Y015261D01*
X096992Y015261D01*
X096492Y014761D01*
X095992Y015261D01*
X094992Y015261D01*
X094492Y014761D01*
X093992Y015261D01*
X092992Y015261D01*
X092492Y014761D01*
X091992Y015261D01*
X090992Y015261D01*
X090492Y014761D01*
X089992Y015261D01*
X088992Y015261D01*
X088492Y014761D01*
X087992Y015261D01*
X086992Y015261D01*
X086492Y014761D01*
X085992Y015261D01*
X084992Y015261D01*
X084492Y014761D01*
X083992Y015261D01*
X082992Y015261D01*
X082492Y014761D01*
X081992Y015261D01*
X080992Y015261D01*
X080492Y014761D01*
X079992Y015261D01*
X078992Y015261D01*
X078492Y014761D01*
X077992Y015261D01*
X076992Y015261D01*
X076492Y014761D01*
X075992Y015261D01*
X074992Y015261D01*
X074492Y014761D01*
X073992Y015261D01*
X072992Y015261D01*
X072492Y014761D01*
X071992Y015261D01*
X070992Y015261D01*
X070492Y014761D01*
X069992Y015261D01*
X068992Y015261D01*
X068492Y014761D01*
X067992Y015261D01*
X066992Y015261D01*
X066492Y014761D01*
X065992Y015261D01*
X064992Y015261D01*
X064492Y014761D01*
X063992Y015261D01*
X062992Y015261D01*
X062492Y014761D01*
X061992Y015261D01*
X060992Y015261D01*
X060492Y014761D01*
X059992Y015261D01*
X058992Y015261D01*
X058492Y014761D01*
X057992Y015261D01*
X056992Y015261D01*
X056492Y014761D01*
X055992Y015261D01*
X054992Y015261D01*
X054492Y014761D01*
X053992Y015261D01*
X052992Y015261D01*
X052492Y014761D01*
X051992Y015261D01*
X050992Y015261D01*
X050492Y014761D01*
X049992Y015261D01*
X048992Y015261D01*
X048492Y014761D01*
X047992Y015261D01*
X046992Y015261D01*
X046492Y014761D01*
X045992Y015261D01*
X044992Y015261D01*
X044492Y014761D01*
X043992Y015261D01*
X042992Y015261D01*
X042492Y014761D01*
X041992Y015261D01*
X040992Y015261D01*
X040492Y014761D01*
X039992Y015261D01*
X038992Y015261D01*
X038492Y014761D01*
X037992Y015261D01*
X036992Y015261D01*
X036492Y014761D01*
X035992Y015261D01*
X034992Y015261D01*
X034492Y014761D01*
X033992Y015261D01*
X032992Y015261D01*
X032492Y014761D01*
X031992Y015261D01*
X030992Y015261D01*
X030492Y014761D01*
X029992Y015261D01*
X028992Y015261D01*
X028492Y014761D01*
X027992Y015261D01*
X026992Y015261D01*
X026492Y014761D01*
X025992Y015261D01*
X024992Y015261D01*
X024492Y014761D01*
X023992Y015261D01*
X022992Y015261D01*
X022492Y014761D01*
X021992Y015261D01*
X020992Y015261D01*
X020492Y014761D01*
X019992Y015261D01*
X018992Y015261D01*
X018492Y014761D01*
X017992Y015261D01*
X016992Y015261D01*
X016492Y014761D01*
X015492Y014761D01*
X016492Y013761D02*
X016992Y014261D01*
X017992Y014261D01*
X018492Y013761D01*
X018992Y014261D01*
X019992Y014261D01*
X020492Y013761D01*
X020992Y014261D01*
X021992Y014261D01*
X022492Y013761D01*
X022992Y014261D01*
X023992Y014261D01*
X024492Y013761D01*
X024992Y014261D01*
X025992Y014261D01*
X026492Y013761D01*
X026992Y014261D01*
X027992Y014261D01*
X028492Y013761D01*
X028992Y014261D01*
X029992Y014261D01*
X030492Y013761D01*
X030992Y014261D01*
X031992Y014261D01*
X032492Y013761D01*
X032992Y014261D01*
X033992Y014261D01*
X034492Y013761D01*
X034992Y014261D01*
X035992Y014261D01*
X036492Y013761D01*
X036992Y014261D01*
X037992Y014261D01*
X038492Y013761D01*
X038992Y014261D01*
X039992Y014261D01*
X040492Y013761D01*
X040992Y014261D01*
X041992Y014261D01*
X042492Y013761D01*
X042992Y014261D01*
X043992Y014261D01*
X044492Y013761D01*
X044992Y014261D01*
X045992Y014261D01*
X046492Y013761D01*
X046992Y014261D01*
X047992Y014261D01*
X048492Y013761D01*
X048992Y014261D01*
X049992Y014261D01*
X050492Y013761D01*
X050992Y014261D01*
X051992Y014261D01*
X052492Y013761D01*
X052992Y014261D01*
X053992Y014261D01*
X054492Y013761D01*
X054992Y014261D01*
X055992Y014261D01*
X056492Y013761D01*
X056992Y014261D01*
X057992Y014261D01*
X058492Y013761D01*
X058992Y014261D01*
X059992Y014261D01*
X060492Y013761D01*
X060992Y014261D01*
X061992Y014261D01*
X062492Y013761D01*
X062992Y014261D01*
X063992Y014261D01*
X064492Y013761D01*
X064992Y014261D01*
X065992Y014261D01*
X066492Y013761D01*
X066992Y014261D01*
X067992Y014261D01*
X068492Y013761D01*
X068992Y014261D01*
X069992Y014261D01*
X070492Y013761D01*
X070992Y014261D01*
X071992Y014261D01*
X072492Y013761D01*
X072992Y014261D01*
X073992Y014261D01*
X074492Y013761D01*
X074992Y014261D01*
X075992Y014261D01*
X076492Y013761D01*
X076992Y014261D01*
X077992Y014261D01*
X078492Y013761D01*
X078992Y014261D01*
X079992Y014261D01*
X080492Y013761D01*
X080992Y014261D01*
X081992Y014261D01*
X082492Y013761D01*
X082992Y014261D01*
X083992Y014261D01*
X084492Y013761D01*
X084992Y014261D01*
X085992Y014261D01*
X086492Y013761D01*
X086992Y014261D01*
X087992Y014261D01*
X088492Y013761D01*
X088992Y014261D01*
X089992Y014261D01*
X090492Y013761D01*
X090992Y014261D01*
X091992Y014261D01*
X092492Y013761D01*
X092992Y014261D01*
X093992Y014261D01*
X094492Y013761D01*
X094992Y014261D01*
X095992Y014261D01*
X096492Y013761D01*
X096992Y014261D01*
X097992Y014261D01*
X098492Y013761D01*
X098992Y014261D01*
X099992Y014261D01*
X100492Y013761D01*
X100992Y014261D01*
X101992Y014261D01*
X102492Y013761D01*
X102992Y014261D01*
X103992Y014261D01*
X104492Y013761D01*
X104992Y014261D01*
X105992Y014261D01*
X106492Y013761D01*
X106992Y014261D01*
X107992Y014261D01*
X108492Y013761D01*
X108992Y014261D01*
X109992Y014261D01*
X110492Y013761D01*
X110992Y014261D01*
X111992Y014261D01*
X112492Y013761D01*
X112992Y014261D01*
X113992Y014261D01*
X114492Y013761D01*
X114992Y014261D01*
X115992Y014261D01*
X116492Y013761D01*
X116992Y014261D01*
X117992Y014261D01*
X118492Y013761D01*
X118992Y014261D01*
X119992Y014261D01*
X120492Y013761D01*
X120992Y014261D01*
X121992Y014261D01*
X122492Y013761D01*
X122992Y014261D01*
X123992Y014261D01*
X124492Y013761D01*
X124992Y014261D01*
X125992Y014261D01*
X126492Y013761D01*
X126992Y014261D01*
X127992Y014261D01*
X128492Y013761D01*
X128992Y014261D01*
X129992Y014261D01*
X130492Y013761D01*
X130992Y014261D01*
X131992Y014261D01*
X132492Y013761D01*
X132992Y014261D01*
X133992Y014261D01*
X134492Y013761D01*
X134992Y014261D01*
X135992Y014261D01*
X136492Y013761D01*
X136992Y014261D01*
X137992Y014261D01*
X138492Y013761D01*
X138992Y014261D01*
X139992Y014261D01*
X140492Y013761D01*
X140992Y014261D01*
X141992Y014261D01*
X142492Y013761D01*
X142992Y013261D02*
X143992Y013261D01*
X144492Y013261D01*
X142992Y013261D02*
X142492Y012761D01*
X141992Y013261D01*
X140992Y013261D01*
X140492Y012761D01*
X139992Y013261D01*
X138992Y013261D01*
X138492Y012761D01*
X137992Y013261D01*
X136992Y013261D01*
X136492Y012761D01*
X135992Y013261D01*
X134992Y013261D01*
X134492Y012761D01*
X133992Y013261D01*
X132992Y013261D01*
X132492Y012761D01*
X131992Y013261D01*
X130992Y013261D01*
X130492Y012761D01*
X129992Y013261D01*
X128992Y013261D01*
X128492Y012761D01*
X127992Y013261D01*
X126992Y013261D01*
X126492Y012761D01*
X125992Y013261D01*
X124992Y013261D01*
X124492Y012761D01*
X123992Y013261D01*
X122992Y013261D01*
X122492Y012761D01*
X121992Y013261D01*
X120992Y013261D01*
X120492Y012761D01*
X119992Y013261D01*
X118992Y013261D01*
X118492Y012761D01*
X117992Y013261D01*
X116992Y013261D01*
X116492Y012761D01*
X115992Y013261D01*
X114992Y013261D01*
X114492Y012761D01*
X113992Y013261D01*
X112992Y013261D01*
X112492Y012761D01*
X111992Y013261D01*
X110992Y013261D01*
X110492Y012761D01*
X109992Y013261D01*
X108992Y013261D01*
X108492Y012761D01*
X107992Y013261D01*
X106992Y013261D01*
X106492Y012761D01*
X105992Y013261D01*
X104992Y013261D01*
X104492Y012761D01*
X103992Y013261D01*
X102992Y013261D01*
X102492Y012761D01*
X101992Y013261D01*
X100992Y013261D01*
X100492Y012761D01*
X099992Y013261D01*
X098992Y013261D01*
X098492Y012761D01*
X097992Y013261D01*
X096992Y013261D01*
X096492Y012761D01*
X095992Y013261D01*
X094992Y013261D01*
X094492Y012761D01*
X093992Y013261D01*
X092992Y013261D01*
X092492Y012761D01*
X091992Y013261D01*
X090992Y013261D01*
X090492Y012761D01*
X089992Y013261D01*
X088992Y013261D01*
X088492Y012761D01*
X087992Y013261D01*
X086992Y013261D01*
X086492Y012761D01*
X085992Y013261D01*
X084992Y013261D01*
X084492Y012761D01*
X083992Y013261D01*
X082992Y013261D01*
X082492Y012761D01*
X081992Y013261D01*
X080992Y013261D01*
X080492Y012761D01*
X079992Y013261D01*
X078992Y013261D01*
X078492Y012761D01*
X077992Y013261D01*
X076992Y013261D01*
X076492Y012761D01*
X075992Y013261D01*
X074992Y013261D01*
X074492Y012761D01*
X073992Y013261D01*
X072992Y013261D01*
X072492Y012761D01*
X071992Y013261D01*
X070992Y013261D01*
X070492Y012761D01*
X069992Y013261D01*
X068992Y013261D01*
X068492Y012761D01*
X067992Y013261D01*
X066992Y013261D01*
X066492Y012761D01*
X065992Y013261D01*
X064992Y013261D01*
X064492Y012761D01*
X063992Y013261D01*
X062992Y013261D01*
X062492Y012761D01*
X061992Y013261D01*
X060992Y013261D01*
X060492Y012761D01*
X059992Y013261D01*
X058992Y013261D01*
X058492Y012761D01*
X057992Y013261D01*
X056992Y013261D01*
X056492Y012761D01*
X055992Y013261D01*
X054992Y013261D01*
X054492Y012761D01*
X053992Y013261D01*
X052992Y013261D01*
X052492Y012761D01*
X051992Y013261D01*
X050992Y013261D01*
X050492Y012761D01*
X049992Y013261D01*
X048992Y013261D01*
X048492Y012761D01*
X047992Y013261D01*
X046992Y013261D01*
X046492Y012761D01*
X045992Y013261D01*
X044992Y013261D01*
X044492Y012761D01*
X043992Y013261D01*
X042992Y013261D01*
X042492Y012761D01*
X041992Y013261D01*
X040992Y013261D01*
X040492Y012761D01*
X039992Y013261D01*
X038992Y013261D01*
X038492Y012761D01*
X037992Y013261D01*
X036992Y013261D01*
X036492Y012761D01*
X035992Y013261D01*
X034992Y013261D01*
X034492Y012761D01*
X033992Y013261D01*
X032992Y013261D01*
X032492Y012761D01*
X031992Y013261D01*
X030992Y013261D01*
X030492Y012761D01*
X029992Y013261D01*
X028992Y013261D01*
X028492Y012761D01*
X027992Y013261D01*
X026992Y013261D01*
X026492Y012761D01*
X025992Y013261D01*
X024992Y013261D01*
X024492Y012761D01*
X023992Y013261D01*
X022992Y013261D01*
X022492Y012761D01*
X021992Y013261D01*
X020992Y013261D01*
X020492Y012761D01*
X019992Y013261D01*
X018992Y013261D01*
X018492Y012761D01*
X017992Y013261D01*
X016992Y013261D01*
X016492Y012761D01*
X016992Y012261D02*
X017992Y012261D01*
X018492Y011761D01*
X018992Y012261D01*
X019992Y012261D01*
X020492Y011761D01*
X020992Y012261D01*
X021992Y012261D01*
X022492Y011761D01*
X022992Y012261D01*
X023992Y012261D01*
X024492Y011761D01*
X024992Y012261D01*
X025992Y012261D01*
X026492Y011761D01*
X026992Y012261D01*
X027992Y012261D01*
X028492Y011761D01*
X028992Y012261D01*
X029992Y012261D01*
X030492Y011761D01*
X030992Y012261D01*
X031992Y012261D01*
X032492Y011761D01*
X032992Y012261D01*
X033992Y012261D01*
X034492Y011761D01*
X034992Y012261D01*
X035992Y012261D01*
X036492Y011761D01*
X036992Y012261D01*
X037992Y012261D01*
X038492Y011761D01*
X038992Y012261D01*
X039992Y012261D01*
X040492Y011761D01*
X040992Y012261D01*
X041992Y012261D01*
X042492Y011761D01*
X042992Y012261D01*
X043992Y012261D01*
X044492Y011761D01*
X044992Y012261D01*
X045992Y012261D01*
X046492Y011761D01*
X046992Y012261D01*
X047992Y012261D01*
X048492Y011761D01*
X048992Y012261D01*
X049992Y012261D01*
X050492Y011761D01*
X050992Y012261D01*
X051992Y012261D01*
X052492Y011761D01*
X052992Y012261D01*
X053992Y012261D01*
X054492Y011761D01*
X054992Y012261D01*
X055992Y012261D01*
X056492Y011761D01*
X056992Y012261D01*
X057992Y012261D01*
X058492Y011761D01*
X058992Y012261D01*
X059992Y012261D01*
X060492Y011761D01*
X060992Y012261D01*
X061992Y012261D01*
X062492Y011761D01*
X062992Y012261D01*
X063992Y012261D01*
X064492Y011761D01*
X064992Y012261D01*
X065992Y012261D01*
X066492Y011761D01*
X066992Y012261D01*
X067992Y012261D01*
X068492Y011761D01*
X068992Y012261D01*
X069992Y012261D01*
X070492Y011761D01*
X070992Y012261D01*
X071992Y012261D01*
X072492Y011761D01*
X072992Y012261D01*
X073992Y012261D01*
X074492Y011761D01*
X074992Y012261D01*
X075992Y012261D01*
X076492Y011761D01*
X076992Y012261D01*
X077992Y012261D01*
X078492Y011761D01*
X078992Y012261D01*
X079992Y012261D01*
X080492Y011761D01*
X080992Y012261D01*
X081992Y012261D01*
X082492Y011761D01*
X082992Y012261D01*
X083992Y012261D01*
X084492Y011761D01*
X084992Y012261D01*
X085992Y012261D01*
X086492Y011761D01*
X086992Y012261D01*
X087992Y012261D01*
X088492Y011761D01*
X088992Y012261D01*
X089992Y012261D01*
X090492Y011761D01*
X090992Y012261D01*
X091992Y012261D01*
X092492Y011761D01*
X092992Y012261D01*
X093992Y012261D01*
X094492Y011761D01*
X094992Y012261D01*
X095992Y012261D01*
X096492Y011761D01*
X096992Y012261D01*
X097992Y012261D01*
X098492Y011761D01*
X098992Y012261D01*
X099992Y012261D01*
X100492Y011761D01*
X100992Y012261D01*
X101992Y012261D01*
X102492Y011761D01*
X102992Y012261D01*
X103992Y012261D01*
X104492Y011761D01*
X104992Y012261D01*
X105992Y012261D01*
X106492Y011761D01*
X106992Y012261D01*
X107992Y012261D01*
X108492Y011761D01*
X108992Y012261D01*
X109992Y012261D01*
X110492Y011761D01*
X110992Y012261D01*
X111992Y012261D01*
X112492Y011761D01*
X112992Y012261D01*
X113992Y012261D01*
X114492Y011761D01*
X114992Y012261D01*
X115992Y012261D01*
X116492Y011761D01*
X116992Y012261D01*
X117992Y012261D01*
X118492Y011761D01*
X118992Y012261D01*
X119992Y012261D01*
X120492Y011761D01*
X120992Y012261D01*
X121992Y012261D01*
X122492Y011761D01*
X122992Y012261D01*
X123992Y012261D01*
X124492Y011761D01*
X124992Y012261D01*
X125992Y012261D01*
X126492Y011761D01*
X126992Y012261D01*
X127992Y012261D01*
X128492Y011761D01*
X128992Y012261D01*
X129992Y012261D01*
X130492Y011761D01*
X130992Y012261D01*
X131992Y012261D01*
X132492Y011761D01*
X132992Y012261D01*
X133992Y012261D01*
X134492Y011761D01*
X134992Y012261D01*
X135992Y012261D01*
X136492Y011761D01*
X136992Y012261D01*
X137992Y012261D01*
X138492Y011761D01*
X138992Y012261D01*
X139992Y012261D01*
X140492Y011761D01*
X140992Y012261D01*
X141992Y012261D01*
X142492Y011761D01*
X142992Y012261D01*
X143992Y012261D01*
X145492Y012261D01*
X143492Y011761D02*
X142992Y011261D01*
X141492Y011261D01*
X140492Y010261D01*
X141492Y010261D02*
X141492Y009761D01*
X140992Y009261D01*
X142492Y007761D01*
X142992Y007761D01*
X143992Y007761D01*
X145492Y009261D01*
X140992Y009261D02*
X140992Y006761D01*
X140502Y006479D01*
X138002Y006479D01*
X137492Y006761D01*
X137492Y007261D01*
X136492Y007261D02*
X136492Y006761D01*
X136002Y006479D01*
X134002Y006479D01*
X132992Y007261D01*
X125492Y007261D01*
X124992Y006761D02*
X124502Y006479D01*
X122002Y006479D01*
X121492Y006761D01*
X121492Y007261D01*
X120492Y007261D02*
X120492Y006761D01*
X120002Y006479D01*
X118002Y006479D01*
X116992Y007261D01*
X109492Y007261D01*
X107492Y007261D02*
X107492Y008261D01*
X106992Y008761D01*
X096992Y008761D01*
X097992Y008261D02*
X103492Y008261D01*
X103492Y007261D01*
X104492Y007261D02*
X104492Y006761D01*
X104002Y006479D01*
X102002Y006479D01*
X100992Y007261D01*
X093492Y007261D01*
X091492Y007261D02*
X091492Y008261D01*
X090992Y008761D01*
X080992Y008761D01*
X081992Y008261D02*
X087492Y008261D01*
X087492Y007261D01*
X088492Y007261D02*
X088492Y006761D01*
X088002Y006479D01*
X086002Y006479D01*
X084992Y007261D01*
X077492Y007261D01*
X076992Y006761D02*
X076502Y006479D01*
X074002Y006479D01*
X073492Y006761D01*
X073492Y007261D01*
X072492Y007261D02*
X072492Y006761D01*
X072002Y006479D01*
X070002Y006479D01*
X068992Y007261D01*
X061492Y007261D01*
X060992Y006761D02*
X060502Y006479D01*
X058002Y006479D01*
X057492Y006761D01*
X057492Y007261D01*
X056492Y007261D02*
X056492Y006761D01*
X056002Y006479D01*
X054002Y006479D01*
X052992Y007261D01*
X045492Y007261D01*
X043492Y007261D02*
X043492Y008261D01*
X042992Y008761D01*
X035992Y008761D01*
X035992Y008261D01*
X035492Y007761D01*
X030492Y007761D01*
X029992Y008261D01*
X027992Y008261D01*
X027492Y007761D01*
X027492Y007261D01*
X029492Y007261D02*
X029992Y007261D01*
X030492Y006761D01*
X037492Y006761D01*
X038002Y006479D01*
X040002Y006479D01*
X040492Y006761D01*
X040492Y007261D01*
X041492Y007261D02*
X041492Y006761D01*
X042002Y006479D01*
X044502Y006479D01*
X044992Y006761D01*
X044992Y008761D01*
X045492Y009261D01*
X045492Y010261D01*
X044492Y010261D02*
X045492Y011261D01*
X046992Y011261D01*
X047492Y011761D01*
X045492Y011761D02*
X044992Y011261D01*
X043992Y011261D01*
X043492Y010761D01*
X043492Y010261D01*
X042492Y010261D02*
X042492Y010761D01*
X043492Y011761D01*
X041492Y011761D02*
X041492Y010261D01*
X040492Y010261D02*
X040492Y010761D01*
X039492Y011761D01*
X038992Y011261D02*
X037992Y011261D01*
X037492Y011761D01*
X036992Y011261D02*
X037992Y010261D01*
X038492Y010261D01*
X039492Y010261D02*
X039492Y010761D01*
X038992Y011261D01*
X036992Y011261D02*
X035992Y011261D01*
X035492Y011761D01*
X033992Y010761D02*
X033492Y011261D01*
X033492Y011761D01*
X031492Y011761D02*
X030992Y011261D01*
X029492Y011261D01*
X028492Y010261D01*
X029492Y010261D02*
X029492Y009761D01*
X028992Y009261D01*
X026992Y009261D01*
X025492Y007761D01*
X025492Y007261D01*
X024492Y007261D02*
X024492Y008261D01*
X023992Y008761D01*
X021992Y008761D01*
X021492Y008261D01*
X016492Y008261D01*
X015992Y008761D01*
X015492Y009261D02*
X140992Y009261D01*
X139492Y008261D02*
X138992Y008761D01*
X128992Y008761D01*
X129992Y008261D02*
X135492Y008261D01*
X135492Y007261D01*
X139492Y007261D02*
X139492Y008261D01*
X139492Y010261D02*
X139492Y010761D01*
X139992Y011261D01*
X140992Y011261D01*
X141492Y011761D01*
X139492Y011761D02*
X138492Y010761D01*
X138492Y010261D01*
X137492Y010261D02*
X137492Y011761D01*
X136492Y010761D02*
X136492Y010261D01*
X135492Y010261D02*
X135492Y010761D01*
X134992Y011261D01*
X133992Y011261D01*
X133492Y011761D01*
X132492Y010261D02*
X131492Y011261D01*
X131492Y011761D01*
X135492Y011761D02*
X136492Y010761D01*
X134492Y010261D02*
X132492Y010261D01*
X127492Y011761D02*
X126992Y011261D01*
X125492Y011261D01*
X124492Y010261D01*
X125492Y010261D02*
X125492Y009261D01*
X124992Y008761D01*
X124992Y006761D01*
X123492Y007261D02*
X123492Y008261D01*
X122992Y008761D01*
X112992Y008761D01*
X113992Y008261D02*
X119492Y008261D01*
X119492Y007261D01*
X109492Y009261D02*
X108992Y008761D01*
X108992Y006761D01*
X108502Y006479D01*
X106002Y006479D01*
X105492Y006761D01*
X105492Y007261D01*
X109492Y009261D02*
X109492Y010261D01*
X108492Y010261D02*
X109492Y011261D01*
X110992Y011261D01*
X111492Y011761D01*
X109492Y011761D02*
X108992Y011261D01*
X107992Y011261D01*
X107492Y010761D01*
X107492Y010261D01*
X106492Y010261D02*
X106492Y010761D01*
X107492Y011761D01*
X105492Y011761D02*
X105492Y010261D01*
X104492Y010261D02*
X104492Y010761D01*
X103492Y011761D01*
X102992Y011261D02*
X101992Y011261D01*
X101492Y011761D01*
X102992Y011261D02*
X103492Y010761D01*
X103492Y010261D01*
X102492Y010261D02*
X100492Y010261D01*
X099492Y011261D01*
X099492Y011761D01*
X095492Y011761D02*
X094992Y011261D01*
X093492Y011261D01*
X092492Y010261D01*
X093492Y010261D02*
X093492Y009261D01*
X092992Y008761D01*
X092992Y006761D01*
X092502Y006479D01*
X090002Y006479D01*
X089492Y006761D01*
X089492Y007261D01*
X089492Y010261D02*
X089492Y011761D01*
X090492Y010761D02*
X091492Y011761D01*
X091992Y011261D02*
X092992Y011261D01*
X093492Y011761D01*
X091992Y011261D02*
X091492Y010761D01*
X091492Y010261D01*
X090492Y010261D02*
X090492Y010761D01*
X088492Y010761D02*
X088492Y010261D01*
X087492Y010261D02*
X087492Y010761D01*
X086992Y011261D01*
X085992Y011261D01*
X085492Y011761D01*
X084492Y010261D02*
X083492Y011261D01*
X083492Y011761D01*
X087492Y011761D02*
X088492Y010761D01*
X086492Y010261D02*
X084492Y010261D01*
X079492Y011761D02*
X078992Y011261D01*
X077492Y011261D01*
X076492Y010261D01*
X077492Y010261D02*
X077492Y009261D01*
X076992Y008761D01*
X076992Y006761D01*
X075492Y007261D02*
X075492Y008261D01*
X074992Y008761D01*
X064992Y008761D01*
X065992Y008261D02*
X071492Y008261D01*
X071492Y007261D01*
X061492Y009261D02*
X060992Y008761D01*
X060992Y006761D01*
X059492Y007261D02*
X059492Y008261D01*
X058992Y008761D01*
X048992Y008761D01*
X049992Y008261D02*
X055492Y008261D01*
X055492Y007261D01*
X061492Y009261D02*
X061492Y010261D01*
X060492Y010261D02*
X061492Y011261D01*
X062992Y011261D01*
X063492Y011761D01*
X061492Y011761D02*
X060992Y011261D01*
X059992Y011261D01*
X059492Y010761D01*
X059492Y010261D01*
X058492Y010261D02*
X058492Y010761D01*
X059492Y011761D01*
X057492Y011761D02*
X057492Y010261D01*
X056492Y010261D02*
X056492Y010761D01*
X055492Y011761D01*
X054992Y011261D02*
X055492Y010761D01*
X055492Y010261D01*
X054492Y010261D02*
X052492Y010261D01*
X051492Y011261D01*
X051492Y011761D01*
X053492Y011761D02*
X053992Y011261D01*
X054992Y011261D01*
X067492Y011261D02*
X068492Y010261D01*
X070492Y010261D01*
X071492Y010261D02*
X071492Y010761D01*
X070992Y011261D01*
X069992Y011261D01*
X069492Y011761D01*
X071492Y011761D02*
X072492Y010761D01*
X072492Y010261D01*
X073492Y010261D02*
X073492Y011761D01*
X074492Y010761D02*
X075492Y011761D01*
X075992Y011261D02*
X076992Y011261D01*
X077492Y011761D01*
X075992Y011261D02*
X075492Y010761D01*
X075492Y010261D01*
X074492Y010261D02*
X074492Y010761D01*
X067492Y011261D02*
X067492Y011761D01*
X039492Y007761D02*
X039492Y007261D01*
X039492Y007761D02*
X038992Y008261D01*
X037492Y008261D01*
X037492Y009761D02*
X036492Y010761D01*
X033992Y010761D01*
X029492Y011761D02*
X028992Y011261D01*
X028492Y011261D01*
X027492Y010261D01*
X026492Y010261D02*
X026492Y010761D01*
X027492Y011761D01*
X025492Y011761D02*
X025492Y010261D01*
X024492Y010261D02*
X024492Y010761D01*
X023492Y011761D01*
X022992Y011261D02*
X021992Y011261D01*
X021492Y011761D01*
X020992Y011261D02*
X019992Y011261D01*
X019492Y011761D01*
X020992Y011261D02*
X021992Y010261D01*
X022492Y010261D01*
X023492Y010261D02*
X023492Y010761D01*
X022992Y011261D01*
X017492Y011261D02*
X016992Y010761D01*
X015492Y010761D01*
X014992Y010261D01*
X014492Y010261D01*
X014071Y009761D01*
X014071Y008261D01*
X014492Y007761D01*
X021492Y007761D01*
X021992Y008261D01*
X022992Y008261D01*
X023492Y007761D01*
X023492Y007261D01*
X015492Y009261D02*
X014992Y009761D01*
X017492Y011261D02*
X017492Y011761D01*
X016992Y012261D02*
X016492Y011761D01*
X016492Y013761D02*
X014492Y013761D01*
X016492Y015761D02*
X016992Y016261D01*
X016492Y017761D02*
X014492Y017761D01*
X016492Y019761D02*
X016992Y020261D01*
X016492Y021761D02*
X014492Y021761D01*
X016492Y023761D02*
X016992Y024261D01*
X016492Y025761D02*
X014492Y025761D01*
X016492Y025761D02*
X016992Y026261D01*
X017992Y026261D01*
X018492Y025761D01*
X018992Y026261D01*
X019992Y026261D01*
X020492Y025761D01*
X020992Y026261D01*
X021992Y026261D01*
X022492Y025761D01*
X022992Y026261D01*
X023992Y026261D01*
X024492Y025761D01*
X024992Y026261D01*
X025992Y026261D01*
X026492Y025761D01*
X026992Y026261D01*
X027992Y026261D01*
X028492Y025761D01*
X028992Y026261D01*
X029992Y026261D01*
X030492Y025761D01*
X030992Y026261D01*
X031992Y026261D01*
X032492Y025761D01*
X032992Y026261D01*
X033992Y026261D01*
X034492Y025761D01*
X034992Y026261D01*
X035992Y026261D01*
X036492Y025761D01*
X036992Y026261D01*
X037992Y026261D01*
X038492Y025761D01*
X038992Y026261D01*
X039992Y026261D01*
X040492Y025761D01*
X040992Y026261D01*
X041992Y026261D01*
X042492Y025761D01*
X042992Y026261D01*
X043992Y026261D01*
X044492Y025761D01*
X044992Y026261D01*
X045992Y026261D01*
X046492Y025761D01*
X046992Y026261D01*
X047992Y026261D01*
X048492Y025761D01*
X048992Y026261D01*
X049992Y026261D01*
X050492Y025761D01*
X050992Y026261D01*
X051992Y026261D01*
X052492Y025761D01*
X052992Y026261D01*
X053992Y026261D01*
X054492Y025761D01*
X054992Y026261D01*
X055992Y026261D01*
X056492Y025761D01*
X056992Y026261D01*
X057992Y026261D01*
X058492Y025761D01*
X058992Y026261D01*
X059992Y026261D01*
X060492Y025761D01*
X060992Y026261D01*
X061992Y026261D01*
X062492Y025761D01*
X062992Y026261D01*
X063992Y026261D01*
X064492Y025761D01*
X064992Y026261D01*
X065992Y026261D01*
X066492Y025761D01*
X066992Y026261D01*
X067992Y026261D01*
X068492Y025761D01*
X068992Y026261D01*
X069992Y026261D01*
X070492Y025761D01*
X070992Y026261D01*
X071992Y026261D01*
X072492Y025761D01*
X072992Y026261D01*
X073992Y026261D01*
X074492Y025761D01*
X074992Y026261D01*
X075992Y026261D01*
X076492Y025761D01*
X076992Y026261D01*
X077992Y026261D01*
X078492Y025761D01*
X078992Y026261D01*
X079992Y026261D01*
X080492Y025761D01*
X080992Y026261D01*
X081992Y026261D01*
X082492Y025761D01*
X082992Y026261D01*
X083992Y026261D01*
X084492Y025761D01*
X084992Y026261D01*
X085992Y026261D01*
X086492Y025761D01*
X086992Y026261D01*
X087992Y026261D01*
X088492Y025761D01*
X088992Y026261D01*
X089992Y026261D01*
X090492Y025761D01*
X090992Y026261D01*
X091992Y026261D01*
X092492Y025761D01*
X092992Y026261D01*
X093992Y026261D01*
X094492Y025761D01*
X094992Y026261D01*
X095992Y026261D01*
X096492Y025761D01*
X096992Y026261D01*
X097992Y026261D01*
X098492Y025761D01*
X098992Y026261D01*
X099992Y026261D01*
X100492Y025761D01*
X100992Y026261D01*
X101992Y026261D01*
X102492Y025761D01*
X102992Y026261D01*
X103992Y026261D01*
X104492Y025761D01*
X104992Y026261D01*
X105992Y026261D01*
X106492Y025761D01*
X106992Y026261D01*
X107992Y026261D01*
X108492Y025761D01*
X108992Y026261D01*
X109992Y026261D01*
X110492Y025761D01*
X110992Y026261D01*
X111992Y026261D01*
X112492Y025761D01*
X112992Y026261D01*
X113992Y026261D01*
X114492Y025761D01*
X114992Y026261D01*
X115992Y026261D01*
X116492Y025761D01*
X116992Y026261D01*
X117992Y026261D01*
X118492Y025761D01*
X118992Y026261D01*
X119992Y026261D01*
X120492Y025761D01*
X120992Y026261D01*
X121992Y026261D01*
X122492Y025761D01*
X122992Y026261D01*
X123992Y026261D01*
X124492Y025761D01*
X124992Y026261D01*
X125992Y026261D01*
X126492Y025761D01*
X126992Y026261D01*
X127992Y026261D01*
X128492Y025761D01*
X128992Y026261D01*
X129992Y026261D01*
X130492Y025761D01*
X130992Y026261D01*
X131992Y026261D01*
X132492Y025761D01*
X132992Y026261D01*
X133992Y026261D01*
X134492Y025761D01*
X134992Y026261D01*
X135992Y026261D01*
X136492Y025761D01*
X136992Y026261D01*
X137992Y026261D01*
X138492Y025761D01*
X138992Y026261D01*
X139992Y026261D01*
X140492Y025761D01*
X140992Y026261D01*
X141992Y026261D01*
X142492Y025761D01*
X142492Y026761D02*
X141992Y027261D01*
X140992Y027261D01*
X140492Y026761D01*
X139992Y027261D01*
X138992Y027261D01*
X138492Y026761D01*
X137992Y027261D01*
X136992Y027261D01*
X136492Y026761D01*
X135992Y027261D01*
X134992Y027261D01*
X134492Y026761D01*
X133992Y027261D01*
X132992Y027261D01*
X132492Y026761D01*
X131992Y027261D01*
X130992Y027261D01*
X130492Y026761D01*
X129992Y027261D01*
X128992Y027261D01*
X128492Y026761D01*
X127992Y027261D01*
X126992Y027261D01*
X126492Y026761D01*
X125992Y027261D01*
X124992Y027261D01*
X124492Y026761D01*
X123992Y027261D01*
X122992Y027261D01*
X122492Y026761D01*
X121992Y027261D01*
X120992Y027261D01*
X120492Y026761D01*
X119992Y027261D01*
X118992Y027261D01*
X118492Y026761D01*
X117992Y027261D01*
X116992Y027261D01*
X116492Y026761D01*
X115992Y027261D01*
X114992Y027261D01*
X114492Y026761D01*
X113992Y027261D01*
X112992Y027261D01*
X112492Y026761D01*
X111992Y027261D01*
X110992Y027261D01*
X110492Y026761D01*
X109992Y027261D01*
X108992Y027261D01*
X108492Y026761D01*
X107992Y027261D01*
X106992Y027261D01*
X106492Y026761D01*
X105992Y027261D01*
X104992Y027261D01*
X104492Y026761D01*
X103992Y027261D01*
X102992Y027261D01*
X102492Y026761D01*
X101992Y027261D01*
X100992Y027261D01*
X100492Y026761D01*
X099992Y027261D01*
X098992Y027261D01*
X098492Y026761D01*
X097992Y027261D01*
X096992Y027261D01*
X096492Y026761D01*
X095992Y027261D01*
X094992Y027261D01*
X094492Y026761D01*
X093992Y027261D01*
X092992Y027261D01*
X092492Y026761D01*
X091992Y027261D01*
X090992Y027261D01*
X090492Y026761D01*
X089992Y027261D01*
X088992Y027261D01*
X088492Y026761D01*
X087992Y027261D01*
X086992Y027261D01*
X086492Y026761D01*
X085992Y027261D01*
X084992Y027261D01*
X084492Y026761D01*
X083992Y027261D01*
X082992Y027261D01*
X082492Y026761D01*
X081992Y027261D01*
X080992Y027261D01*
X080492Y026761D01*
X079992Y027261D01*
X078992Y027261D01*
X078492Y026761D01*
X077992Y027261D01*
X076992Y027261D01*
X076492Y026761D01*
X075992Y027261D01*
X074992Y027261D01*
X074492Y026761D01*
X073992Y027261D01*
X072992Y027261D01*
X072492Y026761D01*
X071992Y027261D01*
X070992Y027261D01*
X070492Y026761D01*
X069992Y027261D01*
X068992Y027261D01*
X068492Y026761D01*
X067992Y027261D01*
X066992Y027261D01*
X066492Y026761D01*
X065992Y027261D01*
X064992Y027261D01*
X064492Y026761D01*
X063992Y027261D01*
X062992Y027261D01*
X062492Y026761D01*
X061992Y027261D01*
X060992Y027261D01*
X060492Y026761D01*
X059992Y027261D01*
X058992Y027261D01*
X058492Y026761D01*
X057992Y027261D01*
X056992Y027261D01*
X056492Y026761D01*
X055992Y027261D01*
X054992Y027261D01*
X054492Y026761D01*
X053992Y027261D01*
X052992Y027261D01*
X052492Y026761D01*
X051992Y027261D01*
X050992Y027261D01*
X050492Y026761D01*
X049992Y027261D01*
X048992Y027261D01*
X048492Y026761D01*
X047992Y027261D01*
X046992Y027261D01*
X046492Y026761D01*
X045992Y027261D01*
X044992Y027261D01*
X044492Y026761D01*
X043992Y027261D01*
X042992Y027261D01*
X042492Y026761D01*
X041992Y027261D01*
X040992Y027261D01*
X040492Y026761D01*
X039992Y027261D01*
X038992Y027261D01*
X038492Y026761D01*
X037992Y027261D01*
X036992Y027261D01*
X036492Y026761D01*
X035992Y027261D01*
X034992Y027261D01*
X034492Y026761D01*
X033992Y027261D01*
X032992Y027261D01*
X032492Y026761D01*
X031992Y027261D01*
X030992Y027261D01*
X030492Y026761D01*
X029992Y027261D01*
X028992Y027261D01*
X028492Y026761D01*
X027992Y027261D01*
X026992Y027261D01*
X026492Y026761D01*
X025992Y027261D01*
X024992Y027261D01*
X024492Y026761D01*
X023992Y027261D01*
X022992Y027261D01*
X022492Y026761D01*
X021992Y027261D01*
X020992Y027261D01*
X020492Y026761D01*
X019992Y027261D01*
X018992Y027261D01*
X018492Y026761D01*
X017992Y027261D01*
X016992Y027261D01*
X016492Y026761D01*
X015492Y026761D01*
X115492Y011761D02*
X115492Y011261D01*
X116492Y010261D01*
X118492Y010261D01*
X119492Y010261D02*
X119492Y010761D01*
X118992Y011261D01*
X117992Y011261D01*
X117492Y011761D01*
X119492Y011761D02*
X120492Y010761D01*
X120492Y010261D01*
X121492Y010261D02*
X121492Y011761D01*
X122492Y010761D02*
X123492Y011761D01*
X123992Y011261D02*
X124992Y011261D01*
X125492Y011761D01*
X123992Y011261D02*
X123492Y010761D01*
X123492Y010261D01*
X122492Y010261D02*
X122492Y010761D01*
D14*
X122992Y008761D03*
X128992Y008761D03*
X129992Y008261D03*
X113992Y008261D03*
X112992Y008761D03*
X106992Y008761D03*
X097992Y008261D03*
X096992Y008761D03*
X090992Y008761D03*
X081992Y008261D03*
X080992Y008761D03*
X074992Y008761D03*
X065992Y008261D03*
X064992Y008761D03*
X058992Y008761D03*
X049992Y008261D03*
X048992Y008761D03*
X042992Y008761D03*
X037492Y008261D03*
X037492Y009761D03*
M02*
